<svg xmlns="http://www.w3.org/2000/svg" width="67.6" height="29.723" viewBox="0 0 67.6 29.723"><path d="M798.965,330.913v5.925c-1.352-2.062-2.821-1.294-4.223-.665a10.144,10.144,0,0,0-5.986,7.038c-.25.992-.645,1.594-1.878,1.537a11.939,11.939,0,0,1,4.634-8.475,11.6,11.6,0,0,1,4.639-2.229c1.959-.466,2.3-.912,2.547-3.131Z" transform="translate(-746.034 -330.913)" fill="#404040"/><path d="M652.124,387.386q0,.8-.006,1.6h-.285c-.794-.059-.831.491-.849,1.056-2.479.874-4.589.047-6.1-2.392v-2.139c1.387-2.594,3.39-3.563,5.986-2.887.863.225,1.577.547.819,1.634-.037,0-.15.034-.187,0a2.543,2.543,0,0,0-3-.793,3.3,3.3,0,0,0-1.739,2.952,3.2,3.2,0,0,0,1.424,2.982,1.5,1.5,0,0,0,2.329-1.316c.019-.414-.3-.937.257-1.251.18.332.5.282.8.293Z" transform="translate(-644.885 -367.603)" fill="#404040"/><path d="M814.485,360.249c1.513.825,1.824,1.992.679,3.2-2.022,2.127-4.118,4.187-6.238,6.216a1.844,1.844,0,0,1-2.755-.046q-3.349-3.255-6.608-6.6a1.861,1.861,0,0,1,0-2.849q3.219-3.292,6.516-6.508a2,2,0,0,1,3.067.043,12.486,12.486,0,0,0,1.145,1.116c1.249.882,1.144,1.59.018,2.586-.788.7-1.26.815-1.848-.043-.633-.924-1.141-.678-1.794.036-1.11,1.212-2.292,2.363-3.487,3.493-.513.484-.686.8-.072,1.371,1.334,1.241,2.617,2.54,3.871,3.863.493.52.781.476,1.242-.028.865-.946,1.8-1.827,2.948-2.974-1.047,0-1.855-.021-2.661.007a1.438,1.438,0,0,1-1.416-.526c-.272-.41-1.128-.646-.78-1.195.371-.585.835-1.373,1.691-1.359a42.573,42.573,0,0,1,6.247.131A.276.276,0,0,0,814.485,360.249Z" transform="translate(-754.597 -346.618)" fill="#3f3f3f"/><path d="M829.078,400.542v-5.537c2.058,2.325,3.877.778,5.59-.193a9.948,9.948,0,0,0,4.755-6.5,2.9,2.9,0,0,1,.186-.772,1.338,1.338,0,0,1,1.389-.582c.545.116.143.676.085,1.01a11.966,11.966,0,0,1-9.312,9.706,2.332,2.332,0,0,0-2.14,1.89A1.312,1.312,0,0,1,829.078,400.542Z" transform="translate(-776.095 -370.819)" fill="#434343"/><path d="M782.774,383.192c-2.045,1.083-1.651,2.34-1.126,3.649a10.321,10.321,0,0,0,7.365,6.561,1.64,1.64,0,0,1,1.477,1.832,11.755,11.755,0,0,1-8.171-4.192,10.181,10.181,0,0,1-2.6-5.328,2.132,2.132,0,0,0-1.858-2.011c-.331-.087-.644-.242-1.34-.511Z" transform="translate(-738.653 -368.154)" fill="#424242"/><path d="M832.947,340.742a12.215,12.215,0,0,1,9.754,6.568,5.962,5.962,0,0,1,.787,1.966c.25,1.823.867,3.231,2.963,3.516h-5.317c2.117-1.65.885-3.351.067-4.92a9.77,9.77,0,0,0-6.716-5.222A1.725,1.725,0,0,1,832.947,340.742Z" transform="translate(-778.851 -337.915)" fill="#414141"/><path d="M714.285,361.532c2.09-.012,3.379,1.132,3.381,3,0,1.99-1.378,3.243-3.584,3.256-2.087.012-3.368-1.169-3.367-3.1C710.716,362.708,712.033,361.544,714.285,361.532Zm-1.97,3.2c-.01,1.553.664,2.447,1.843,2.445s1.965-1.094,1.955-2.709c-.009-1.426-.769-2.349-1.956-2.375S712.326,362.991,712.315,364.736Z" transform="translate(-691.779 -352.724)" fill="#404040"/><path d="M693.691,360.751c-.961.819-.1,1.867-.35,2.776l-.2.436-1.071,0-.431-.182.035-6.152c.023-.025.069-.056.065-.074a1,1,0,0,0-.076-.171l-.04-.549.189-.281c1.346-.023,2.717-.411,4.013.28l.319.234-.017-.016.251.314c.779,2,.022,3.122-2.243,3.317Zm-.477-2.963c.011.576.028,1.151.03,1.727,0,.357.085.627.517.572a1.172,1.172,0,0,0,1.074-.857,1.644,1.644,0,0,0-.31-1.853c-.375-.334-.835-.563-1.243.011Z" transform="translate(-678.177 -349.084)" fill="#383838"/><path d="M740.935,363.841c-1.469.863.153,1.5.167,2.248-.318.064-.783-.078-.748.494a.362.362,0,0,0,.25.247c.571.03.423-.437.49-.754a2.155,2.155,0,0,1,.715,1.214c-2.078.78-2.09-1.3-3.152-2.35,0,.721-.029,1.225.008,1.725.044.594-.211.755-.776.762-.6.007-.76-.245-.753-.794.021-1.554.027-3.11,0-4.664-.01-.566.167-.832.756-.784.528.043,1.059.056,1.589.082l-.034.62-.771-.048c-.236-.245-.478-.438-.873,0h.876a12.61,12.61,0,0,0-.021,1.327c.024.3-.234.779.35.828.482.04.7-.309.851-.7a1.484,1.484,0,0,0-.138-1.151c.141-.293.561-.392.548-.791l.672.34c-.046.046-.091.093-.135.142-.712.622-.974,1.246,0,1.869C740.848,363.747,740.891,363.794,740.935,363.841Z" transform="translate(-710.6 -352.473)" fill="#494949"/><path d="M718.656,394.4c-.667.412-.6-.074-.6-.488,0-1.513-.013-3.027.011-4.539,0-.3-.223-.757.308-.878a1.038,1.038,0,0,1,1.07.343c1.05,1.139,2.125,2.254,3.191,3.378.269.006.271-.1.123-.281q0-1.448-.006-2.9-.008-.184-.015-.369c.407-.277.767-.347.774.3.019,1.635,0,3.271,0,4.906,0,.221,0,.452-.275.524a.886.886,0,0,1-.911-.394c-1.045-1.139-2.1-2.271-3.148-3.405-.068-.2-.153-.3-.3-.052l-.047,3.532Z" transform="translate(-696.984 -371.909)" fill="#3a3a3a"/><path d="M756.041,393.2c-.048.325.039.579-.3.614a1.2,1.2,0,0,1-1.365-.8c-.214-.568-.389-.975-1.163-.972-.948,0-1.722.048-1.757,1.23a.568.568,0,0,1-.7.6c-.429-.154-.2-.625-.088-.92.629-1.59,1.3-3.161,1.943-4.747.245-.609.83-1.019,1.136-.417C754.645,389.565,755.319,391.455,756.041,393.2Zm-3.025-3.847c-.44.859-.865,1.4-.544,2.068a1.24,1.24,0,0,0,.9-.213C753.788,390.653,753.239,390.2,753.016,389.355Z" transform="translate(-720.121 -371.219)" fill="#3c3c3c"/><path d="M680.57,393.6c-1.249,1.014-2.776.6-4.182.788-.6.078-.519-.48-.52-.861-.006-1.55,0-3.1.009-4.649l.153-.636a13.3,13.3,0,0,1,3.754.075c.039.351.252.472.581.444l-.012-.013c-.069.373.071.791-.242,1.111a2.337,2.337,0,0,0-1.66-1.121.686.686,0,0,0-1.065.068q-.035,2.125-.07,4.25-.1.007-.206.012c-.311.04-.808-.071-.725.43.074.446.487.016.733.1l.305-.022a4.073,4.073,0,0,0,2.023-.28A1.957,1.957,0,0,0,680.57,393.6Z" transform="translate(-666.954 -371.684)" fill="#383838"/><path d="M744.429,391.381c0,.755-.024,1.511.01,2.264.024.551-.123.808-.737.794-.539-.013-.681-.224-.675-.721.021-1.554.018-3.108,0-4.662,0-.475.09-.715.657-.715.6,0,.773.213.747.775C744.4,389.87,744.428,390.626,744.429,391.381Z" transform="translate(-714.797 -371.823)" fill="#414141"/><path d="M689.435,395.09a1.957,1.957,0,0,1-1.125-.3,3.565,3.565,0,0,0,.665-3.442c.313-.32.173-.738.242-1.111a1.308,1.308,0,0,1,1.362,1.353C690.613,392.857,690.911,394.288,689.435,395.09Z" transform="translate(-675.819 -373.173)" fill="#3f3f3f"/><path d="M761.442,366.727q0,2.006,0,4.011h-1.311l0-3.744C760.419,366.157,761,366.781,761.442,366.727Z" transform="translate(-726.984 -356.302)" fill="#3f3f3f"/><path d="M704.409,393.365a5.259,5.259,0,0,0-.483,2.976c0,.328.153.82-.36.85-.347.02-.93.366-1.045-.375.37-.051.862.133.968-.444.038-.207.049-.523-.072-.634-.392-.363-.53.355-.888.27l-.031-1.332c.425-.028.939.113,1.155-.4.131-.314-.211-.465-.427-.569-.89-.428-.436.6-.8.758l-.745-1.317c.7.125,1.132-.056,1.036-.871.459.241.177,1.22,1.047,1.052Z" transform="translate(-685.345 -374.625)" fill="#3b3b3b"/><path d="M757.325,363.013c-.442.055-1.023-.57-1.3.267-.21-.421.325-1.284-.747-1.2-.3.022-.7.339-.9-.15-.05-.122.054-.444.115-.452.377-.047.822-.361,1.107.179.2.109.374.343.656.164-.144-.306-.431-.118-.641-.188.911-.509,1.9-.127,2.843-.233.281-.031.537.054.485.434s-.352.367-.6.3C757.526,361.9,757.317,362.325,757.325,363.013Z" transform="translate(-722.868 -352.588)" fill="#3b3b3b"/><path d="M709.566,390.583l-.644-.037c.471-.807.327-2.144,2.031-2.176Z" transform="translate(-690.502 -371.843)" fill="#414141"/><path d="M701.767,390.279c.1.816-.34,1-1.036.871l-.3-.6c.159-.335-.359-.819.148-1.032s.593.348.831.621c.073.084.237.089.359.131Z" transform="translate(-684.394 -372.628)" fill="#414141"/><path d="M699.964,389.484c-.122-.041-.285-.047-.359-.131-.238-.273-.312-.839-.831-.621s.011.7-.148,1.032l-.809-1.29C698.888,388.294,699.768,388.174,699.964,389.484Z" transform="translate(-682.592 -371.839)" fill="#3b3b3b"/><path d="M704.251,397.751c.363-.156-.091-1.186.8-.758.215.1.558.255.427.569-.216.515-.73.374-1.155.4A.189.189,0,0,1,704.251,397.751Z" transform="translate(-687.169 -377.911)" fill="#414141"/><path d="M704.606,404.326c.359.085.5-.633.888-.27.12.111.11.427.072.634-.106.577-.6.394-.968.444Z" transform="translate(-687.422 -382.943)" fill="#414141"/><path d="M750.034,362.95a1.475,1.475,0,0,1-.008,2.152c-.044-.046-.087-.093-.128-.141.147-.623.471-1.246,0-1.869Q749.965,363.019,750.034,362.95Z" transform="translate(-719.691 -353.735)" fill="#494949"/><path d="M760.136,381.1h1.311C761.019,381.778,760.564,381.778,760.136,381.1Z" transform="translate(-726.984 -366.663)" fill="#3b3b3b"/><path d="M666.088,406.3c.018-.565.054-1.115.849-1.056q0,.27,0,.539c0,.08,0,.16,0,.24l-.492.039-.341.231Z" transform="translate(-659.989 -383.863)" fill="#3c3c3c"/><path d="M746,361.565c.013.4-.407.5-.548.791l-.275-.253.034-.62Z" transform="translate(-716.325 -352.69)" fill="#414141"/><path d="M690.067,389.171c-.328.029-.542-.093-.581-.444A.478.478,0,0,1,690.067,389.171Z" transform="translate(-676.657 -372.094)" fill="#3f3f3f"/><path d="M666.145,398.017c-.3-.012-.618.038-.8-.294l1.056-.012.025.3Z" transform="translate(-659.462 -378.497)" fill="#313131"/><path d="M758.665,362.34c.21.07.5-.118.641.188-.282.179-.453-.055-.656-.164Z" transform="translate(-725.926 -353.3)" fill="#3f3f3f"/><path d="M696.9,381.561l.2-.436C697.14,381.32,697.251,381.549,696.9,381.561Z" transform="translate(-681.936 -366.682)" fill="#484848"/><path d="M675.823,388.479l-.153.636C675.566,388.866,675.47,388.618,675.823,388.479Z" transform="translate(-666.747 -371.92)" fill="#838383"/><path d="M691.676,382l.431.182C691.92,382.219,691.7,382.332,691.676,382Z" transform="translate(-678.217 -367.302)" fill="#484848"/><path d="M669.042,397.9l-.024-.3c.328-.13.364.037.3.3Z" transform="translate(-662.076 -378.385)" fill="#404040"/><path d="M668.4,398.749h.28l-.007.269-.555-.263Z" transform="translate(-661.437 -379.236)" fill="#3c3c3c"/><path d="M669.041,405.8q0-.27,0-.539h.285q0,.269-.005.538Z" transform="translate(-662.09 -383.871)" fill="#313131"/><path d="M707.529,358.919l-.251-.314Z" transform="translate(-689.331 -350.639)" fill="#484848"/><path d="M691.662,359.758a.978.978,0,0,1,.076.171c0,.018-.042.049-.065.074A.191.191,0,0,1,691.662,359.758Z" transform="translate(-678.179 -351.461)" fill="#484848"/><path d="M852.5,378.123a.276.276,0,0,1-.236-.071Z" transform="translate(-792.612 -364.493)" fill="#505050"/><path d="M734.184,400.536c.148.176.146.287-.123.281Z" transform="translate(-708.41 -380.509)" fill="gray"/><path d="M734.284,389.186q.008.185.015.369a1.7,1.7,0,0,1-.068-.249C734.226,389.269,734.265,389.226,734.284,389.186Z" transform="translate(-708.531 -372.424)" fill="gray"/><path d="M698.819,371.3l.441-.071Z" transform="translate(-683.305 -359.631)" fill="#484848"/><path d="M691.749,356.869l-.189.281C691.5,356.977,691.531,356.858,691.749,356.869Z" transform="translate(-678.116 -349.402)" fill="#484848"/><path d="M721.008,395.359c.146-.252.231-.151.3.051Z" transform="translate(-699.111 -376.715)" fill="#6d6d6d"/><path d="M706.549,358.078l-.319-.234Z" transform="translate(-688.584 -350.097)" fill="#484848"/><path d="M669.047,407.127l.277,0c.02.209-.079.284-.277.243C669.047,407.288,669.047,407.208,669.047,407.127Z" transform="translate(-662.096 -385.203)" fill="#404040"/><path d="M666.149,408.337l.341-.231C666.436,408.271,666.377,408.428,666.149,408.337Z" transform="translate(-660.032 -385.902)" fill="#404040"/><path d="M720.227,408.325l.178-.317C720.466,408.181,720.437,408.3,720.227,408.325Z" transform="translate(-698.555 -385.832)" fill="#6d6d6d"/><path d="M697.23,359.783q-.035.2-.069.4Q697.2,359.983,697.23,359.783Z" transform="translate(-682.124 -351.479)" fill="#484848"/><path d="M748.326,363.443c.47.623.146,1.246,0,1.869C747.352,364.689,747.614,364.065,748.326,363.443Z" transform="translate(-718.118 -354.086)" fill="#414141"/><path d="M749.059,378.2c-.068.317.081.784-.49.754a.362.362,0,0,1-.25-.247c-.035-.571.43-.429.748-.494Z" transform="translate(-718.565 -364.6)" fill="#464646"/><path d="M740.336,362.821h-.876c.395-.435.636-.242.873,0Z" transform="translate(-712.256 -353.459)" fill="#464646"/><path d="M678.378,405.792c-.246-.088-.659.342-.733-.1-.083-.5.414-.39.725-.43Q678.374,405.525,678.378,405.792Z" transform="translate(-668.215 -383.873)" fill="#3c3c3c"/><path d="M682.214,389.659l-1.065.068A.686.686,0,0,1,682.214,389.659Z" transform="translate(-670.718 -372.604)" fill="#595959"/><path d="M680.2,405.763q0-.267-.007-.534c.069,0,.138-.007.206-.012l.107.524Z" transform="translate(-670.034 -383.844)" fill="#595959"/></svg>