<svg xmlns="http://www.w3.org/2000/svg" width="48.828" height="56.56" viewBox="0 0 48.828 56.56"><path d="M969.3,329h23.978c.437,0,.437,0,.437.421q0,16.342,0,32.684a18.145,18.145,0,0,1-1.261,7.03,16.52,16.52,0,0,1-4.334,5.959,39.753,39.753,0,0,1-9.258,5.868c-3.1,1.53-6.214,3.019-9.315,4.538a.664.664,0,0,1-.652-.081q-2.766-1.319-5.529-2.647a71.283,71.283,0,0,1-8.183-4.536A30.469,30.469,0,0,1,949.924,374a17.194,17.194,0,0,1-4.388-7.212,13.943,13.943,0,0,1-.579-3.5c-.123-4.612-.039-9.225-.05-13.838-.016-6.659,0-13.318,0-19.977,0-.54-.066-.471.486-.471Zm2.36,15.528c-.03-.094-.113-.115-.194-.141-.152-.243-.465-.41-.37-.772a7.645,7.645,0,0,0,.558-.7,1.7,1.7,0,0,1,.435-.63.437.437,0,0,0,0-.629,1.926,1.926,0,0,1-.309-.565,2.751,2.751,0,0,0-.462-.829c-.031-.053-.1-.141.008-.145.2-.008.2-.163.257-.285l.075-.111.008.014c.259.03.227-.23.342-.344,0-.01-.011-.021-.009-.029a.322.322,0,0,1,.026-.053c.077-.124.288-.2.146-.4l0-.028.024-.006a.109.109,0,0,0,.14-.059c.1-.045.176-.131.125-.228-.042-.081-.163-.046-.246-.032a.423.423,0,0,0-.241.1c-.181.222-.339.108-.526-.013a3.935,3.935,0,0,1,.32-.389,1.663,1.663,0,0,0,.609-1.554,5.771,5.771,0,0,1-.009-.73.844.844,0,0,0-.063-.492c-.3.361-.6.688-.864,1.042-.2.263-.362.467-.655.122a.418.418,0,0,0-.052.03l0,0c.083-.134-.033-.2-.1-.282-.182-.223-.377-.436-.547-.667-.132-.178-.23-.2-.38-.019-.286.352-.6.685-.878,1.041-.121.152-.2.136-.3,0-.166-.208-.329-.419-.508-.614a4.023,4.023,0,0,0-.6-.653,9.233,9.233,0,0,1-.008,1.1,1.845,1.845,0,0,0,.614,1.721c.041.037.071.086.113.123.229.2.173.315-.109.362-.044.007-.085.02-.128.031l-.063-.07a.3.3,0,0,0-.2-.153c-.082-.03-.185-.072-.243,0-.081.1.016.173.09.237.026.136.05.274.2.34a1.068,1.068,0,0,0,.265.6q.062.135.125.27c.033.116,0,.263.162.314l0-.005a7.525,7.525,0,0,1-.7,1.3.518.518,0,0,0,.081.715c.076.06.182.085.216.193a1.5,1.5,0,0,0,.491.792.554.554,0,0,1,.163.729.146.146,0,0,0-.068.133.557.557,0,0,0-.409.325c-.31.055-.595.21-.913.234-.225-.055-.447-.121-.675-.163a1.142,1.142,0,0,0-1.416,1.492,1.962,1.962,0,0,1,.033.194c-.4,0-.8.011-1.2-.01-.255-.013-.342.057-.341.33.011,2.489,0,4.978.012,7.466a6.106,6.106,0,0,0,.56,2.481,6.229,6.229,0,0,0,11.9-2.38c.009-.778,0-1.556,0-2.333,0-1.745-.006-3.489.006-5.234,0-.268-.078-.345-.338-.331-.354.02-.711,0-1.066,0,.021-.074.039-.149.062-.222a.991.991,0,0,0-.678-1.385,2.267,2.267,0,0,0-1.453.09l-.719-.169ZM951.237,358.22l-.037-.031.031.038a1.761,1.761,0,0,1,.532,1.04c.1.624.2,1.25.347,1.863.225.918.519,1.807,1.6,2.135a.751.751,0,0,0-.185.932,3.477,3.477,0,0,0,.466.88,7.876,7.876,0,0,0,3.174,2.719c-.352.156-.281.38-.129.606a2.465,2.465,0,0,0,.274.333,8.311,8.311,0,0,0,1.228,1.021,12.629,12.629,0,0,0,3.8,2.153c.406.111.81.232,1.209.366a19.829,19.829,0,0,0,8.633.9,19.462,19.462,0,0,0,7.119-2.169,16.435,16.435,0,0,0,6.75-6.721,20.914,20.914,0,0,0,2.453-9.148,28,28,0,0,0-.331-5.876,35.942,35.942,0,0,0-1.885-7.06c-.123-.325-.02-.335.248-.33.767.012,1.534,0,2.3.005.155,0,.269,0,.288-.215q.216-2.469.458-4.936c.03-.3-.058-.375-.355-.373-1.968.013-3.935.011-5.9,0a.487.487,0,0,0-.5.279c-.777,1.385-1.552,2.772-2.37,4.133a1.855,1.855,0,0,0-.16,1.62,26.494,26.494,0,0,1,1.206,6.492,19.232,19.232,0,0,1-.175,3.853,14.284,14.284,0,0,1-2.555,6.5,10.623,10.623,0,0,1-5.152,3.846,12.386,12.386,0,0,1-4.96.455,4.986,4.986,0,0,1-2.117-.476,1.563,1.563,0,0,0-.288-.081c-.184-.056-.284,0-.347.192a2.208,2.208,0,0,1-.248.685c-.116-.357-.4-.509-.606-.738-.633-.715-1.252-1.443-1.872-2.168-.34-.4-.337-.4-.651,0-.06.077-.124.15-.2.247-.033-.157-.058-.284-.086-.411a4.384,4.384,0,0,0-.352-1.311,16.255,16.255,0,0,1-.885-1.715,5.529,5.529,0,0,0-.3-.6c-.2-.334-.4-.373-.712-.151-.133.093-.252.2-.378.308-.075-.079-.046-.161-.043-.232a11.7,11.7,0,0,0-.328-3.5,15.8,15.8,0,0,1-.419-2.965c-.157.341-.148.686-.442.872l-.033-.033c.321-1.6.233-3.259.652-4.917-.272.239-.326.567-.613.687l-.042-.041a7.7,7.7,0,0,0,.555-3.647,2.851,2.851,0,0,1,.045-1.593,14.469,14.469,0,0,1-2.06,1.435,3.953,3.953,0,0,0-1.99,2.917c-.062.375-.126.748-.2,1.216-.1-.539-.163-.978-.259-1.409a4.091,4.091,0,0,0-1.191-2.4,25.812,25.812,0,0,1-2.392-1.85,4.732,4.732,0,0,1,.04.532,3.156,3.156,0,0,1-.07.492,6.666,6.666,0,0,0,.489,4.719l-.021.021a6.7,6.7,0,0,1-.789-.411l-.022-.012.026.008a3.226,3.226,0,0,1,.1,1,8.106,8.106,0,0,0-.036,3.517,3.84,3.84,0,0,0,.544,1.2c-.253-.018-.4-.212-.609-.18l-.025-.033c0,.007,0,.016,0,.02a.087.087,0,0,0,.024.012c.091.255.279.464.272.767a17.586,17.586,0,0,0,.05,1.957,5.321,5.321,0,0,0,.862,2.8Zm3.209-18.171q0,1.817,0,3.634c0,.388.234.79.462.8.254.011.524-.39.525-.784q0-3.684,0-7.368c0-.388-.115-.5-.488-.506s-.5.108-.5.491Q954.444,338.181,954.446,340.049Zm1.135-.359v.833c0,.866,0,1.733,0,2.6,0,.2.017.422.3.431a.894.894,0,0,0,.683-.667q0-3.332,0-6.665a.329.329,0,0,0-.146-.316.541.541,0,0,0-.84.485Q955.58,338.04,955.582,339.689Zm-2.491-.373c0-.987,0-1.975,0-2.962,0-.423-.119-.537-.534-.531-.371,0-.452.1-.452.524,0,1.819.02,3.639-.014,5.457a.891.891,0,0,0,.525.865c.222.134.35.05.438-.163a.915.915,0,0,0,.037-.361Q953.091,340.73,953.091,339.316Zm3.683-.055v.7c0,.788,0,1.575,0,2.363,0,.21.035.43.313.407a.909.909,0,0,0,.669-.764q0-2.829,0-5.658c0-.378-.128-.491-.51-.485s-.472.1-.473.475Q956.772,337.78,956.774,339.261Zm-2.538.469V336.3c0-.144.028-.315-.134-.382a.92.92,0,0,0-.652-.007c-.195.07-.148.277-.148.439,0,2.112.007,4.224-.009,6.335a.686.686,0,0,0,.354.714c.135.072.252.211.421.136.189-.083.167-.266.167-.434Q954.235,341.415,954.236,339.731Zm3.679-.816v.3c0,.766,0,1.532,0,2.3,0,.2.013.424.292.434a.916.916,0,0,0,.691-.7q0-2.482-.005-4.963c0-.361-.112-.461-.489-.461s-.488.1-.489.461C957.912,337.16,957.914,338.037,957.914,338.914Zm-6.005,0q0-1.333,0-2.666c0-.132.024-.284-.126-.351a.791.791,0,0,0-.649-.014c-.211.09-.166.292-.167.465,0,1.577.01,3.155-.009,4.732a.709.709,0,0,0,.4.729c.124.063.229.2.391.112s.161-.248.161-.407Q951.908,340.213,951.909,338.914Z" transform="translate(-944.889 -329)" fill="#5c5c5c"/><path d="M955.359,359.258c.213-.032.356.162.609.18a3.842,3.842,0,0,1-.545-1.2,8.107,8.107,0,0,1,.036-3.517,3.228,3.228,0,0,0-.1-1l0,0a6.658,6.658,0,0,0,.79.411c.014.026.028.055.058.015l-.037-.036a6.666,6.666,0,0,1-.489-4.719,3.156,3.156,0,0,0,.07-.492,4.759,4.759,0,0,0-.04-.532,25.813,25.813,0,0,0,2.391,1.85,4.091,4.091,0,0,1,1.191,2.4c.1.431.161.869.259,1.409.079-.468.143-.842.2-1.216a3.953,3.953,0,0,1,1.99-2.917,14.469,14.469,0,0,0,2.06-1.435,2.851,2.851,0,0,0-.045,1.593,7.7,7.7,0,0,1-.555,3.647c-.022.023-.047.047-.006.072.007,0,.031-.019.048-.03.287-.119.341-.447.614-.687-.419,1.659-.331,3.313-.652,4.917-.024.021-.044.044-.007.069,0,0,.026-.023.04-.035.294-.187.285-.532.442-.872a15.8,15.8,0,0,0,.419,2.965,11.694,11.694,0,0,1,.328,3.5c0,.071-.032.153.043.232.127-.1.246-.215.378-.308.316-.222.513-.183.712.151a5.52,5.52,0,0,1,.3.6,16.253,16.253,0,0,0,.885,1.715,4.388,4.388,0,0,1,.352,1.311c.028.127.053.254.086.411.081-.1.145-.17.2-.247.314-.4.311-.4.651,0,.621.725,1.239,1.453,1.872,2.168.2.229.489.381.606.738a2.209,2.209,0,0,0,.248-.685c.063-.188.163-.248.347-.192a1.561,1.561,0,0,1,.288.081,4.985,4.985,0,0,0,2.117.476,12.385,12.385,0,0,0,4.96-.455,10.624,10.624,0,0,0,5.152-3.846,14.285,14.285,0,0,0,2.555-6.5,19.241,19.241,0,0,0,.175-3.853,26.494,26.494,0,0,0-1.206-6.492,1.855,1.855,0,0,1,.16-1.62c.818-1.361,1.593-2.748,2.37-4.133a.487.487,0,0,1,.5-.279c1.967.009,3.935.011,5.9,0,.3,0,.385.073.356.373q-.245,2.467-.459,4.936c-.019.215-.133.215-.288.215-.767,0-1.534.007-2.3-.005-.268,0-.372.005-.248.33a35.937,35.937,0,0,1,1.885,7.06,28.006,28.006,0,0,1,.331,5.876,20.913,20.913,0,0,1-2.453,9.148,16.435,16.435,0,0,1-6.75,6.721,19.461,19.461,0,0,1-7.119,2.169,19.829,19.829,0,0,1-8.633-.9c-.4-.134-.8-.255-1.209-.366a12.628,12.628,0,0,1-3.8-2.153,8.307,8.307,0,0,1-1.228-1.021,2.457,2.457,0,0,1-.274-.333c-.153-.226-.224-.45.128-.606a7.875,7.875,0,0,1-3.174-2.719,3.473,3.473,0,0,1-.466-.88.75.75,0,0,1,.185-.932c-1.077-.329-1.371-1.217-1.6-2.135-.15-.613-.246-1.239-.347-1.863a1.761,1.761,0,0,0-.532-1.04l.006-.006.447.061a5.323,5.323,0,0,1-.862-2.8,17.586,17.586,0,0,1-.05-1.957c.007-.3-.182-.512-.272-.767Zm4.133-3.133.03.051c.007-.008.022-.02.021-.023a.47.47,0,0,0-.034-.046,1.578,1.578,0,0,0-.019-.23c-.268-1.178-.525-2.357-.711-3.552a2.766,2.766,0,0,0-1.006-1.89c-.473-.358-1.05-.54-1.544-.957a2.732,2.732,0,0,0,.556,1.331,11.874,11.874,0,0,1,1.005,1.643,2.078,2.078,0,0,1,.24.821,13.821,13.821,0,0,1-1.309-1.649,5.624,5.624,0,0,1-.732-1.954c-.06.074-.082.088-.084.1a7.6,7.6,0,0,0,.541,4,2.222,2.222,0,0,0,1.09,1.234A14.1,14.1,0,0,1,959.492,356.125Zm3.3-1.716a6.932,6.932,0,0,0-1.551,1.2,4.687,4.687,0,0,0-1.486,2.508,7.412,7.412,0,0,0,.576,4.1c.04.094.06.218.213.254a19.23,19.23,0,0,1,1.215-2.654,4.559,4.559,0,0,1,.644-1.007,2.313,2.313,0,0,0,.383-.692c.453-1.156.2-2.373.356-3.629a4.74,4.74,0,0,0-.844,1.793,17.73,17.73,0,0,1-.876,2.508c-.051.1-.063.264-.248.267a10.6,10.6,0,0,1,1.665-4.583c.016-.022.052-.053.046-.063C962.862,354.347,962.828,354.395,962.8,354.409Zm-4.717,3.929a5.965,5.965,0,0,1-2.42-3.5,7.637,7.637,0,0,0-.1,2.34,3.762,3.762,0,0,0,2.179,3.161,12.146,12.146,0,0,0,1.541.615c.08.026.159.079.258.015a12.8,12.8,0,0,1-.179-3.044,2.23,2.23,0,0,0-1.078-2.012c-.726-.465-1.57-.69-2.317-1.2a1.333,1.333,0,0,0,.262.762,14.04,14.04,0,0,0,.914,1.145,4.76,4.76,0,0,1,1,1.675Zm1.078,5.326a7.293,7.293,0,0,1-3.253-3.449,6.44,6.44,0,0,0,.332,2.778,3.042,3.042,0,0,0,2.663,2.229,5.769,5.769,0,0,1,2.653.9.536.536,0,0,0,.359.117,37.326,37.326,0,0,1-1.934-3.733,3.432,3.432,0,0,0-1.654-1.63c-.668-.324-1.4-.48-2.123-.8a1.852,1.852,0,0,0,.445,1.092c.322.308.676.575,1.024.852a5.282,5.282,0,0,1,1.52,1.609Zm-.051,6.854c-.011-.027-.018-.064-.056-.039-.007,0,.011.05.018.078a5.706,5.706,0,0,0,3,3.23,5.815,5.815,0,0,0,3.522.307,5.139,5.139,0,0,1,2.756.123,3.121,3.121,0,0,0,.388.088c.1.024.227.032.275-.057.066-.121-.082-.161-.151-.215a9.2,9.2,0,0,0-1.507-.912,13.182,13.182,0,0,1-2.79-1.734,4.581,4.581,0,0,0-1.108-.669c-1.286-.606-2.683-.31-4.057-.561a.87.87,0,0,0,.3.374,4.725,4.725,0,0,0,1.708.791,12.206,12.206,0,0,1,2.9,1.235c.09.06.207.1.258.243A11.421,11.421,0,0,1,959.106,370.518Zm5.664.141-.007.044.039-.006-.039-.033a8.437,8.437,0,0,0-2.116-3.023c-1.3-1.767-3.186-2.129-5.221-2.131a2.011,2.011,0,0,0,.485.418c.816.584,1.763.935,2.607,1.466a3.853,3.853,0,0,1,1.026.867c-1.675-.611-3.409-1.112-4.574-2.627a6.785,6.785,0,0,0,.662,2.268,4.108,4.108,0,0,0,1.515,1.73,1.608,1.608,0,0,0,1.007.255,9.2,9.2,0,0,1,4,.615C964.353,370.575,964.535,370.733,964.771,370.659Zm-1.722,4.453a.086.086,0,0,0-.129-.027l.07.086a6.3,6.3,0,0,0,1.366,1.16,18.522,18.522,0,0,0,8.619,2.865,2.1,2.1,0,0,0,1.3-.238c-.1-.111-.189-.21-.282-.3A28.485,28.485,0,0,0,970.922,376a6.893,6.893,0,0,0-1.859-1.018c-1.816-.646-3.679-.273-5.55-.3a.8.8,0,0,0,.325.28,6.129,6.129,0,0,0,2.876.835,7.721,7.721,0,0,1,2.852.712c.068.036.158.05.181.177-.611-.1-1.208-.167-1.791-.294A23,23,0,0,1,963.049,375.112Zm11.425-2.058c.114.328.221.606.3.89a.609.609,0,0,0,.471.444,5.007,5.007,0,0,1,2.977,2.309c.145.246.224.617.434.715.238.111.558-.13.841-.219a22.773,22.773,0,0,0,2.93-1.072c.187-.088.25-.162.152-.369-.143-.3-.235-.622-.373-.923-.079-.172-.032-.253.114-.347q1.274-.818,2.537-1.653c.135-.09.212-.1.315.049.186.275.4.529.6.8.088.122.148.158.281.039a16.41,16.41,0,0,0,2.25-2.54c.088-.12.072-.181-.036-.268-.269-.216-.521-.452-.793-.662a.246.246,0,0,1-.083-.38q.738-1.34,1.446-2.7c.089-.17.171-.182.329-.1.3.145.611.263.909.409.125.062.174.034.215-.083a21.918,21.918,0,0,0,.831-2.872c.03-.144-.005-.2-.136-.231a7.633,7.633,0,0,0-.735-.208c-.266-.043-.3-.179-.278-.411q.151-1.493.276-2.987c.016-.189.09-.24.268-.231.277.013.556-.006.833.007.179.008.246-.034.248-.231a31.566,31.566,0,0,0-.153-3.6c-.015-.149-.071-.183-.206-.179-.322.01-.645,0-.967.013-.155.006-.23-.026-.262-.2q-.273-1.523-.575-3.041c-.036-.184.026-.256.193-.3.3-.082.592-.188.891-.27.166-.045.211-.109.15-.281-.085-.239-.136-.491-.2-.737-.237-.878-.553-1.73-.834-2.594-.236-.728.086-1.181.843-1.194.9-.015,1.8,0,2.7,0,.146,0,.245,0,.262-.2q.158-1.926.341-3.851c.021-.217-.031-.282-.258-.281q-2.551.015-5.1,0a.386.386,0,0,0-.394.219q-1.034,1.822-2.1,3.629a.437.437,0,0,0,0,.487,13.194,13.194,0,0,1,.756,1.662,27.088,27.088,0,0,1,1.725,8,16.388,16.388,0,0,1-1.25,7.52,12.958,12.958,0,0,1-8.8,7.644A11.99,11.99,0,0,1,974.474,373.054Zm18.37-12.673a30.416,30.416,0,0,0-.605-5.858,36.934,36.934,0,0,0-1.707-5.9c-.029-.076-.023-.2-.147-.185s-.148.121-.154.228a1.457,1.457,0,0,0,.123.582,29.727,29.727,0,0,1,1.646,7.18,26.844,26.844,0,0,1-.429,8.585,16.464,16.464,0,0,1-6.3,9.994,20.068,20.068,0,0,1-6.7,3.075c-.267.075-.289-.062-.356-.227a5.059,5.059,0,0,0-2.959-2.933c-.249-.1-.319-.064-.316.218.013,1.256.016,2.513,0,3.768,0,.279.1.334.337.326a20.7,20.7,0,0,0,5.279-.837,16.031,16.031,0,0,0,10.265-8.561A21.234,21.234,0,0,0,992.844,360.381Zm-19.967,10.142a10.877,10.877,0,0,1,1.231,1.742.335.335,0,0,0,.345.189c.621-.02,1.243.014,1.865-.046a12,12,0,0,0,9.25-5.61,14.887,14.887,0,0,0,2.336-8.072,24.938,24.938,0,0,0-1.558-8.832,9.3,9.3,0,0,0-.663-1.534c-.024.054-.043.075-.039.09.031.118.063.235.1.351a23.434,23.434,0,0,1,1.1,10.9,13.674,13.674,0,0,1-3.435,7.4,10.761,10.761,0,0,1-8.235,3.56C974.425,370.651,973.688,370.562,972.877,370.524Zm1.636,7.714c0-.8-.032-1.555.006-2.3.133-2.587-1.328-4.3-3.145-5.889a1.789,1.789,0,0,0,.162.858c.352.968.877,1.864,1.181,2.852a1.972,1.972,0,0,1,.148,1.046,13.1,13.1,0,0,1-1.785-4.709C970.14,373.563,971.316,376.138,974.512,378.238Zm-11.4-19.562c-.116,0-.148.062-.191.109a7.405,7.405,0,0,0-1.7,3.086,3.912,3.912,0,0,0,.233,2.847,12.244,12.244,0,0,0,1.29,2.092c.265.351.544.692.817,1.038a.3.3,0,0,0,.028-.212,5.973,5.973,0,0,1-.093-2.182c.08-.473.3-.9.4-1.367.407-1.817-.3-3.516-.578-5.264-.58,1.768-.095,3.621-.43,5.408A10.043,10.043,0,0,1,963.113,358.676Zm3.552,13.714a2.292,2.292,0,0,0,0-.8,5.623,5.623,0,0,1-.037-2.374,5.05,5.05,0,0,0,.1-1.782c-.062-1.179-.909-2.009-1.3-3.1a2.64,2.64,0,0,0-.06,1.838A9.081,9.081,0,0,1,965.53,368a5.321,5.321,0,0,1-.434-3.884,3.747,3.747,0,0,0-1.171,2.971,6.758,6.758,0,0,0,.895,2.76A13.668,13.668,0,0,0,966.665,372.39Zm1.016-4.328c-.079,0-.092.045-.107.085a5.969,5.969,0,0,0-.4,2.214,4.375,4.375,0,0,0,.723,2.032,10.182,10.182,0,0,0,3.049,2.961c.064-.129-.012-.2-.046-.275a6.358,6.358,0,0,1-.577-3.531,1.745,1.745,0,0,0-.318-1.274,3.638,3.638,0,0,0-.5-.617,10.181,10.181,0,0,1-1.559-1.536,3.927,3.927,0,0,0,.66,1.818,9.724,9.724,0,0,1,.805,1.49,1.291,1.291,0,0,1,.122.692C968.767,370.814,967.709,369.671,967.68,368.062Zm-6.689-14.884a4.629,4.629,0,0,1,.838-1.6,13.069,13.069,0,0,0,1.036-1.467.872.872,0,0,0,.159-.606,3.678,3.678,0,0,1-.875.6,3.662,3.662,0,0,0-1.871,2.348,11.876,11.876,0,0,0-.32,3.565c0,.164.017.328.03.568a8.952,8.952,0,0,1,1.826-2.086,5.105,5.105,0,0,0,1.6-4.011c-.008-.26-.045-.519-.069-.778l-.088,0A6.8,6.8,0,0,1,960.991,353.178Zm24.387,20.969c-.1-.138-.236-.3-.35-.475-.095-.146-.179-.15-.321-.055-.413.277-.834.543-1.257.806-.638.4-.636.392-.328,1.063.078.169.154.211.324.11a16.206,16.206,0,0,0,1.811-1.229C985.316,374.32,985.394,374.287,985.378,374.146Zm4.589-5.96c0-.1-.064-.121-.123-.148-.12-.055-.248-.1-.362-.164-.205-.12-.333-.085-.445.137-.22.434-.469.853-.7,1.28-.338.621-.33.614.215,1.052.18.145.253.089.351-.073a20.04,20.04,0,0,0,1.006-1.943C989.93,368.277,989.949,368.226,989.966,368.186Zm.9-12.337c.267.014.515.05.438-.335-.139-.693-.262-1.389-.392-2.084-.014-.075-.014-.153-.109-.186a.554.554,0,0,0-.688.559c.1.555.232,1.1.3,1.662C990.461,355.793,990.571,355.931,990.871,355.849Zm.321,5.213c-.375,0-.379,0-.426.375q-.1.791-.179,1.584c-.056.539-.049.526.467.654.2.05.234,0,.264-.191.112-.668.159-1.342.238-2.013C991.6,361.079,991.6,361.065,991.191,361.062Zm-26.048,2.974-.016-.014,0,.022Z" transform="translate(-949.749 -335.502)" fill="#050505"/><path d="M991.045,361.56c.356,0,.712.016,1.066,0,.26-.015.34.063.338.331-.012,1.745-.006,3.489-.006,5.234,0,.778.005,1.556,0,2.333a6.229,6.229,0,0,1-11.9,2.38,6.109,6.109,0,0,1-.56-2.481c-.014-2.489,0-4.978-.012-7.466,0-.273.086-.342.341-.33.4.02.8.008,1.2.01a.692.692,0,0,0,.386.063c.454,0,.907-.006,1.361,0,.167,0,.362-.02.446.193-1.033,0-2.067.015-3.1.009-.222,0-.307.045-.307.29.01,2.423-.023,4.846.017,7.268a5.9,5.9,0,0,0,11.795-.075c.046-2.389.006-4.779.016-7.169,0-.253-.072-.318-.32-.316-.9.01-1.8,0-2.7-.008.028-.229.2-.186.355-.2A7.339,7.339,0,0,0,991.045,361.56Z" transform="translate(-961.352 -344.276)" fill="#0f0f0f"/><path d="M987.781,352.359c-.034-.107-.14-.132-.216-.193a.518.518,0,0,1-.081-.715,7.522,7.522,0,0,0,.7-1.3.346.346,0,0,0,.131.008,3.952,3.952,0,0,1,2.809,0c.055.021.171.076.14-.082a2.759,2.759,0,0,1,.463.831,1.926,1.926,0,0,0,.309.565.437.437,0,0,1,0,.629,1.7,1.7,0,0,0-.435.631,7.661,7.661,0,0,1-.558.7l-.134.007c-.164.185-.137.37.08.531l0,0c-.064.153.067.129.142.154l.071.048c-.213.347-.333.389-.516.026-.221-.437-.515-.4-.9-.4s-.766-.12-.9.407c-.016.062-.106.109-.166.156s0,.092.01.137l-.089.012c-.1-.109-.277-.165-.246-.362.363-.075.379-.357.385-.645l.077-.07a6.065,6.065,0,0,0,.628.191c.1.02.316.126.28-.116-.025-.173.208-.474-.172-.517a3,3,0,0,1-1.535-.635c-.043-.033-.1-.112-.141.009Zm3.188.4c.053-.067.189.019.206-.111,0-.015-.022-.048-.034-.048-.107,0-.156.064-.168.163-.11-.023-.194.01-.279.158C990.823,352.864,990.924,352.867,990.97,352.762Zm.652-1.448a.57.57,0,0,0,.06.047c.041-.04.016-.064-.026-.081a.886.886,0,0,0-.3-.3l-.158-.109a1.938,1.938,0,0,0-1.177-.455c-.169-.011-.28-.028-.254-.235.022-.179-.1-.161-.213-.136a2.312,2.312,0,0,0-1.621,1.143c-.015.033-.063.071,0,.1.012.005.043-.032.066-.05a2.608,2.608,0,0,1,3.145-.3l.159.1a.083.083,0,0,0,.016.049l-.077.074c-.02.005-.058.011-.058.016-.006.38-.015.762-.01,1.143,0,.112.09.047.145.039,0,.061-.025.144.058.166.065.016.091-.057.1-.106a1.465,1.465,0,0,0,.026-.223l-.019-.8.037-.136Zm-2.255.6c.016.161.049.435.068.71.021.3.249.189.4.2s.328.048.354-.218a6.6,6.6,0,0,0,0-1.518c-.034-.26-.142-.333-.384-.328-.224.005-.371.031-.389.315C989.408,351.317,989.379,351.559,989.367,351.917Zm1.034.817c.448-.091.5-.111.517-.283a5.178,5.178,0,0,0,.034-1.1c-.048-.416-.1-.459-.572-.465A3.953,3.953,0,0,1,990.4,352.734Zm-1.189-.013a4.186,4.186,0,0,1-.007-1.739c.021-.093-.005-.125-.094-.109-.223.038-.441.082-.44.383s0,.62-.01.931C988.651,352.536,988.815,352.715,989.212,352.721Zm-.746-1.569c-.484.167-.315.536-.355.827-.034.25.121.347.34.437A8.463,8.463,0,0,1,988.467,351.152Zm2,1.83a.4.4,0,0,0-.323.02A.423.423,0,0,0,990.462,352.982Zm.129-.1c-.019.009-.051.015-.054.027-.01.041.022.05.054.041a.2.2,0,0,0,.052-.034Z" transform="translate(-964.826 -338.806)" fill="#111"/><path d="M962.9,346.082q0-1.868,0-3.734c0-.383.116-.494.5-.491s.488.118.488.506q0,3.684,0,7.368c0,.394-.271.794-.525.784-.228-.009-.462-.41-.462-.8Q962.9,347.9,962.9,346.082Zm.685.032q0-1.815,0-3.63c0-.131.058-.293-.189-.3s-.216.158-.216.308q0,3.614,0,7.227c0,.2.011.461.211.457.177,0,.2-.269.2-.467C963.579,348.511,963.581,347.312,963.581,346.113Z" transform="translate(-953.339 -335.033)" fill="#121212"/><path d="M965.035,345.716q0-1.65,0-3.3a.541.541,0,0,1,.84-.485.329.329,0,0,1,.146.316q0,3.332,0,6.665a.894.894,0,0,1-.683.667c-.281-.009-.3-.228-.3-.431,0-.867,0-1.733,0-2.6Zm.313,3.541a.5.5,0,0,0,.41-.549c-.02-1.056-.008-2.112-.008-3.167s0-2.09,0-3.134c0-.14-.014-.23-.193-.227-.155,0-.214.041-.214.205C965.35,344.664,965.348,346.941,965.348,349.258Z" transform="translate(-954.343 -335.027)" fill="#0c0c0c"/><path d="M987.818,344.535c.043-.011.085-.024.128-.031.282-.047.339-.16.109-.362-.041-.037-.072-.086-.112-.123a1.845,1.845,0,0,1-.614-1.721,9.233,9.233,0,0,0,.008-1.1,4.03,4.03,0,0,1,.6.653c.18.195.343.405.508.614.106.134.182.15.3,0,.282-.356.592-.688.878-1.041.15-.184.248-.159.38.019.17.231.366.444.547.667.065.081.181.149.1.282-.228-.258-.469-.5-.677-.776-.141-.184-.214-.152-.34.007-.283.357-.59.695-.872,1.052-.12.152-.187.168-.315.005-.3-.377-.617-.739-.982-1.172,0,.6,0,1.1,0,1.612a.273.273,0,0,0,.074.179c.348.416.693.833,1.067,1.283l.342-.384c-.1.264.152.444.172.688.009.11.147.037.195-.039a1.134,1.134,0,0,0,.11-.511c.107.062.086.174.088.265.011.392-.155.52-.533.409-.209-.062-.137.118-.256.228a7.621,7.621,0,0,1,2.146.034c.132.025.158-.02.079-.128.449,0,.189-.194.1-.342a.492.492,0,0,0-.095.342c-.122-.07-.221-.18-.394-.069a.178.178,0,0,1-.274-.132c.082-.02.229.037.238-.054a1.345,1.345,0,0,1,.164-.5c0-.009-.038-.057-.066-.066a.294.294,0,0,0-.384.33c.012.1.032.193.049.29-.215-.276-.219-.633-.005-.735.048-.023.156.034.128-.082a.149.149,0,0,0-.184-.1c-.085.012-.125.135-.231.093-.064-.082-.02-.172-.028-.257a.291.291,0,0,0-.129-.262c-.181.131-.153.338-.164.591-.143-.164-.28-.24-.393-.083s.222.071.148.23c-.217.15-.329-.054-.476-.141.233-.379.563-.68.852-1.06.357.426.711.835,1.049,1.257.124.156.189.156.314,0,.281-.357.584-.7.878-1.044a.3.3,0,0,0,.106-.2c0-.525,0-1.05,0-1.647l-.8.955c-.369.439-.37.439-.7-.056a.356.356,0,0,1,.051-.03c.293.345.46.141.656-.122.263-.354.561-.681.863-1.042a.843.843,0,0,1,.063.492,5.782,5.782,0,0,0,.008.73,1.663,1.663,0,0,1-.609,1.554,3.913,3.913,0,0,0-.319.389c.187.12.345.235.526.013a.422.422,0,0,1,.241-.1c.083-.014.2-.049.246.032.051.1-.023.184-.125.228l-.1-.005c-.01-.049-.052-.1-.086-.066-.185.186-.369.3-.628.118-.046-.032-.152.024-.192.1a.083.083,0,0,0,.03.076c.146.049.23.125.168.3-.054.15-.2.182-.349.254a1.529,1.529,0,0,1,.479.135l-.075.111a4.983,4.983,0,0,0-1.815-.263,1.139,1.139,0,0,0-.531.046,2.652,2.652,0,0,0-.987.16c-.12.033-.187.091-.137.225l-.037.029-.124-.271.039-.041.482-.132c0-.118-.16-.121-.112-.236.127.044.262.082.365-.036.087-.1.006-.178-.061-.253-.065.058.012.263-.193.171-.094-.042-.088.065-.113.118-.1-.118-.257-.248.053-.287.151-.019.091-.1.035-.145a.247.247,0,0,0-.358.021c-.173.182-.179,0-.232-.092Z" transform="translate(-964.795 -334.724)" fill="#1e1e1e"/><path d="M959.458,345.349q0,1.414,0,2.829a.914.914,0,0,1-.037.361c-.089.214-.216.3-.438.163a.891.891,0,0,1-.525-.865c.034-1.818.014-3.638.014-5.457,0-.428.081-.52.452-.524.414-.006.533.108.534.531C959.459,343.375,959.458,344.362,959.458,345.349Zm-.274,3.087c0-2,0-3.966,0-5.933,0-.139.068-.319-.2-.319s-.2.181-.2.319c0,1.8.005,3.6-.01,5.4A.48.48,0,0,0,959.184,348.437Z" transform="translate(-951.256 -335.033)" fill="#111"/><path d="M967.281,345.3q0-1.481,0-2.962c0-.377.095-.469.473-.475s.509.106.51.485q0,2.829,0,5.658a.909.909,0,0,1-.669.764c-.278.023-.312-.2-.313-.407,0-.788,0-1.575,0-2.363Zm.273,3.144a.478.478,0,0,0,.408-.526c-.015-1.789,0-3.579-.012-5.368,0-.131.124-.355-.186-.358-.329,0-.2.234-.2.376-.009,1.412-.005,2.823-.005,4.234Z" transform="translate(-955.397 -335.034)" fill="#0c0c0c"/><path d="M961.667,345.789q0,1.685,0,3.368c0,.167.022.35-.167.434-.17.075-.286-.064-.421-.136a.686.686,0,0,1-.354-.714c.016-2.112.007-4.224.009-6.335,0-.163-.047-.37.148-.439a.919.919,0,0,1,.652.007c.162.066.134.238.134.382Zm-.265,3.5v-6.409c0-.156-.008-.312,0-.466s-.049-.2-.208-.209c-.28-.01-.194.186-.194.318,0,2.077,0,4.154-.01,6.23A.5.5,0,0,0,961.4,349.293Z" transform="translate(-952.32 -335.058)"/><path d="M997.777,360.061a7.345,7.345,0,0,1-1.583.067c-.151.011-.327-.032-.355.2a2.26,2.26,0,0,0-.669.074l-.071-.083a1.275,1.275,0,0,0,.368-.612,1.41,1.41,0,0,1,.794-.923c.081-.038.2-.046.23-.162a.2.2,0,0,0-.057-.025,1.423,1.423,0,0,0-1.041.495c-.071.062-.143.234-.218,0a2.163,2.163,0,0,0-.858-.394l.265-.3.123.065a4.671,4.671,0,0,0,.864.265c.134.007.138-.086.139-.181a2.267,2.267,0,0,1,1.452-.09.991.991,0,0,1,.678,1.385C997.816,359.912,997.8,359.987,997.777,360.061Z" transform="translate(-968.084 -342.778)" fill="#050505"/><path d="M969.43,344.947c0-.877,0-1.754,0-2.631,0-.361.112-.461.489-.461s.488.1.489.461q.006,2.481.005,4.963a.916.916,0,0,1-.691.7c-.28-.01-.291-.229-.292-.434,0-.766,0-1.532,0-2.3Zm.359,2.7c.13-.133.352-.157.351-.422q-.009-2.415,0-4.829c0-.2-.092-.212-.246-.21-.232,0-.159.175-.16.289q-.005,2.464,0,4.928A.286.286,0,0,0,969.79,347.648Z" transform="translate(-956.405 -335.032)" fill="#121212"/><path d="M984.988,360.316c-.084-.213-.279-.19-.446-.193-.454-.01-.907,0-1.361,0a.692.692,0,0,1-.386-.063c-.011-.065-.016-.131-.033-.194a1.142,1.142,0,0,1,1.416-1.492c.228.042.45.108.675.163l.066.188,0,.076c-.606-.244-.606-.244-.851-.155a1.367,1.367,0,0,1,1.047.971,1.336,1.336,0,0,0,.476.769l-.067.074A.926.926,0,0,0,984.988,360.316Z" transform="translate(-962.634 -342.768)" fill="#050505"/><path d="M957.275,344.944q0,1.3,0,2.6c0,.159,0,.319-.161.407s-.267-.049-.391-.112a.709.709,0,0,1-.4-.729c.018-1.577.007-3.155.009-4.732,0-.173-.044-.375.167-.465a.791.791,0,0,1,.649.014c.151.067.126.22.126.351Q957.276,343.611,957.275,344.944Zm-.3,2.694a.592.592,0,0,0,.033-.33q0-1.73,0-3.459c0-.477-.013-.954.005-1.43.009-.238-.109-.252-.283-.232-.2.023-.122.184-.122.284-.005,1.53.006,3.06-.012,4.59A.55.55,0,0,0,956.974,347.639Z" transform="translate(-950.255 -335.03)" fill="#050505"/><path d="M990.426,348.924a4.983,4.983,0,0,1,1.815.263c-.055.121-.055.276-.257.285-.1,0-.039.093-.008.144.03.158-.086.1-.141.081a3.952,3.952,0,0,0-2.809,0,.345.345,0,0,1-.131-.008l0,.005c.032-.175.193-.166.308-.2a4.541,4.541,0,0,1,2.466.024c.111.029.194.071.288-.048a5.949,5.949,0,0,0-1.532-.31Z" transform="translate(-965.539 -338.349)" fill="#cfcfcf"/><path d="M994.918,348.335a1.527,1.527,0,0,0-.479-.135c.15-.073.3-.1.349-.254.062-.17-.022-.246-.168-.3a.083.083,0,0,1-.03-.076c.04-.076.145-.132.192-.1.26.182.444.068.628-.118.033-.034.076.017.085.066l-.037.065-.024.006,0,.028c-.064.128-.256.211-.146.4a.329.329,0,0,0-.026.053c0,.008.005.019.009.029-.01-.1-.067-.106-.115-.037-.084.121-.152.254-.227.381Z" transform="translate(-968.141 -337.609)" fill="#cfcfcf"/><path d="M990.285,349.375a5.949,5.949,0,0,1,1.532.31c-.094.119-.177.077-.288.048a4.541,4.541,0,0,0-2.466-.024c-.115.034-.276.025-.308.2-.158-.05-.129-.2-.163-.313l.037-.029a.182.182,0,0,0,.256.057,3.9,3.9,0,0,1,.933-.2A1.124,1.124,0,0,0,990.285,349.375Z" transform="translate(-965.398 -338.561)" fill="#1e1e1e"/><path d="M988.141,354.533l.125,0a2.149,2.149,0,0,0,.94,1.067l-.078.07c-.1-.031-.131.005-.131.1a.409.409,0,0,1-.147.335l-.055-.052a.554.554,0,0,0-.163-.729A1.5,1.5,0,0,1,988.141,354.533Z" transform="translate(-965.186 -340.98)" fill="#252525"/><path d="M994.018,356.548l.134-.007c-.094.361.218.529.369.772-.013.015-.026.029-.04.043l-.175-.079-.071-.048a.137.137,0,0,0-.142-.154l0,0Z" transform="translate(-967.944 -341.924)" fill="#252525"/><path d="M986.819,358.687l-.066-.188c.318-.024.6-.179.913-.234a.424.424,0,0,1,.031.03c-.034.1-.217.045-.211.194l.006,0a.79.79,0,0,0-.583.186Z" transform="translate(-964.534 -342.733)" fill="#252525"/><path d="M996.262,358.558c0,.1,0,.189-.139.181-.157-.209-.44-.149-.626-.3l.046-.054Z" transform="translate(-968.638 -342.791)" fill="#252525"/><path d="M987.38,347.266c-.073-.064-.171-.135-.09-.237.058-.073.161-.031.243,0a.3.3,0,0,1,.2.153l-.037.041c-.1,0-.209-.179-.291.022Z" transform="translate(-964.772 -337.441)" fill="#1e1e1e"/><path d="M988.474,357.978a.557.557,0,0,1,.409-.325l.018.015.011.116c-.1.05-.255.032-.225.214l-.1.014-.085,0A.412.412,0,0,0,988.474,357.978Z" transform="translate(-965.342 -342.446)" fill="#252525"/><path d="M988.124,348.733a1.068,1.068,0,0,1-.265-.6l.018-.02a2.222,2.222,0,0,1,.287.578Z" transform="translate(-965.053 -337.969)" fill="#1e1e1e"/><path d="M995.355,348.859c.074-.127.142-.26.227-.381.048-.069.105-.065.115.037C995.582,348.629,995.615,348.889,995.355,348.859Z" transform="translate(-968.571 -338.118)" fill="#111"/><path d="M987.684,347.833c-.147-.066-.172-.2-.2-.34l.024-.02a.748.748,0,0,1,.192.34Z" transform="translate(-964.878 -337.669)" fill="#1e1e1e"/><path d="M996,348.078c-.11-.192.082-.274.146-.4C996.291,347.879,996.08,347.955,996,348.078Z" transform="translate(-968.859 -337.764)" fill="#111"/><path d="M994.94,358.291l-.123-.065.04-.186c.014-.014.027-.028.04-.043.081.025.164.046.194.14l-.043.05C994.951,358.158,994.923,358.2,994.94,358.291Z" transform="translate(-968.319 -342.607)" fill="#252525"/><path d="M989.245,357.535a.147.147,0,0,1,.069-.133l.055.052-.105.1Z" transform="translate(-965.704 -342.328)" fill="#252525"/><path d="M995.295,358.26l.133.068-.046.054-.13-.072Z" transform="translate(-968.523 -342.731)" fill="#252525"/><path d="M955.439,373.729a.088.088,0,0,1-.024-.012s0-.013,0-.02l.025.033Z" transform="translate(-949.827 -349.975)" fill="#050505"/><path d="M956.812,384.035l-.031-.038.038.031Z" transform="translate(-950.469 -354.808)" fill="#050505"/><path d="M996.36,347.555l.037-.065.1.005A.108.108,0,0,1,996.36,347.555Z" transform="translate(-969.043 -337.677)" fill="#111"/><path d="M988.117,347.353l.063.07-.046.04-.055-.068Z" transform="translate(-965.157 -337.612)" fill="#1e1e1e"/><path d="M955.444,363.316l-.026-.008.022.012Z" transform="translate(-949.83 -345.099)" fill="#050505"/><path d="M991.477,373.643a11.991,11.991,0,0,0,3.889-.367,12.958,12.958,0,0,0,8.8-7.644,16.388,16.388,0,0,0,1.25-7.52,27.09,27.09,0,0,0-1.725-8,13.2,13.2,0,0,0-.756-1.662.437.437,0,0,1,0-.487q1.063-1.806,2.1-3.629a.386.386,0,0,1,.394-.219q2.552.01,5.1,0c.228,0,.279.064.258.281q-.182,1.925-.341,3.851c-.016.2-.116.2-.262.2-.9-.005-1.8-.018-2.7,0-.757.012-1.079.466-.843,1.194.281.863.6,1.716.834,2.594.066.246.117.5.2.737.061.172.016.236-.15.281-.3.081-.591.188-.891.27-.167.046-.229.117-.193.3q.3,1.518.575,3.041c.031.175.107.207.262.2.322-.012.645,0,.967-.013.135,0,.191.03.206.179a31.539,31.539,0,0,1,.153,3.6c0,.2-.07.24-.248.231-.277-.013-.556.006-.833-.007-.179-.009-.253.042-.269.231q-.126,1.494-.276,2.987c-.023.231.012.368.278.411a7.615,7.615,0,0,1,.735.208c.131.035.166.087.136.231a21.918,21.918,0,0,1-.831,2.872c-.041.117-.09.145-.215.083-.3-.147-.61-.264-.909-.409-.158-.077-.24-.066-.329.1q-.709,1.355-1.446,2.7a.246.246,0,0,0,.083.38c.272.21.525.446.793.662.108.086.124.148.036.268a16.406,16.406,0,0,1-2.25,2.54c-.133.119-.193.083-.281-.039-.2-.27-.413-.524-.6-.8-.1-.152-.179-.139-.315-.049q-1.264.835-2.537,1.653c-.145.093-.193.175-.114.347.138.3.23.625.373.923.1.207.035.281-.152.369a22.774,22.774,0,0,1-2.93,1.072c-.283.089-.6.33-.841.219-.21-.1-.288-.47-.434-.715a5.007,5.007,0,0,0-2.977-2.309.609.609,0,0,1-.471-.444C991.7,374.248,991.591,373.971,991.477,373.643Z" transform="translate(-966.751 -336.09)" fill="#fcfcfc"/><path d="M1010.253,365.315a21.232,21.232,0,0,1-2.028,9.451,16.031,16.031,0,0,1-10.265,8.561,20.7,20.7,0,0,1-5.279.837c-.24.007-.341-.047-.338-.326.018-1.256.015-2.513,0-3.768,0-.281.067-.314.316-.218a5.059,5.059,0,0,1,2.959,2.933c.068.165.089.3.356.227a20.071,20.071,0,0,0,6.7-3.075,16.463,16.463,0,0,0,6.3-9.994,26.844,26.844,0,0,0,.429-8.585,29.726,29.726,0,0,0-1.646-7.18,1.459,1.459,0,0,1-.123-.582c.006-.107.036-.212.154-.228s.118.109.147.185a36.947,36.947,0,0,1,1.707,5.9A30.423,30.423,0,0,1,1010.253,365.315Z" transform="translate(-967.158 -340.435)" fill="#fafafa"/><path d="M988.467,375.39c.811.038,1.549.128,2.291.13a10.761,10.761,0,0,0,8.235-3.56,13.675,13.675,0,0,0,3.435-7.4,23.435,23.435,0,0,0-1.1-10.9c-.037-.116-.07-.233-.1-.351,0-.015.014-.036.039-.09a9.3,9.3,0,0,1,.663,1.534,24.938,24.938,0,0,1,1.558,8.832,14.888,14.888,0,0,1-2.336,8.072,12,12,0,0,1-9.25,5.61c-.622.06-1.243.027-1.865.046a.335.335,0,0,1-.345-.189A10.881,10.881,0,0,0,988.467,375.39Z" transform="translate(-965.339 -340.368)" fill="#fafafa"/><path d="M969.9,403.181a23,23,0,0,0,4.907,1.282c.583.127,1.18.2,1.791.293-.023-.127-.113-.141-.181-.177a7.722,7.722,0,0,0-2.852-.712,6.128,6.128,0,0,1-2.876-.835.8.8,0,0,1-.325-.28c1.871.029,3.734-.344,5.55.3a6.893,6.893,0,0,1,1.859,1.018,28.482,28.482,0,0,1,3.073,2.651c.092.093.179.193.282.3a2.1,2.1,0,0,1-1.3.238A18.522,18.522,0,0,1,971.2,404.4a6.3,6.3,0,0,1-1.366-1.16Z" transform="translate(-956.597 -363.571)" fill="#d9d9d9"/><path d="M966.3,390.689c-.236.074-.418-.084-.612-.158a9.2,9.2,0,0,0-4-.615,1.607,1.607,0,0,1-1.007-.255,4.108,4.108,0,0,1-1.515-1.73,6.787,6.787,0,0,1-.662-2.268c1.165,1.515,2.9,2.016,4.574,2.627a3.853,3.853,0,0,0-1.026-.867c-.845-.531-1.792-.882-2.607-1.466a2.008,2.008,0,0,1-.485-.418c2.035,0,3.919.365,5.221,2.131a8.436,8.436,0,0,1,2.116,3.023Z" transform="translate(-951.275 -355.532)" fill="#d9d9d9"/><path d="M962.487,394.656a11.421,11.421,0,0,0,5.452,2.281c-.052-.143-.168-.183-.258-.243a12.2,12.2,0,0,0-2.9-1.234,4.726,4.726,0,0,1-1.708-.791.87.87,0,0,1-.3-.374c1.375.251,2.772-.045,4.057.562a4.582,4.582,0,0,1,1.108.669,13.176,13.176,0,0,0,2.79,1.734,9.2,9.2,0,0,1,1.507.912c.069.054.217.094.151.215-.048.089-.172.081-.275.057a3.123,3.123,0,0,1-.389-.088,5.14,5.14,0,0,0-2.756-.123,5.815,5.815,0,0,1-3.522-.307,5.706,5.706,0,0,1-3-3.23Z" transform="translate(-953.129 -359.64)" fill="#d9d9d9"/><path d="M988.237,402.279c-3.2-2.1-4.372-4.675-3.432-8.145a13.105,13.105,0,0,0,1.785,4.709,1.974,1.974,0,0,0-.148-1.046c-.3-.988-.83-1.884-1.181-2.852a1.788,1.788,0,0,1-.162-.858c1.817,1.587,3.278,3.3,3.145,5.889C988.2,400.725,988.237,401.477,988.237,402.279Z" transform="translate(-963.472 -359.544)" fill="#d9d9d9"/><path d="M959.751,378.858a5.281,5.281,0,0,0-1.52-1.609c-.348-.277-.7-.544-1.024-.852a1.851,1.851,0,0,1-.445-1.092c.726.318,1.455.474,2.123.8a3.432,3.432,0,0,1,1.654,1.63,37.322,37.322,0,0,0,1.934,3.733.536.536,0,0,1-.359-.117,5.768,5.768,0,0,0-2.653-.9,3.043,3.043,0,0,1-2.663-2.229,6.442,6.442,0,0,1-.332-2.778,7.294,7.294,0,0,0,3.254,3.449c.006.029.016.057.052.036C959.777,378.924,959.759,378.882,959.751,378.858Z" transform="translate(-950.312 -350.729)" fill="#d9d9d9"/><path d="M968.252,372.664a10.043,10.043,0,0,0-.221,5.553c.335-1.787-.15-3.64.43-5.408.277,1.749.984,3.448.578,5.264-.1.463-.323.894-.4,1.367a5.973,5.973,0,0,0,.093,2.182.3.3,0,0,1-.028.212c-.273-.345-.552-.686-.817-1.038a12.245,12.245,0,0,1-1.29-2.092,3.912,3.912,0,0,1-.233-2.847,7.4,7.4,0,0,1,1.7-3.086C968.1,372.726,968.136,372.66,968.252,372.664Z" transform="translate(-954.888 -349.49)" fill="#d8d8d8"/><path d="M958.377,368.77a4.761,4.761,0,0,0-1-1.675,14.052,14.052,0,0,1-.914-1.145,1.333,1.333,0,0,1-.262-.762c.746.511,1.591.736,2.317,1.2A2.23,2.23,0,0,1,959.6,368.4a12.8,12.8,0,0,0,.179,3.044c-.1.064-.178.011-.258-.015a12.161,12.161,0,0,1-1.541-.615,3.763,3.763,0,0,1-2.179-3.161,7.647,7.647,0,0,1,.1-2.341,5.965,5.965,0,0,0,2.42,3.5c.019.019.048.055.053.052C958.412,368.843,958.395,368.805,958.377,368.77Z" transform="translate(-949.986 -345.982)" fill="#d9d9d9"/><path d="M966.766,364.684a10.6,10.6,0,0,0-1.665,4.583c.186,0,.2-.164.248-.267a17.707,17.707,0,0,0,.876-2.508,4.742,4.742,0,0,1,.844-1.793c-.153,1.255.1,2.473-.356,3.629a2.313,2.313,0,0,1-.383.692,4.554,4.554,0,0,0-.644,1.007,19.214,19.214,0,0,0-1.215,2.654c-.153-.036-.173-.16-.213-.254a7.413,7.413,0,0,1-.576-4.1,4.687,4.687,0,0,1,1.486-2.508,6.931,6.931,0,0,1,1.551-1.2Z" transform="translate(-953.669 -345.717)" fill="#d8d8d8"/><path d="M974.329,391.185a13.667,13.667,0,0,1-1.844-2.546,6.757,6.757,0,0,1-.895-2.76,3.747,3.747,0,0,1,1.171-2.971,5.319,5.319,0,0,0,.434,3.884,9.085,9.085,0,0,0-.162-1.825,2.64,2.64,0,0,1,.06-1.838c.395,1.092,1.242,1.922,1.3,3.1a5.053,5.053,0,0,1-.1,1.782,5.622,5.622,0,0,0,.037,2.375A2.3,2.3,0,0,1,974.329,391.185Z" transform="translate(-957.413 -354.297)" fill="#d8d8d8"/><path d="M978.223,390.349c.029,1.609,1.086,2.752,1.844,4.057a1.29,1.29,0,0,0-.122-.692,9.713,9.713,0,0,0-.805-1.49,3.928,3.928,0,0,1-.66-1.818,10.182,10.182,0,0,0,1.559,1.536,3.639,3.639,0,0,1,.5.617,1.745,1.745,0,0,1,.318,1.274,6.358,6.358,0,0,0,.577,3.532c.034.075.109.146.046.275a10.181,10.181,0,0,1-3.05-2.961,4.374,4.374,0,0,1-.723-2.032,5.97,5.97,0,0,1,.4-2.214C978.13,390.394,978.144,390.348,978.223,390.349Z" transform="translate(-960.291 -357.789)" fill="#d8d8d8"/><path d="M960.008,361.98a14.088,14.088,0,0,0-1.957-1.112,2.222,2.222,0,0,1-1.09-1.234,7.6,7.6,0,0,1-.542-4c0-.016.024-.03.084-.1a5.623,5.623,0,0,0,.732,1.954,13.816,13.816,0,0,0,1.309,1.649,2.078,2.078,0,0,0-.24-.821,11.864,11.864,0,0,0-1.005-1.643,2.733,2.733,0,0,1-.556-1.331c.494.417,1.071.6,1.544.957a2.766,2.766,0,0,1,1.006,1.89c.186,1.195.443,2.374.711,3.552a1.579,1.579,0,0,1,.019.23Z" transform="translate(-950.264 -341.357)" fill="#d8d8d8"/><path d="M965.156,359.059a6.8,6.8,0,0,0,2.27-3.456l.088,0c.023.259.061.518.069.778a5.1,5.1,0,0,1-1.6,4.011,8.95,8.95,0,0,0-1.826,2.086c-.013-.24-.03-.4-.03-.568a11.88,11.88,0,0,1,.32-3.565,3.662,3.662,0,0,1,1.871-2.348,3.678,3.678,0,0,0,.875-.6.872.872,0,0,1-.159.606,13.06,13.06,0,0,1-1.036,1.467A4.628,4.628,0,0,0,965.156,359.059Z" transform="translate(-953.914 -341.384)" fill="#d8d8d8"/><path d="M1009.848,401.288c.016.141-.062.174-.121.221a16.212,16.212,0,0,1-1.811,1.229c-.17.1-.246.059-.324-.11-.308-.671-.311-.666.328-1.063.423-.262.844-.529,1.257-.806.142-.1.226-.091.321.055C1009.612,400.988,1009.745,401.15,1009.848,401.288Z" transform="translate(-974.219 -362.643)" fill="#5a5a5a"/><path d="M1019.022,390.247c-.017.04-.037.091-.06.141a20.048,20.048,0,0,1-1.006,1.943c-.1.162-.171.218-.351.073-.544-.438-.553-.431-.215-1.052.233-.427.481-.846.7-1.28.112-.222.24-.257.445-.137.114.066.242.109.362.164C1018.958,390.126,1019.026,390.148,1019.022,390.247Z" transform="translate(-978.804 -357.563)" fill="#5a5a5a"/><path d="M1021.7,365.014c-.3.082-.41-.056-.45-.384-.068-.558-.2-1.108-.3-1.662a.554.554,0,0,1,.688-.559c.094.033.095.111.109.186.13.695.254,1.391.392,2.084C1022.217,365.063,1021.969,365.028,1021.7,365.014Z" transform="translate(-980.58 -344.667)" fill="#5a5a5a"/><path d="M1022.419,377.158c.4,0,.41.017.364.41-.079.671-.126,1.345-.238,2.013-.031.186-.06.241-.264.191-.516-.127-.523-.115-.467-.654s.115-1.057.179-1.584C1022.04,377.154,1022.045,377.154,1022.419,377.158Z" transform="translate(-980.977 -351.599)" fill="#5a5a5a"/><path d="M969.776,403.652l-.07-.087a.086.086,0,0,1,.129.027Z" transform="translate(-956.535 -363.983)" fill="#d9d9d9"/><path d="M956.969,364.065l.037.036c-.03.04-.044.011-.058-.015Z" transform="translate(-950.548 -345.455)" fill="#5c5c5c"/><path d="M963.264,367.824a.438.438,0,0,1,.035.046s-.013.015-.021.023l-.03-.051Z" transform="translate(-953.504 -347.219)" fill="#d8d8d8"/><path d="M970.262,363.323c-.017.011-.04.035-.048.03-.041-.024-.015-.049.006-.072Z" transform="translate(-956.763 -345.087)" fill="#5c5c5c"/><path d="M969.474,364.6c.032-.014.066-.062.094,0,.005.011-.03.041-.046.063Z" transform="translate(-956.426 -345.689)" fill="#d8d8d8"/><path d="M973.878,382.75l-.019.008,0-.021Z" transform="translate(-958.483 -354.217)" fill="#d8d8d8"/><path d="M970.26,371.364c-.014.012-.037.037-.04.035-.036-.025-.016-.048.008-.068Z" transform="translate(-956.766 -348.864)" fill="#5c5c5c"/><path d="M962.431,394.973c-.006-.027-.025-.073-.018-.077.038-.026.046.012.056.039Z" transform="translate(-953.112 -359.919)" fill="#d9d9d9"/><path d="M973.18,395.247l.039.033-.039.006.007-.043Z" transform="translate(-958.165 -360.085)" fill="#d9d9d9"/><path d="M983.991,362.063a.926.926,0,0,1,.534.141,6.523,6.523,0,0,0,1,.762,1.936,1.936,0,0,0,1.846.127,6.038,6.038,0,0,0,1.35-.956,2.26,2.26,0,0,1,.669-.074c.9,0,1.8.018,2.7.008.247,0,.321.063.32.316-.01,2.389.03,4.78-.016,7.169a5.9,5.9,0,0,1-11.795.075c-.04-2.422-.007-4.846-.017-7.268,0-.245.085-.291.307-.29C981.925,362.078,982.958,362.067,983.991,362.063Zm-2.444,2.947-.075.038q0,2.014,0,4.028a.542.542,0,0,0,.186.343c.718.862,1.451,1.713,2.151,2.589.215.269.31.192.483-.019.67-.815,1.358-1.616,2.029-2.43.144-.175.22-.182.369,0,.674.826,1.372,1.633,2.044,2.462.172.212.257.194.418,0,.736-.891,1.482-1.773,2.23-2.653a.647.647,0,0,0,.148-.458c-.005-1.111,0-2.223,0-3.335V365l-.083-.039a.929.929,0,0,1-.081.142c-.739.888-1.486,1.771-2.215,2.666-.172.211-.26.182-.418-.012-.676-.826-1.372-1.634-2.047-2.459-.152-.186-.223-.172-.366,0-.677.824-1.371,1.634-2.048,2.458-.156.191-.254.231-.42.011-.254-.336-.535-.652-.807-.975Z" transform="translate(-961.638 -344.515)" fill="#5a5a5a"/><path d="M992.518,357.668l-.04.186-.265.3a2.163,2.163,0,0,1,.858.394l0,.068a2.031,2.031,0,0,0-.279.664c-.059.071-.113.08-.181,0q-.318-.353-.644-.7a.17.17,0,0,1-.031-.2.62.62,0,0,0,.063.007l.037.021-.021-.036c-.011-.025-.022-.073-.033-.073-.056,0-.037.05-.044.083-.12-.029-.236.038-.348.029-.149-.013-.375.049-.368-.23l.092-.019a.648.648,0,0,0,.5-.107,1.465,1.465,0,0,1-.678-.084.439.439,0,0,0-.465.018.971.971,0,0,1-.8-.076c-.011-.045-.079-.083-.01-.137s.15-.094.166-.156c.132-.527.513-.407.9-.407s.677-.039.9.4c.184.363.3.321.516-.026Zm-.648.315-.032-.012.026.018.03.085.024-.018C991.9,358.032,991.886,358.008,991.87,357.984Z" transform="translate(-965.98 -342.236)" fill="#f5f5f5"/><path d="M991.129,352.68c.012-.358.04-.6.055-.841.018-.283.165-.309.389-.315.242-.005.35.068.384.328a6.607,6.607,0,0,1,0,1.518c-.026.265-.2.228-.354.218s-.379.1-.4-.2C991.178,353.115,991.145,352.841,991.129,352.68Z" transform="translate(-966.588 -339.57)" fill="#f5f5f5"/><path d="M988.347,358.108c-.03-.182.13-.163.225-.213l-.012-.006c-.031.2.146.253.246.362.213.307.541.236.841.254-.009.178-.131.237-.279.237a3.413,3.413,0,0,1-.413-.048.141.141,0,0,0-.227-.1c-.069.059.024.1.093.11.024.076.193.108.054.234s-.268.3-.419.428c-.113.1-.15.311-.367.265-.12-.239-.119-.534-.341-.726.224-.267.584-.285.868-.448Z" transform="translate(-965.002 -342.556)" fill="#f5f5f5"/><path d="M989.316,355.539a2.149,2.149,0,0,1-.94-1.067c.039-.121.1-.042.141-.009a3,3,0,0,0,1.535.635c.38.043.147.344.172.517.036.241-.183.135-.28.116A6.051,6.051,0,0,1,989.316,355.539Z" transform="translate(-965.296 -340.922)" fill="#f0f0f0"/><path d="M991.633,351.058a2.608,2.608,0,0,0-3.145.3l-.065-.048a2.312,2.312,0,0,1,1.621-1.143c.116-.025.235-.043.213.136-.026.207.085.224.254.235a1.938,1.938,0,0,1,1.177.455Z" transform="translate(-965.318 -338.924)" fill="#e9e9e9"/><path d="M993.059,353.611a3.953,3.953,0,0,0-.02-1.844c.471.007.523.049.572.465a5.186,5.186,0,0,1-.034,1.1C993.56,353.5,993.507,353.521,993.059,353.611Z" transform="translate(-967.484 -339.684)" fill="#f0f0f0"/><path d="M990.349,353.579c-.4-.005-.561-.185-.551-.535.008-.31.01-.621.01-.931s.217-.344.44-.383c.089-.015.116.016.094.109A4.186,4.186,0,0,0,990.349,353.579Z" transform="translate(-965.963 -339.665)" fill="#f0f0f0"/><path d="M989.114,352.261a8.446,8.446,0,0,0-.015,1.264c-.22-.09-.374-.187-.34-.437C988.8,352.8,988.63,352.428,989.114,352.261Z" transform="translate(-965.473 -339.915)" fill="#e9e9e9"/><path d="M994.838,352.51l.019.8-.187.163c-.055.007-.144.073-.145-.039-.005-.381,0-.762.01-1.143,0-.006.038-.011.058-.016Z" transform="translate(-968.181 -339.923)" fill="#e9e9e9"/><path d="M990.582,358.814c-.3-.019-.628.053-.841-.254l.089-.012a.972.972,0,0,0,.8.076l0,.2A.06.06,0,0,1,990.582,358.814Z" transform="translate(-965.937 -342.866)" fill="#3d3d3d"/><path d="M989.277,357.308l.012.006c0-.039-.007-.077-.011-.116l.105-.1a.409.409,0,0,0,.148-.335c0-.1.035-.135.131-.1C989.656,356.951,989.64,357.233,989.277,357.308Z" transform="translate(-965.719 -341.976)" fill="#e9e9e9"/><path d="M993.924,356.555l.08.531C993.787,356.925,993.76,356.74,993.924,356.555Z" transform="translate(-967.85 -341.93)" fill="#e9e9e9"/><path d="M994.8,354.392l.187-.163a1.482,1.482,0,0,1-.026.223c-.012.048-.038.122-.1.106C994.774,354.536,994.8,354.453,994.8,354.392Z" transform="translate(-968.309 -340.839)" fill="#252525"/><path d="M994.9,352.445l-.245-.232.077-.074a.4.4,0,0,1,.2.17Z" transform="translate(-968.243 -339.858)" fill="#3d3d3d"/><path d="M994.991,352.215a.4.4,0,0,0-.2-.17.083.083,0,0,1-.016-.049l.055-.057a.886.886,0,0,1,.3.3l-.035.034Z" transform="translate(-968.297 -339.764)" fill="#e9e9e9"/><path d="M994.152,355.159c.012-.1.061-.164.168-.163.012,0,.036.033.034.048-.017.129-.153.043-.206.111Z" transform="translate(-968.005 -341.199)" fill="#252525"/><path d="M993.9,355.293c-.046.1-.147.1-.275.162.085-.148.169-.18.279-.158Z" transform="translate(-967.761 -341.337)" fill="#e9e9e9"/><path d="M992.906,355.687a.422.422,0,0,1-.323.02A.4.4,0,0,1,992.906,355.687Z" transform="translate(-967.27 -341.512)" fill="#e9e9e9"/><path d="M994.63,351.9l-.159-.1.055-.068.158.109Z" transform="translate(-968.156 -339.668)" fill="#e9e9e9"/><path d="M994.145,357.546a.137.137,0,0,1,.142.154C994.212,357.675,994.081,357.7,994.145,357.546Z" transform="translate(-967.995 -342.396)" fill="#e9e9e9"/><path d="M993.386,355.527l.051.035a.2.2,0,0,1-.052.034c-.032.009-.063,0-.053-.041C993.334,355.542,993.366,355.536,993.386,355.527Z" transform="translate(-967.621 -341.448)" fill="#e9e9e9"/><path d="M995.412,352.5c.041.017.067.041.025.081a.565.565,0,0,1-.06-.047Z" transform="translate(-968.581 -340.029)" fill="#e9e9e9"/><path d="M988.459,352.38c-.023.018-.054.056-.066.05-.062-.028-.014-.065,0-.1Z" transform="translate(-965.29 -339.949)" fill="#e9e9e9"/><path d="M963.825,346.4c0,1.2,0,2.4,0,3.6,0,.2-.022.464-.2.467-.2,0-.211-.262-.211-.457q0-3.614,0-7.227c0-.15-.045-.314.216-.308s.188.168.189.3Q963.828,344.589,963.825,346.4Z" transform="translate(-953.583 -335.323)" fill="#cfcfcf"/><path d="M965.624,349.555c0-2.317,0-4.594,0-6.872,0-.164.059-.2.214-.205.179,0,.193.087.193.227,0,1.045,0,2.09,0,3.134s-.012,2.112.008,3.167A.5.5,0,0,1,965.624,349.555Z" transform="translate(-954.618 -335.325)" fill="#d8d8d8"/><path d="M989.078,344.452l-.342.384c-.374-.45-.719-.867-1.067-1.283a.273.273,0,0,1-.074-.179c0-.508,0-1.016,0-1.612.365.433.683.795.982,1.172.128.162.2.146.315-.005.282-.357.589-.7.872-1.052.126-.159.2-.19.34-.007.208.272.449.518.677.776l0,.005c.326.5.326.5.7.056l.8-.955c0,.6,0,1.122,0,1.647a.3.3,0,0,1-.106.2c-.294.347-.6.687-.878,1.044-.124.158-.189.158-.314,0-.338-.422-.692-.832-1.049-1.257-.29.38-.619.681-.852,1.06Z" transform="translate(-964.929 -334.98)" fill="#fafafa"/><path d="M990.669,346.453c.074-.159-.266-.067-.148-.23s.251-.081.393.083c.011-.253-.017-.46.164-.591a.291.291,0,0,1,.129.262c.007.085-.037.176.028.257.106.041.145-.082.231-.093a.149.149,0,0,1,.184.1c.029.116-.079.059-.128.082-.213.1-.21.459.005.735h0a.178.178,0,0,0,.274.132c.173-.112.272,0,.394.068h0c.079.108.053.153-.079.128a7.624,7.624,0,0,0-2.146-.034c.119-.11.047-.29.256-.228.378.111.543-.017.533-.409,0-.091.018-.2-.088-.265Zm.36.347a.184.184,0,0,0,.218-.191.188.188,0,0,0-.2-.21.175.175,0,0,0-.193.18C990.84,346.71,990.889,346.792,991.029,346.8Z" transform="translate(-966.043 -336.844)" fill="#cfcfcf"/><path d="M987.822,347.365l.055.068c.052.091.059.274.232.092a.247.247,0,0,1,.358-.021c.056.047.116.126-.035.145-.31.039-.154.169-.053.287h0c-.048.115.115.118.112.236l-.482.132a2.225,2.225,0,0,0-.287-.578.747.747,0,0,0-.192-.34C987.613,347.186,987.724,347.36,987.822,347.365Z" transform="translate(-964.9 -337.583)" fill="#d3d3d3"/><path d="M989.837,349.246a3.9,3.9,0,0,0-.934.2.182.182,0,0,1-.256-.057c-.05-.134.016-.192.137-.225a2.65,2.65,0,0,1,.987-.16Z" transform="translate(-965.415 -338.384)" fill="#cfcfcf"/><path d="M990.371,346.84c.147.087.259.291.476.141h0a1.134,1.134,0,0,1-.11.511c-.047.076-.186.149-.195.039-.02-.244-.269-.424-.172-.688Z" transform="translate(-966.221 -337.372)" fill="#5a5a5a"/><path d="M992.859,347.691c-.016-.1-.037-.193-.049-.29a.294.294,0,0,1,.384-.33c.028.009.071.057.066.066a1.347,1.347,0,0,0-.164.5c-.009.091-.155.034-.238.054Z" transform="translate(-967.376 -337.473)" fill="#5a5a5a"/><path d="M990.846,349.2l-.066-.241a1.139,1.139,0,0,1,.531-.046v.239A1.123,1.123,0,0,1,990.846,349.2Z" transform="translate(-966.424 -338.341)" fill="#d9d9d9"/><path d="M989.129,348.254c.025-.053.018-.161.113-.118.2.091.127-.113.193-.171.067.075.148.154.061.253-.1.118-.238.08-.365.036Z" transform="translate(-965.649 -337.899)" fill="#5a5a5a"/><path d="M994.162,348.327a.492.492,0,0,1,.095-.342c.093.148.352.343-.1.342Z" transform="translate(-968.011 -337.909)" fill="#5a5a5a"/><path d="M959.461,348.727a.48.48,0,0,1-.414-.533c.015-1.8.006-3.6.01-5.4,0-.139-.071-.319.2-.319s.2.18.2.319C959.462,344.76,959.461,346.727,959.461,348.727Z" transform="translate(-951.533 -335.323)" fill="#cfcfcf"/><path d="M967.781,348.731v-1.643c0-1.411,0-2.822.005-4.234,0-.142-.124-.38.2-.376.31,0,.185.228.186.358.007,1.789,0,3.579.012,5.368A.478.478,0,0,1,967.781,348.731Z" transform="translate(-955.623 -335.325)" fill="#d3d3d3"/><path d="M961.636,349.558a.5.5,0,0,1-.41-.536c.014-2.077.006-4.154.01-6.23,0-.132-.085-.328.194-.318.159.006.219.049.208.209s0,.31,0,.466v6.409Z" transform="translate(-952.555 -335.322)" fill="#d9d9d9"/><path d="M990.925,359.364l0-.068c.075.231.148.059.218,0a1.423,1.423,0,0,1,1.041-.495.2.2,0,0,1,.057.025c-.034.116-.15.124-.23.162a1.41,1.41,0,0,0-.795.923,1.274,1.274,0,0,1-.368.612c-.313.228-.62.463-.938.683a1.859,1.859,0,0,1-2.261.013c-.293-.2-.575-.412-.861-.62a1.336,1.336,0,0,1-.476-.769,1.367,1.367,0,0,0-1.047-.971c.245-.089.245-.089.851.155l.392.327a2.514,2.514,0,0,0,.412.861l.2.2a2.9,2.9,0,0,0,.892.731,1.415,1.415,0,0,0,.981.175,3.1,3.1,0,0,0,1.671-1.154c.2-.2.224-.494.357-.732C991.064,359.356,990.981,359.347,990.925,359.364Z" transform="translate(-963.838 -342.982)" fill="#f0f0f0"/><path d="M988.081,362.122c.287.208.568.423.861.62a1.859,1.859,0,0,0,2.261-.013c.318-.22.626-.455.938-.683l.071.083a6.04,6.04,0,0,1-1.35.956,1.936,1.936,0,0,1-1.846-.127,6.525,6.525,0,0,1-1-.762Z" transform="translate(-965.126 -344.507)" fill="#1e1e1e"/><path d="M995.152,358.347l.13.072c.185.149.469.088.626.3a4.668,4.668,0,0,1-.864-.265C995.027,358.362,995.056,358.319,995.152,358.347Z" transform="translate(-968.423 -342.768)" fill="#e9e9e9"/><path d="M970.051,347.941A.286.286,0,0,1,970,347.7q0-2.464,0-4.928c0-.114-.072-.284.16-.289.154,0,.247.014.246.21q-.01,2.414,0,4.829C970.4,347.785,970.181,347.808,970.051,347.941Z" transform="translate(-956.666 -335.326)" fill="#cfcfcf"/><path d="M987.265,359.108l-.392-.327,0-.076.092-.016a1.077,1.077,0,0,0,.583-.186l-.006,0c.127-.019.284.009.3-.19l.1-.014.271.351c-.284.163-.643.181-.868.448Z" transform="translate(-964.591 -342.75)" fill="#111"/><path d="M957.212,347.932a.55.55,0,0,1-.377-.576c.019-1.53.007-3.06.012-4.59,0-.1-.081-.261.123-.284.174-.02.292-.006.283.232-.019.476-.005.953-.005,1.43q0,1.729,0,3.459A.592.592,0,0,1,957.212,347.932Z" transform="translate(-950.493 -335.323)" fill="#d8d8d8"/><path d="M987.633,358.678a1.077,1.077,0,0,1-.583.186A.79.79,0,0,1,987.633,358.678Z" transform="translate(-964.674 -342.926)" fill="#e9e9e9"/><path d="M988.432,358.326c-.012.2-.169.171-.3.19-.006-.149.177-.089.211-.194Z" transform="translate(-965.183 -342.76)" fill="#e9e9e9"/><path d="M962.648,382c.007.024.026.065.021.068-.036.022-.046-.007-.052-.036Z" transform="translate(-953.208 -353.871)" fill="#050505"/><path d="M960.647,371.937c.017.036.035.073-.008.1,0,0-.034-.033-.053-.052Z" transform="translate(-952.255 -349.149)" fill="#050505"/><path d="M982.334,367.568l1.493,1.777c.271.323.552.639.807.975.166.221.264.18.42-.011.677-.824,1.371-1.634,2.048-2.458.143-.174.214-.187.366,0,.674.826,1.371,1.634,2.046,2.459.159.194.246.223.418.012.73-.9,1.477-1.778,2.215-2.666a.92.92,0,0,0,.081-.142l.083.039v.58c0,1.111,0,2.223,0,3.335a.647.647,0,0,1-.148.458c-.748.88-1.494,1.763-2.23,2.653-.161.2-.246.213-.418,0-.671-.828-1.369-1.636-2.044-2.462-.149-.183-.226-.176-.369,0-.671.814-1.359,1.615-2.029,2.43-.173.211-.268.288-.483.019-.7-.876-1.433-1.726-2.151-2.589a.542.542,0,0,1-.186-.343q0-2.014,0-4.028Zm.188.62c0,1.169,0,2.234,0,3.3a.474.474,0,0,0,.143.323c.662.792,1.328,1.581,1.98,2.382.151.185.229.194.386,0,.678-.822,1.376-1.628,2.055-2.449.153-.185.222-.232.4-.011.677.837,1.383,1.652,2.073,2.478.1.124.163.215.315.032.678-.822,1.37-1.633,2.06-2.445a.427.427,0,0,0,.111-.3c0-1.055,0-2.11,0-3.166,0-.024-.027-.048-.046-.082l-2.258,2.7c-.093-.108-.173-.2-.25-.292-.678-.808-1.362-1.611-2.03-2.427-.137-.167-.2-.17-.336,0-.647.791-1.307,1.57-1.961,2.354-.317.379-.314.379-.637-.009C983.878,369.808,983.23,369.036,982.522,368.189Z" transform="translate(-962.425 -347.073)" fill="#131313"/><path d="M992.311,360.036a3.1,3.1,0,0,1-1.671,1.154,1.415,1.415,0,0,1-.981-.175,2.9,2.9,0,0,1-.892-.731h.135c.152.127.3.259.458.38a1.6,1.6,0,0,0,2.159-.033c.474-.358.441-.347.141-.851a1.039,1.039,0,0,0-1.261-.568c-.031.007-.074-.036-.111-.055.2-.193-.095-.219-.117-.336l0-.2a.439.439,0,0,1,.465-.018,1.464,1.464,0,0,0,.678.084.649.649,0,0,1-.5.107c-.073-.05-.082-.048-.091.019-.007.28.22.218.368.23.111.01.228-.057.348-.029h0a.17.17,0,0,0,.031.2q.326.344.644.7c.068.075.122.067.181,0Z" transform="translate(-965.479 -342.866)" fill="#252525"/><path d="M995.424,360.648l-.024-.124a2.03,2.03,0,0,1,.279-.664c.056-.016.139-.008.1.056C995.648,360.154,995.621,360.443,995.424,360.648Z" transform="translate(-968.592 -343.478)" fill="#3d3d3d"/><path d="M993.789,359.362c.006-.033-.013-.083.044-.083.012,0,.022.048.033.073l-.015.015c-.021,0-.042,0-.063-.007Z" transform="translate(-967.836 -343.209)" fill="#e9e9e9"/><path d="M993.666,358.671c.016.024.032.048.047.074l-.024.018-.03-.085Z" transform="translate(-967.776 -342.923)" fill="#e9e9e9"/><path d="M993.921,359.417l.021.036-.037-.021Z" transform="translate(-967.891 -343.274)" fill="#e9e9e9"/><path d="M992.441,359.007c.009-.067.019-.07.091-.019Z" transform="translate(-967.204 -343.056)" fill="#e9e9e9"/><path d="M993.637,358.666l-.026-.018.032.012Z" transform="translate(-967.753 -342.913)" fill="#e9e9e9"/><path d="M989.993,359.055c.022.118.312.143.117.336-.282.1-.652-.04-.851.281-.176.284-.464.5-.534.846h-.135l-.2-.2,0-.141c.217.046.254-.167.367-.265.151-.129.271-.294.419-.428s-.029-.158-.054-.234l.133-.014a3.408,3.408,0,0,0,.413.048c.147,0,.27-.058.279-.237A.06.06,0,0,0,989.993,359.055Z" transform="translate(-965.302 -343.101)" fill="#131313"/><path d="M988.026,360.535l0,.141a2.514,2.514,0,0,1-.412-.861l.073-.006C987.907,360,987.905,360.3,988.026,360.535Z" transform="translate(-964.938 -343.457)" fill="#3d3d3d"/><path d="M989.8,359.292l-.133.014c-.069-.009-.163-.051-.093-.11A.141.141,0,0,1,989.8,359.292Z" transform="translate(-965.847 -343.155)" fill="#f0f0f0"/><path d="M991.809,347.4c-.141-.008-.19-.09-.179-.221a.175.175,0,0,1,.193-.18.188.188,0,0,1,.2.21A.185.185,0,0,1,991.809,347.4Z" transform="translate(-966.822 -337.448)" fill="#252525"/><path d="M982.753,368.719c.708.848,1.356,1.62,2,2.394.324.388.321.388.637.009.654-.784,1.315-1.564,1.962-2.354.136-.167.2-.163.335,0,.668.816,1.352,1.619,2.03,2.427.078.093.158.184.25.292l2.258-2.7c.02.034.046.058.046.082,0,1.056,0,2.111,0,3.166a.426.426,0,0,1-.111.3c-.691.812-1.382,1.623-2.06,2.445-.151.183-.211.092-.315-.032-.69-.827-1.4-1.641-2.073-2.479-.179-.222-.248-.174-.4.011-.679.822-1.377,1.627-2.055,2.449-.157.191-.235.182-.386,0-.652-.8-1.318-1.59-1.98-2.382a.473.473,0,0,1-.143-.323C982.755,370.952,982.753,369.888,982.753,368.719Z" transform="translate(-962.656 -347.603)" fill="#fcfcfc"/><path d="M989.021,360.821c.071-.349.359-.562.534-.846.2-.322.569-.178.851-.281.037.019.08.062.111.055a1.039,1.039,0,0,1,1.261.568c.3.5.333.493-.141.851a1.6,1.6,0,0,1-2.159.033C989.322,361.08,989.173,360.948,989.021,360.821Z" transform="translate(-965.599 -343.404)" fill="#fafafa"/></svg>