<svg xmlns="http://www.w3.org/2000/svg" width="63.304" height="26.504" viewBox="0 0 63.304 26.504"><path d="M201.987,359.411a.828.828,0,0,1-.458.459c-.106,0-.157.047-.153.153-.43,0-.43,0-.458.306-.486-.066-.7.277-.917.611q-.159-.006-.153.153t-.153.153c-.143-.026-.3.061-.431-.051-.077-.067-.206-.148-.168.021.088.389-.3.314-.422.484-.026.036-.16.019-.186-.063a.24.24,0,0,1,.031-.2.423.423,0,0,1,.295-.2c.188-.016.1-.19.117-.3a3.916,3.916,0,0,1,.982-.859c.244-.2.491-.4.721-.621.389-.365.758-.75,1.135-1.129.351-.353.491-.851.83-1.212a.764.764,0,0,0,.467-.822c-.032-.652-.011-1.307-.008-1.961a1.191,1.191,0,0,0-.306-.885c0-.125,0-.25,0-.374,0-.022-.063-.04-.1-.06l-.052.128c-.259-.1-.228-.383-.34-.575a3.242,3.242,0,0,0-1.229-1.225c-.1-.056-.208-.06-.256.04a2.949,2.949,0,0,0-.474,1.25c0,.359-.2.7-.174,1.068,0,.014-.081.035-.124.053h-1.187c-.1,0-.2.011-.189.153-.127.022-.157-.155-.241-.146-.492.048-.63-.344-.774-.66-.115-.255-.187-.527-.327-.781-.19-.343-.161-.359-.387-.123a4.538,4.538,0,0,0-.723,1.379c-.071.2-.106.469-.306.548a2.312,2.312,0,0,1-.816.246.346.346,0,0,1-.383-.277c-.018-.183-.164-.325-.157-.469.037-.746-.549-1.08-.979-1.5-.149-.145-.441-.149-.671-.2-.1-.023-.208-.006-.2-.157-.018-.043-.034-.123-.053-.124-.526-.015-1.053-.045-1.577-.016a.527.527,0,0,0-.509.293c-.116.272-.422.236-.621.38-.371.268-.848.4-1.037.889a.152.152,0,0,1-.176.106c0-.074-.008-.145-.1-.12-.026.007-.041.079-.048.124a.92.92,0,0,0,0,.149.727.727,0,0,0-.305.745c0,.075-.009.154-.095.148-.056,0-.135-.108-.158-.094a.205.205,0,0,0-.045.271,1.033,1.033,0,0,1,.144.707c0,.28.01.561,0,.84a.388.388,0,0,0,.309.44c0,.43,0,.43.306.458,0,.125,0,.25,0,.375,0,.022.063.04.1.06l.052-.129c.268.043.251.332.4.467a21.9,21.9,0,0,0,1.84,1.737,3.106,3.106,0,0,1,.969.853c.056.167-.16.443.234.485.113.012.142.235-.082.28a7.457,7.457,0,0,1-1.536-1.04c-.466-.344-.969-.643-1.414-1.028-.234-.2-.477-.414-.726-.61-.154-.121-.23-.336-.45-.378a.129.129,0,0,0-.153-.153q.006-.159-.153-.153c-.334,0,.031-.445-.313-.466-.316-.019.006-.449-.287-.515.074-.239-.19-.4-.157-.613.029-.183-.169-.239-.161-.393s0-.288,0-.431c0-.1-.02-.189-.153-.18v-1.681q.159.006.153-.153v-.306a.129.129,0,0,0,.153-.153l.306-.764a.129.129,0,0,0,.153-.153v-.153q.158.006.153-.153.158.006.153-.153a2,2,0,0,1,.406-.518,13.694,13.694,0,0,1,2.039-1.163h.153c.093-.019.207.051.277-.051.087-.128.213-.1.334-.1-.011.145.087.153.191.153h2.254c.205.284.574.241.845.434a11.9,11.9,0,0,1,1.374,1.256c.149.145.269.224.425.024a.74.74,0,0,1,.161-.161c.449-.3.45-.3.1-.789a.375.375,0,0,0-.306-.306c.069-.286-.154-.445-.329-.536a4.139,4.139,0,0,1-.63-.494,2.94,2.94,0,0,0-1.792-.8c.009-.133-.075-.154-.179-.153h-1.5c-.15.058-.387-.142-.458.153h-.306c-.15.058-.387-.142-.459.153a3.3,3.3,0,0,0-1.666.7c-.2.133-.581.2-.484.607,0,.013-.073.061-.116.068a1.256,1.256,0,0,0-.97.883c-.119.285-.461.443-.432.8-.228.013-.13.19-.153.306a2.465,2.465,0,0,0-.306,1.223h-.153c.012-.149-.1-.174-.194-.148-.192.052-.035.117,0,.188a.511.511,0,0,1,.014.5.7.7,0,0,0-.115.636c.03.266-.189.438-.173.7.03.479.008.961.009,1.442a7.489,7.489,0,0,0,.305.967.747.747,0,0,0,.306.764c.235.153.174.446.3.65.04.064.062.131.155.114.023.116-.076.293.153.306q-.006.159.153.153a.377.377,0,0,0,.306.459,1.884,1.884,0,0,0,.539.77c.374.331.571.812.97,1.127,1,.789,1.917,1.674,2.974,2.4.5.342.968.741,1.458,1.1.666.493,1.322,1.005,1.951,1.535a7.484,7.484,0,0,1,2.188,2.671c.029.066.064.127.092.191.145.336.069.776-.14.879a.805.805,0,0,1-.853-.4,1.634,1.634,0,0,1-.139-.246,4.011,4.011,0,0,0-1.66-2.135,38.491,38.491,0,0,0-3.911-2.55c-.617-.376-1.164-.867-1.772-1.261-.5-.322-.862-.792-1.371-1.1a1.857,1.857,0,0,1-.645-.712,3.375,3.375,0,0,0-.552-.613,12.228,12.228,0,0,1-1.722-2.952,1.33,1.33,0,0,1-.005-.38,2.375,2.375,0,0,0-.217-1.2c-.023-.063-.093-.1-.091-.191.02-.669-.228-1.314-.159-1.993a11.332,11.332,0,0,1,.084-1.5h-.076a3.449,3.449,0,0,1,.384-1.673,7.478,7.478,0,0,1,2.487-3.382,5.765,5.765,0,0,1,2.616-1.235,6.407,6.407,0,0,1,.932-.129.117.117,0,0,0,.12.15q.874.008,1.747,0a.117.117,0,0,0,.12-.15,4.019,4.019,0,0,1,1.461.344,16.511,16.511,0,0,1,2.941,1.55c.161.1.313.219.477.322.47.294.475.32.846-.076a12.161,12.161,0,0,1,2.034-1.723,6.4,6.4,0,0,1,.92-.544,6.6,6.6,0,0,1,1.647-.6,8.187,8.187,0,0,1,2.373-.183,18.779,18.779,0,0,1,1.93.316,7.944,7.944,0,0,1,1.727.611,8.624,8.624,0,0,1,3.526,3.089,6.918,6.918,0,0,1,1.07,2.615c.018.118.165.235.137.4a.117.117,0,0,0-.15.12q-.008.873,0,1.747a.117.117,0,0,0,.15.12,8.627,8.627,0,0,1-.967,3.341,7.55,7.55,0,0,1-1.236,1.706,22.511,22.511,0,0,1-3.928,3.059c-1.024.686-2.049,1.37-3.012,2.15a7.291,7.291,0,0,1-1.555,1.206q-.158-.006-.153.153a.933.933,0,0,0-.36.008c-.2.093-.061.3-.1.45a.129.129,0,0,0-.153.153q-.159-.006-.153.153a.13.13,0,0,0-.153.153c-.5.631-1.026,1.25-1.507,1.9s-.943,1.337-1.392,2.02a.648.648,0,0,1-1,.2.3.3,0,0,1-.025-.408c.647-.945,1.065-2.027,1.777-2.937a4.57,4.57,0,0,1,.329-.392c.714-.726,1.442-1.439,2.156-2.166.332-.338.73-.6,1.089-.9s.714-.579,1.085-.85c.51-.374,1-.782,1.507-1.171a23.911,23.911,0,0,0,3.008-2.7,7.751,7.751,0,0,0,1.54-2.264,4.048,4.048,0,0,0,.461-1.874,7.427,7.427,0,0,1,0-1.145,4.241,4.241,0,0,0-.8-2.642,4.943,4.943,0,0,0-2.61-1.931,8.077,8.077,0,0,0-1.72-.446,13.944,13.944,0,0,0-2.289,0,2.559,2.559,0,0,0-1.077.331c-.227.13-.648.131-.651.443,0,.254.371.342.566.512a4.491,4.491,0,0,1,1.238,2,4.774,4.774,0,0,1,.3,2.163,6.286,6.286,0,0,1-1.21,3.315c-.2.239-.259.6-.615.694A.13.13,0,0,0,201.987,359.411Z" transform="translate(-184.082 -345.929)" fill="#4c4c4c"/><path d="M304.212,351.252c0-.185-.009-.3.14-.291.112.007.267-.071.318.106q.235.82.459,1.644c.032.117-.053.253.051.361.085-.125.238-.248.244-.377a6.207,6.207,0,0,1,.463-1.569c.037-.117.069-.178.188-.166.145.014.1.131.129.223a9.912,9.912,0,0,1,.485,1.71c0,.02.082.049.126.048s.126-.04.124-.052c-.043-.3.155-.557.18-.846.008-.1-.053-.219.045-.284.214-.143-.007-.47.26-.582-.032-.326.232-.242.358-.2.182.054.121.258.078.384-.166.491-.378.966-.527,1.462a4.844,4.844,0,0,1-.361,1.151c-.045.076,0,.2-.154.2s-.142-.088-.161-.193c-.1-.537-.413-1.011-.466-1.567a.3.3,0,0,0-.207-.2c-.123,0-.066.147-.091.232a11.922,11.922,0,0,0-.464,1.49c-.012.082-.132.147-.2.22-.083-.08-.23-.153-.239-.241a12.447,12.447,0,0,0-.731-2.374A1.4,1.4,0,0,1,304.212,351.252Z" transform="translate(-270.872 -349.549)" fill="#3d3d3d"/><path d="M212.619,398.752c.224-.045.194-.268.082-.28-.394-.041-.178-.318-.234-.485a5.237,5.237,0,0,1,1.36,1.133c.207.212.5.345.672.555s.357.463.561.674a4.413,4.413,0,0,1,.9,1.456.943.943,0,0,0,.226.441c.159.132.108.242-.019.371s-.248.16-.371,0a6.366,6.366,0,0,1-.577-.753,9.115,9.115,0,0,0-1.468-1.91A8.053,8.053,0,0,1,212.619,398.752Z" transform="translate(-204.495 -383.589)" fill="#4e4e4e"/><path d="M354.086,375a.117.117,0,0,1-.15-.121c0-.66,0-1.321-.005-1.981,0-.261.182-.2.313-.184.083.008.209.143.23.125a.774.774,0,0,1,1.21.014c.119-.164.391-.084.449-.16.23-.3.405-.048.573.023.2.085.416.236.428.468.028.557.01,1.117.009,1.676,0,.148-.109.137-.21.14-.129,0-.252.015-.25-.178.006-.457.009-.914,0-1.371-.007-.324-.137-.438-.456-.438s-.449.114-.456.438c-.01.457,0,.914,0,1.371,0,.084-.022.153-.1.173a.213.213,0,0,1-.2-.06.446.446,0,0,1-.164-.394c.018-.355-.013-.712.012-1.066a.412.412,0,0,0-.223-.436.359.359,0,0,0-.467.115c-.055.072-.105.183-.234.165s-.153.084-.153.188a9.377,9.377,0,0,0,.009.962A.943.943,0,0,1,354.086,375Z" transform="translate(-306.839 -365.187)" fill="#454545"/><path d="M304.758,409.077c0-.457,0-.914,0-1.371,0-.145.015-.237.195-.237s.282.015.271.24c-.019.38-.007.761,0,1.142a.391.391,0,0,0,.053.129.583.583,0,0,0,.107-.067,7.157,7.157,0,0,0,.9-1.305.724.724,0,0,1,.238-.27.3.3,0,0,1,.349.033c.073.085-.01.169-.036.26a1,1,0,0,1-.392.52c-.171.13-.127.376-.317.485-.129.074-.08.14-.023.273a16.108,16.108,0,0,0,.825,1.409c.058.1.19.178.1.315-.069.1-.362.069-.461-.066a4.506,4.506,0,0,1-.418-.664c-.061-.125-.186-.212-.194-.382a.3.3,0,0,0-.277-.215c-.207,0-.1.208-.185.261-.36.216-.277.565-.264.881.009.226-.1.239-.273.239s-.2-.094-.194-.238C304.762,409.991,304.758,409.534,304.758,409.077Z" transform="translate(-271.265 -390.323)" fill="#3d3d3d"/><path d="M343.83,354.211a6.937,6.937,0,0,0-.269.782,7.788,7.788,0,0,0-.371.994.161.161,0,0,1-.309.038,2.818,2.818,0,0,1-.294-.721.556.556,0,0,0-.194-.372c-.073-.045-.107-.238-.228.009-.177.363-.276.75-.443,1.113-.034.073-.067.12-.16.117s-.123-.05-.148-.129c-.2-.6-.408-1.2-.607-1.806-.022-.067,0-.144-.071-.2-.116-.1-.139-.258,0-.3.114-.031.31-.128.4.174a4.015,4.015,0,0,0,.279.8c.033.06.013.176.055.2.134.077.057.308.157.307.177,0,.04-.207.1-.283.229-.286.231-.67.435-.966.048-.069-.014-.229.108-.219.077.007.207.133.206.2-.008.465.362.77.471,1.182a.412.412,0,0,0,.077.113c.024-.041.07-.082.07-.122a3.1,3.1,0,0,1,.3-.943c.043-.139.149-.194.225-.287.022-.027.1-.029.141-.016C343.836,353.9,343.874,353.965,343.83,354.211Z" transform="translate(-297.224 -351.551)" fill="#3d3d3d"/><path d="M387.076,427.912c0-.431.011-.863-.005-1.294a.451.451,0,0,1,.164-.393.214.214,0,0,1,.2-.061c.077.02.1.089.1.173,0,.533,0,1.066,0,1.6,0,.074-.014.176.068.191.043.008.116-.077.158-.133.128-.175.335-.269.405-.519a.619.619,0,0,1,.423-.392.373.373,0,0,1,.28.043c.086.066.053.173-.03.253q-.219.212-.431.43a.329.329,0,0,0,0,.517c.286.272.292.728.64.958.025.017.027.1.012.142-.026.076-.092.095-.174.1a.4.4,0,0,1-.438-.312,1.628,1.628,0,0,0-.425-.664c-.1-.1-.133-.043-.224.012-.294.179-.279.454-.262.732.009.15-.022.232-.2.234s-.275-.026-.267-.244C387.088,428.827,387.076,428.369,387.076,427.912Z" transform="translate(-330.812 -403.967)" fill="#383838"/><path d="M305.925,369.811a1.539,1.539,0,0,1,.359.038c.075.019.185.147.173.2a.325.325,0,0,1-.2.208.957.957,0,0,1-.452,0c-.433-.116-.642.188-.889.433-.036.036-.1.073-.1.107a3.163,3.163,0,0,0,.156,1.528.9.9,0,0,0,.6.373.493.493,0,0,0,.6-.2.187.187,0,0,1,.185-.1c.119.01.156.116.233.174.115.087-.011.122-.046.159a1.13,1.13,0,0,1-1.725.074,1.924,1.924,0,0,1-.268-2.494C304.732,369.951,305.163,369.808,305.925,369.811Z" transform="translate(-270.853 -363.205)" fill="#3b3b3b"/><path d="M229.838,400.195c-.022.108.071.283-.117.3a.423.423,0,0,0-.295.2.241.241,0,0,0-.031.2c.026.082.16.1.186.063.126-.17.511-.1.422-.484-.038-.169.091-.088.168-.021.129.112.288.025.431.051-.362.255-.73.5-1.084.767a5.354,5.354,0,0,0-.929.706,3.723,3.723,0,0,1-.595.588c-.234.171-.058.488-.287.657-.041.03-.068.167-.137.24a.317.317,0,0,1-.465.036c-.137-.106-.192-.193-.09-.426a5.411,5.411,0,0,1,2-2.285,2.606,2.606,0,0,0,.484-.483A.368.368,0,0,1,229.838,400.195Z" transform="translate(-214.99 -385.185)" fill="#545454"/><path d="M320.383,395.081a.117.117,0,0,1-.15-.121c0-.967,0-1.935,0-2.9,0-.187.124-.235.239-.179.3.147.579-.028.87-.016.6.024.724.082.956.619a1.338,1.338,0,0,1-.643,1.725.943.943,0,0,1-.961-.043c-.194,0-.159.146-.15.254A.927.927,0,0,1,320.383,395.081Zm.306-1.375c.506.367.54.37.929.064a1.065,1.065,0,0,0,.069-1.437c-.336-.324-.665-.148-1,0-.043.018-.124.035-.124.053q-.01.634,0,1.269C320.565,393.671,320.645,393.688,320.688,393.706Z" transform="translate(-282.458 -379.154)" fill="#3d3d3d"/><path d="M305.124,388.592a1.687,1.687,0,0,1,.516.013.326.326,0,0,1,.225.276c0,.2-.149.156-.264.159a1.505,1.505,0,0,1-.454-.006c-.327-.1-.33.2-.458.343.137.121,0,.388.321.451.23.046.44.3.663.413a.512.512,0,0,1,.348.56c-.018.317.064.635-.264.886a1.5,1.5,0,0,1-1.113.251.341.341,0,0,1-.31-.354c-.016-.2.11-.342.238-.223a.669.669,0,0,0,.563.121.455.455,0,0,0,.36-.738.789.789,0,0,0-.391-.332,1.583,1.583,0,0,1-.443-.213c-.3-.209-.583-.745-.454-.929a2.861,2.861,0,0,1,.411-.6C304.809,388.5,305.009,388.656,305.124,388.592Z" transform="translate(-270.844 -376.782)" fill="#424242"/><path d="M367.09,430.825c-.033.245.1.546-.178.747-.158.113-.234.361-.459.352a2.487,2.487,0,0,1-.887-.054c-.329-.131-.394-.428-.522-.689a1.2,1.2,0,0,1,1.082-1.695.919.919,0,0,1,.963.944C367.095,430.556,367.09,430.683,367.09,430.825Zm-.459-.06c0-.165-.008-.317,0-.467a.314.314,0,0,0-.127-.252c-.189-.2-.435-.113-.638-.088a.57.57,0,0,0-.448.436.991.991,0,0,0,.009.667c.122.2.11.546.485.572a.718.718,0,0,0,.636-.306C366.7,431.147,366.591,430.941,366.631,430.765Z" transform="translate(-314.799 -406.375)" fill="#414141"/><path d="M362.392,353.828a1.125,1.125,0,0,1-.663-.892c-.317-.222.1-.364.062-.579-.09-.462.355-.623.6-.875a.627.627,0,0,1,.753-.023c.13.069.163.065.164-.075,0-.227,0-.454,0-.682.009-.293.1-.309.457-.083-.205,0-.15.158-.151.267,0,.8-.015,1.6.007,2.4a1.123,1.123,0,0,1-.162.538H363c-.011-.143.087-.144.19-.156a.119.119,0,0,0,.116-.15v-1.43c0-.1.024-.206-.1-.25a.731.731,0,0,0-.981.677,1.186,1.186,0,0,0,.312,1Z" transform="translate(-312.394 -349.21)" fill="#515151"/><path d="M348.7,410.891c-.1.3-.2.614-.318.922-.188.506-.321,1.027-.561,1.52a1.75,1.75,0,0,1-.711.678c-.092.062-.233.045-.242-.055-.011-.121-.117-.35.114-.364s.425-.066.472-.271a.727.727,0,0,0-.1-.563c-.291-.479-.309-1.084-.644-1.56-.06-.085,0-.248-.01-.374a.123.123,0,0,1,.128-.144.2.2,0,0,1,.135.035c.072.066.186.146.187.221,0,.286.193.487.275.726a2.553,2.553,0,0,0,.291.673c.068-.225.176-.434.24-.665a4.97,4.97,0,0,0,.277-.873c.018-.195.191-.1.3-.119C348.693,410.659,348.682,410.777,348.7,410.891Z" transform="translate(-301.598 -392.764)" fill="#414141"/><path d="M315.159,411.743a1.855,1.855,0,0,1-.15.887,1.044,1.044,0,0,1-1.54.272,1.326,1.326,0,0,1,.145-2.139,1.519,1.519,0,0,1,1.128.041A.908.908,0,0,1,315.159,411.743Zm-.469.217c0-.139.006-.266,0-.391a.737.737,0,0,0-.471-.584c-.178-.031-.466.174-.6.365a.911.911,0,0,0-.039,1.028c.283.5.663.629,1.035.142C314.754,412.334,314.65,412.135,314.69,411.959Z" transform="translate(-277.224 -392.765)" fill="#424242"/><path d="M312.985,391.9c.254,0,.508,0,.762,0,.085,0,.151.024.171.1a.185.185,0,0,1-.065.2c-.483.394-.641,1.045-1.128,1.44-.1.078,0,.243.139.246.279.006.559.009.838,0,.158-.006.233.041.222.209-.009.124.021.255-.175.254-.559,0-1.117,0-1.676,0-.137,0-.187-.144-.093-.268.359-.482.717-.964,1.028-1.479.062-.1.3-.231-.051-.236-.28,0-.559-.006-.838,0-.189.005-.178-.114-.184-.246-.008-.162.051-.223.214-.217C312.426,391.91,312.706,391.9,312.985,391.9Z" transform="translate(-276.456 -379.185)" fill="#383838"/><path d="M318.532,356.19c-.229-.036-.488.1-.7-.143a1.3,1.3,0,0,1-.379-.909,1.322,1.322,0,0,1,.161-.843c.568-.7,1.24-.782,1.808,0a1.421,1.421,0,0,1,.007,1.521A.754.754,0,0,1,318.532,356.19Zm.61-1.135a3.255,3.255,0,0,0,0-.378.963.963,0,0,0-.584-.62.921.921,0,0,0-.6.508,3.048,3.048,0,0,0-.023.893.609.609,0,0,0,1,.271C319.175,355.535,319.136,355.3,319.142,355.056Z" transform="translate(-280.453 -351.579)" fill="#3d3d3d"/><path d="M313.074,431.913c-.467.173-.755-.206-1-.539a1.131,1.131,0,0,1-.011-1.227,1.035,1.035,0,0,1,1.074-.679,1.219,1.219,0,0,1,1.019.8.376.376,0,0,1-.343.567c-.43.014-.861,0-1.292,0-.119,0-.158.013-.085.159.294.6.423.664,1.054.472a1.266,1.266,0,0,1,.22-.021.147.147,0,0,1,.176.093.169.169,0,0,1-.06.2c-.08.052-.11.171-.236.166C313.441,431.909,313.289,431.913,313.074,431.913Zm-.556-1.376a.117.117,0,0,0,.119.15q.492.01.984,0a.117.117,0,0,0,.119-.15v-.153a.378.378,0,0,0-.206-.428c-.134-.082-.337-.213-.43-.165-.212.108-.519.13-.586.44a.119.119,0,0,0-.15.116C312.356,430.45,312.374,430.549,312.518,430.537Z" transform="translate(-276.427 -406.358)" fill="#3d3d3d"/><path d="M392.082,354.988c-.092.186-.269.335.007.561.32.262.578.577,1.011.207.029-.025.1,0,.149,0,.074,0,.168-.013.194.069a.244.244,0,0,1-.034.2c-.076.089-.143.2-.3.193a4.546,4.546,0,0,1-.832-.015,1.124,1.124,0,0,1-.731-.756,1.213,1.213,0,0,1,1.2-1.68,1.291,1.291,0,0,1,.692.354c.239.188.132.5.318.711.071.079-.07.178-.144.23a1.583,1.583,0,0,1-1.223-.07h.581c.1,0,.193-.017.183-.153a.114.114,0,0,0,.149-.119c-.033-.308-.266-.466-.5-.612a.321.321,0,0,0-.351,0,3.3,3.3,0,0,0-.511.546c-.049.066,0,.2.145.19Z" transform="translate(-333.985 -351.593)" fill="#3b3b3b"/><path d="M362.619,393.109c-.073.217.136.347.177.537a.347.347,0,0,0,.422.228c.212-.045.439.071.647-.092.152-.12.188.092.257.156s.038.177-.066.24a1.322,1.322,0,0,1-1.594-.24,1.217,1.217,0,0,1-.058-1.592c.137-.188.283-.443.562-.455a1.729,1.729,0,0,1,1.138.178,1.168,1.168,0,0,1,.27.885c0,.007-.048,0-.073,0h-1.491C362.7,392.956,362.608,392.965,362.619,393.109Zm.649-.306c.178,0,.357,0,.534,0,.079,0,.163-.008.186-.085a.222.222,0,0,0-.049-.207.848.848,0,0,0-.787-.329c-.3.016-.3.259-.432.423-.141.182-.073.192.088.2S363.115,392.8,363.268,392.8Z" transform="translate(-312.774 -379.168)" fill="#3d3d3d"/><path d="M379.356,350.617c.359-.227.452-.211.457.087.007.483,0,.965,0,1.448,0,.043.036.085.056.128a.43.43,0,0,0,.106-.074c.195-.251.524-.388.6-.741.027-.116.164-.079.26-.086.178-.013.26.124.179.225-.138.172-.145.427-.366.539-.344.173-.109.413-.022.577.136.254.364.457.52.7.074.116.1.33-.055.388-.105.039-.321.134-.392-.181a1.559,1.559,0,0,0-.422-.667c-.069-.071-.064-.252-.217-.2a.422.422,0,0,0-.244.256,3.238,3.238,0,0,0-.012.607c0,.1,0,.209-.153.2a1.124,1.124,0,0,1-.162-.538c.023-.8.011-1.6.007-2.4C379.506,350.775,379.561,350.618,379.356,350.617Z" transform="translate(-325.232 -349.208)" fill="#515151"/><path d="M353.351,355.093a2.58,2.58,0,0,1,.133-.776.9.9,0,0,1,.938-.508.975.975,0,0,1,.915.6,1.5,1.5,0,0,1-.134,1.562c-.087.15-.2.112-.294.16a1.163,1.163,0,0,1-1.5-.371C353.282,355.557,353.388,355.322,353.351,355.093Zm1.689-.1c-.033-.144.064-.3-.078-.43a6.586,6.586,0,0,0-.5-.45.337.337,0,0,0-.286.023,1.281,1.281,0,0,0-.262,1.666.421.421,0,0,0,.173.133c.4.115.663-.052.88-.439C355.064,355.319,355,355.158,355.04,355Z" transform="translate(-306.415 -351.629)" fill="#383838"/><path d="M349.466,431.918c-.723,0-1.066-.341-1.068-.949a4,4,0,0,1,.026-.825.95.95,0,0,1,.837-.672c.415-.038,1.026.221,1.1.561.067.3.272.586.171.919a1.949,1.949,0,0,1-.44.732A.624.624,0,0,1,349.466,431.918Zm.611-1.254a.8.8,0,0,0-.153-.54c-.112-.21-.548-.439-.689-.336a1.3,1.3,0,0,0-.523.759,1.6,1.6,0,0,0,.254.945c.018.043.067.1.1.1a1.92,1.92,0,0,0,.595.006c.156-.04.2-.248.3-.374C350.1,431.032,350.055,430.852,350.077,430.664Z" transform="translate(-302.831 -406.363)" fill="#383838"/><path d="M341.845,394.186c-.229-.131-.229-.131-.458,0q.006-.158-.153-.153c-.006-.256.275-.113.374-.279.16-.269.075-.732-.2-.791a1.082,1.082,0,0,0-.748.355.894.894,0,0,0-.028.434.351.351,0,0,0,.3.281q-.006.158.153.153a.5.5,0,0,1-.764-.171.743.743,0,0,1,.492-1.179c.177-.044.4-.4.642-.051.019.029.126-.36.082-.353-.233.038-.336-.417-.635-.141a.493.493,0,0,1-.553,0c-.025-.013-.038-.1-.024-.136.1-.261.31-.285.549-.269.176.012.354,0,.531,0,.327.014.473.167.6.61-.043.018-.124.035-.124.053q-.01.634,0,1.269c0,.018.081.035.124.053C341.975,394,342.074,394.173,341.845,394.186Z" transform="translate(-296.891 -379.176)" fill="#3d3d3d"/><path d="M332.8,354.972a1.022,1.022,0,0,0,.306.917v.306a.893.893,0,0,1-.764-.839,3.014,3.014,0,0,0,0-.454c-.093-.519.262-.747.606-1,.433-.321.853-.1,1.206.085s.352.608.334.985c0,.093-.044.157-.12.151a2.968,2.968,0,0,1-1.1-.075c-.01,0,0-.048,0-.073h.582c.1,0,.193-.017.183-.153-.025-.161.076-.355-.1-.477-.151-.106-.312-.258-.476-.268a1.082,1.082,0,0,0-.5.215c-.217.122-.142.341-.151.53Z" transform="translate(-291.208 -351.576)" fill="#424242"/><path d="M409.3,430.927c0,.33-.02.662.006.99a.649.649,0,0,1-.273.652,1.174,1.174,0,0,1-.8.274c-.147-.016-.152-.1-.152-.2s-.028-.214.089-.258c.067-.025.152,0,.227-.006.35-.044.442-.128.446-.446.008-.584-.007-1.168.007-1.752,0-.208-.072-.27-.261-.246-.171.022-.209-.069-.206-.223s.013-.246.2-.237a5.262,5.262,0,0,0,.533,0c.18-.009.2.09.195.235C409.3,430.115,409.3,430.521,409.3,430.927Z" transform="translate(-346.01 -406.366)" fill="#4f4f4f"/><path d="M400.484,431.9a.934.934,0,0,1-.762-.838,2.834,2.834,0,0,0-.008-.453c-.112-.428.177-.647.429-.887a1.09,1.09,0,0,1,.95-.262,1.057,1.057,0,0,1,.75,1.279.238.238,0,0,1-.442-.061v-.153c-.025-.161.076-.355-.1-.477-.151-.106-.312-.259-.476-.268a1.078,1.078,0,0,0-.5.215c-.217.122-.143.341-.152.53a.13.13,0,0,0,.153.153c-.2.368-.135.552.253.793.031.019.036.082.053.124Z" transform="translate(-339.941 -406.343)" fill="#424242"/><path d="M357.535,431.155a1.014,1.014,0,0,1-.306-.937.93.93,0,0,1,.785-.742c.253-.007.506,0,.76,0,.295.005.306.012.186.32a.4.4,0,0,0-.048.207c.178.994-.072,1.3-1.073,1.306h-.152A.13.13,0,0,0,357.535,431.155Zm1.07-.748c0-.272-.3-.649-.5-.628-.175.019-.584.472-.57.633.023.265.322.594.537.59A.656.656,0,0,0,358.6,430.407Z" transform="translate(-309.218 -406.364)" fill="#414141"/><path d="M371.062,356.19a17.53,17.53,0,0,1,1.128-1.658c.065-.1.131-.167-.04-.173-.3-.012-.607-.005-.911,0-.121,0-.208-.05-.171-.17s.1-.3.272-.232a1.679,1.679,0,0,0,1.221.019c.193-.071.2.044.274.1.1.069.087.164.014.257a6.508,6.508,0,0,1-.543.682c-.182.175-.186.463-.422.589-.085.046-.071.139-.052.2s.107.085.186.085c.253,0,.506-.006.759,0a.117.117,0,0,1,.12.15c-.164.027-.268.177-.469.163C371.974,356.169,371.517,356.19,371.062,356.19Z" transform="translate(-319.23 -351.725)" fill="#383838"/><path d="M381.467,429.873c-.126,0-.253,0-.38,0-.1,0-.227-.021-.225.117s-.094.285.149.351a1.646,1.646,0,0,1,.819.585c.2.244-.05.9-.369.928-.3.029-.607.007-.91.006-.208,0-.141-.16-.153-.27-.019-.183.1-.17.234-.2.181-.035.236.153.393.168a.433.433,0,0,0,.431-.238c.08-.129-.064-.217-.144-.31a1.892,1.892,0,0,0-.6-.378c-.307-.165-.381-.348-.311-.733a.644.644,0,0,1,.57-.478c.167.011.409-.153.5.143Z" transform="translate(-325.968 -406.305)" fill="#3d3d3d"/><path d="M357.523,435.559a.13.13,0,0,1,.153.153c.026.254.224.122.348.151.257.06.521-.079.789.123a.609.609,0,0,1,.258.762.621.621,0,0,1-.525.434,1.26,1.26,0,0,1-1.07-.06c-.109-.072-.353-.042-.244-.256.06-.119.2-.366.4-.193.256.214.534.047.793.108.024.006.059.011.074,0,.076-.064.2-.126.21-.2.019-.123-.118-.226-.213-.243a3.6,3.6,0,0,0-.605-.01,1.5,1.5,0,0,1-.378-.006.377.377,0,0,1-.3-.366c-.02-.224.113-.231.259-.268C357.5,435.677,357.505,435.6,357.523,435.559Z" transform="translate(-309.206 -410.768)" fill="#484848"/><path d="M334.257,390.605c0,.382,0,.763,0,1.145.006.432.047.472.513.535a.838.838,0,0,1,.152,0c.123.043.1.153.1.25s0,.19-.144.209a.844.844,0,0,1-1.078-.9c0-.305-.006-.611,0-.916,0-.186.01-.344-.25-.35-.084,0-.051-.126-.058-.2.359-.033.25-.406.419-.577.036-.036.066-.091.109-.1.1-.029.2-.032.235.1a1.153,1.153,0,0,1,0,.152c.036.333.036.333.457.35.011.145-.088.147-.192.154S334.258,390.4,334.257,390.605Z" transform="translate(-292.053 -377.582)" fill="#484848"/><path d="M333.031,371.819c-.451.018-.454.018-.458.349,0,.254,0,.508,0,.762.008.49.017.5.554.569.1.013.2-.006.212.141a.214.214,0,0,1-.1.187.53.53,0,0,1-.669.044c-.253-.233-.544-.439-.465-.878a6.825,6.825,0,0,0,.014-.912c.008-.184-.038-.264-.24-.282-.093-.008-.111-.218-.028-.236.259-.054.3-.2.264-.422s.084-.245.263-.243.208.086.2.235c-.009.126,0,.254,0,.381,0,.2.157.144.267.152S333.042,371.674,333.031,371.819Z" transform="translate(-290.827 -363.992)" fill="#484848"/><path d="M326.825,354.011c0-.074,0-.151.106-.116.027.009.045.084.045.128,0,.812.009,1.625,0,2.437a1.009,1.009,0,0,1-1.146.754c-.078-.035-.075-.12-.074-.2,0-.1-.026-.212.1-.252a1.4,1.4,0,0,1,.227-.006c.348-.046.436-.128.44-.452.007-.558-.021-1.118.011-1.675.017-.3-.1-.347-.348-.321a.113.113,0,0,1-.12-.148h.581C326.747,354.165,326.835,354.147,326.825,354.011Z" transform="translate(-286.455 -351.686)" fill="#4d4d4d"/><path d="M325.841,431.5a1.393,1.393,0,0,1-.088-1.2,1.064,1.064,0,0,1,.671-.7,1.136,1.136,0,0,1,1.35.389c.071.114.09.826,0,.855-.138.045-.342.163-.406-.115v-.153c.145.011.19-.111.144-.187a2,2,0,0,0-.338-.386.543.543,0,0,0-.856.047c-.077.141-.245.311-.174.525-.01.136.079.153.183.153h.581c-.117.327-.385.118-.573.14-.252.03-.179.183-.191.318Q326.216,431.574,325.841,431.5Z" transform="translate(-286.388 -406.408)" fill="#414141"/><path d="M323.564,409.417c-.017.043-.022.106-.053.124-.17.1-.442-.094-.539.108a1.481,1.481,0,0,0-.019.587c0,.249-.006.5,0,.745a.116.116,0,0,0,.15.116v.459c-.475-.135-.6-.269-.61-.667-.006-.3.006-.6,0-.9a.786.786,0,0,0-.067-.425c-.153-.263-.15-.412-.058-.442.281-.093-.024-.468.277-.539.067-.016.129-.073.193-.074a.117.117,0,0,1,.119.148,5.188,5.188,0,0,0,.455.538c.012.009,0,.048,0,.073-.143.026-.421-.04-.408.047.031.218.267.065.411.1A.6.6,0,0,0,323.564,409.417Z" transform="translate(-283.958 -391.198)" fill="#4f4f4f"/><path d="M329.528,408.8q0,.458,0,.917c0,.274-.051.565.255.736a.149.149,0,0,1,.042.2c-.053.111-.179.091-.269.071a.652.652,0,0,1-.483-.575c-.007-.866,0-1.731,0-2.6,0-.187.108-.183.243-.189.161-.007.223.047.22.213C329.523,407.988,329.528,408.4,329.528,408.8Z" transform="translate(-288.853 -390.374)" fill="#4d4d4d"/><path d="M339.014,373.788c0-.33,0-.66,0-.989,0-.078.082-.166.148-.113.328.262.561.036.818-.127a.354.354,0,0,1,.354,0c.109.06.048.185.05.279,0,.208-.163.134-.273.149a.63.63,0,0,0-.64.725c0,.355-.007.71,0,1.065,0,.176-.081.2-.231.2s-.237-.022-.232-.2C339.02,374.448,339.014,374.117,339.014,373.788Z" transform="translate(-296.046 -365.158)" fill="#434343"/><path d="M315.587,375.945c-.28,0-.559,0-.838,0a.263.263,0,0,0-.2.41c.22.355.531.451,1.038.266.133-.048.21-.085.32.018s.187.2.014.265c-.386.14-.736.424-1.209.124a1.077,1.077,0,0,1-.64-1.04c.019-.217-.191-.5.143-.655l.306.153v.153c-.01.14.082.153.186.153h.883Z" transform="translate(-277.968 -367.201)" fill="#484848"/><path d="M339.677,410.955c-.2-.08-.308.117-.47.159a.389.389,0,0,0-.3.447c.017.432,0,.866.007,1.3,0,.143-.011.24-.193.24s-.278-.014-.273-.24c.016-.662.009-1.324,0-1.986,0-.156.1-.307.194-.212.32.34.59-.048.879-.012Z" transform="translate(-295.639 -392.735)" fill="#3b3b3b"/><path d="M305.9,429.165c-.04.577-.22.744-.757.769a.883.883,0,0,1-.866-.319.439.439,0,0,1-.056-.282c0-.044.016-.119.043-.129a.268.268,0,0,1,.2-.012c.158.108.241.305.5.287.323-.022.471-.11.476-.425.011-.686,0-1.373.006-2.06,0-.11-.06-.271.15-.273-.025.123.165.174.136.234-.291.6-.065,1.235-.133,1.849C305.575,429.01,305.72,429.11,305.9,429.165Z" transform="translate(-270.879 -404.374)" fill="#5c5c5c"/><path d="M334.244,411.9c0,.329-.013.659,0,.987.011.211-.076.252-.262.248-.17,0-.206-.074-.2-.228.008-.456.006-.911,0-1.367,0-.18.085-.407-.246-.426-.107-.006-.046-.175-.057-.269-.016-.14.077-.161.187-.16.127,0,.254.007.38,0,.176-.012.2.08.2.23C334.238,411.246,334.244,411.575,334.244,411.9Z" transform="translate(-292.04 -392.775)" fill="#3b3b3b"/><path d="M326.313,372.695c.16.03.213-.3.453-.1.219.181.577.262.6.577.047.555.014,1.117.013,1.676,0,.149-.108.139-.209.141-.128,0-.253.016-.251-.178q.008-.61,0-1.22c-.006-.518-.043-.551-.61-.59Z" transform="translate(-286.86 -365.173)" fill="#323232"/><path d="M329.812,393.107c0,.354,0,.709,0,1.063,0,.145-.087.161-.194.155s-.267.048-.267-.157c0-.557,0-1.114,0-1.67,0-.094.058-.223-.049-.278s-.328-.036-.246-.262a1.007,1.007,0,0,1,.705-.043.359.359,0,0,1,.049.2C329.815,392.449,329.812,392.778,329.812,393.107Z" transform="translate(-288.831 -379.163)" fill="#484848"/><path d="M321.838,427.784c0-.484,0-.968,0-1.452,0-.136.071-.177.186-.163a.129.129,0,0,1,.123.151c0,.662.014,1.325-.009,1.986a.875.875,0,0,0,.328.862c.1.071.205.178.105.309a.273.273,0,0,1-.345.037c-.157-.139-.457-.146-.4-.509A8.045,8.045,0,0,0,321.838,427.784Z" transform="translate(-283.608 -403.974)" fill="#2e2e2e"/><path d="M354.693,392.225c-.3.267-.3.267-.305.623,0,.432-.006.865,0,1.3,0,.158-.044.218-.21.224-.2.008-.259-.058-.255-.257.011-.661,0-1.323.006-1.984,0-.244.029-.262.322-.1.1.056.193.025.287.046A.129.129,0,0,0,354.693,392.225Z" transform="translate(-306.834 -379.202)" fill="#515151"/><path d="M349.514,390.039c0-.433,0-.866,0-1.3a.127.127,0,0,1,.129-.145c.122-.012.18.043.179.171,0,.738,0,1.477,0,2.215,0,.244.036.459.309.512.252.048.12.231.147.356.006.028-.048.094-.085.1-.212.055-.666-.3-.671-.538C349.507,390.956,349.514,390.5,349.514,390.039Z" transform="translate(-303.642 -376.793)" fill="#323232"/><path d="M316.058,373.914v-.153q.159.006.153-.153c-.04-.578-.079-.6-.564-.616a.679.679,0,0,0-.658.464l-.306-.153c0-.075-.026-.164,0-.224.186-.364.579-.412.9-.528s.6.176.83.321c.275.17.294.583.245.93a.132.132,0,0,1-.157.114C316.36,373.908,316.209,373.914,316.058,373.914Z" transform="translate(-278.439 -365.169)" fill="#434343"/><path d="M387.847,355.477c0,.3-.014.608,0,.911.014.222-.093.241-.268.241s-.2-.086-.2-.234c.007-.481,0-.961.006-1.442,0-.2-.014-.34-.255-.343-.019,0-.042-.079-.053-.124a.116.116,0,0,1,.118-.15c.151-.01.3,0,.455,0,.181-.01.2.094.192.236C387.843,354.87,387.847,355.174,387.847,355.477Z" transform="translate(-330.82 -352.006)" fill="#484848"/><path d="M324.308,373.071v.306a.388.388,0,0,0-.309.433c.011.453,0,.906.006,1.359,0,.176-.084.2-.231.2s-.234-.019-.232-.2c.006-.63,0-1.259,0-1.889,0-.211.132-.308.26-.162C324.031,373.379,324.142,373.071,324.308,373.071Z" transform="translate(-284.855 -365.55)" fill="#434343"/><path d="M337.364,429.741c.125-.4.437-.348.722-.263.383.113.495.267.5.608.006.557,0,1.113,0,1.669,0,.081-.052.125-.145.128s-.151-.04-.155-.117a4.924,4.924,0,0,1,0-.682,3.34,3.34,0,0,0-.148-1c-.035-.169-.1-.2-.242-.191-.177.008-.354,0-.531,0Z" transform="translate(-294.855 -406.326)" fill="#383838"/><path d="M374.958,430.31a4.559,4.559,0,0,0-.158,1.615c-.006.142.125.367-.2.379-.372.014-.243-.244-.247-.411-.012-.534-.008-1.068,0-1.6,0-.306.1-.358.425-.238.064.023.088.13.185.1Z" transform="translate(-321.598 -406.741)" fill="#2e2e2e"/><path d="M335.762,429.844V430a1.038,1.038,0,0,0-.162.546c.031.4,0,.812.012,1.217,0,.155-.035.238-.206.225-.121-.009-.258.028-.257-.171,0-.66,0-1.319,0-1.979a.311.311,0,0,1,.225-.272c.094-.026.054.154.1.227C335.553,429.9,335.668,429.824,335.762,429.844Z" transform="translate(-293.252 -406.429)" fill="#4d4d4d"/><path d="M356.3,392.173a.129.129,0,0,1-.153-.153c.631-.371,1.212-.109,1.221.557.007.53,0,1.06,0,1.59,0,.043-.036.085-.056.127-.053-.041-.106-.084-.161-.123-.127-.09-.084-.224-.085-.343,0-.3.011-.606,0-.908C357.039,392.419,356.816,392.209,356.3,392.173Z" transform="translate(-308.444 -379.149)" fill="#323232"/><path d="M345.4,375.243a.387.387,0,0,1-.308-.431c.009-.476,0-.953,0-1.429,0-.152-.025-.292.217-.288.2,0,.249.076.246.262-.01.526,0,1.053,0,1.58C345.527,375.053,345.626,375.23,345.4,375.243Z" transform="translate(-300.442 -365.582)" fill="#484848"/><path d="M189.567,375.888a7.5,7.5,0,0,1-.305-.967c0-.481.021-.963-.009-1.442-.016-.26.2-.432.173-.7a.7.7,0,0,1,.114-.636.511.511,0,0,0-.014-.5c-.035-.07-.193-.136,0-.187.1-.026.206,0,.194.148v.917c-.228.013-.13.19-.153.306v.917c-.229.013-.13.19-.153.306v.306c.023.116-.076.293.153.306v1.223Z" transform="translate(-187.709 -364.392)" fill="#4e4e4e"/><path d="M183.85,372.572h.076a11.333,11.333,0,0,0-.084,1.5c-.069.679.179,1.323.159,1.993,0,.088.068.128.091.191a2.375,2.375,0,0,1,.217,1.2c-.326-.044,0-.449-.288-.517a15.228,15.228,0,0,1-.3-4.32C183.729,372.6,183.807,372.59,183.85,372.572Z" transform="translate(-183.673 -365.203)" fill="#474747"/><path d="M197.971,376.181a.388.388,0,0,1-.309-.44c.013-.279,0-.56,0-.84a1.033,1.033,0,0,0-.144-.707.205.205,0,0,1,.045-.271c.023-.014.1.09.158.094.085.006.1-.073.095-.148a.727.727,0,0,1,.305-.745c.079.3-.173.542-.164.843.007.255.111.533-.133.776-.121.121.151.221.146.38C197.965,375.476,197.971,375.828,197.971,376.181Z" transform="translate(-193.668 -365.602)" fill="#474747"/><path d="M344.568,431.12c0,.329,0,.658,0,.986,0,.134-.07.176-.184.163a.128.128,0,0,1-.125-.148c0-.4,0-.809,0-1.214,0-.152,0-.3,0-.455,0-.088-.033-.163-.107-.163-.17,0-.262-.1-.192-.223.1-.187.32-.075.484-.081.138-.006.119.125.118.224C344.567,430.513,344.568,430.817,344.568,431.12Z" transform="translate(-299.613 -406.717)" fill="#2e2e2e"/><path d="M395.95,431.123c0,.329,0,.658,0,.986,0,.139-.077.172-.188.159a.129.129,0,0,1-.122-.151c.005-.4,0-.809,0-1.214,0-.152-.006-.3,0-.455,0-.09-.035-.161-.11-.159-.175,0-.259-.106-.188-.226.108-.182.322-.074.488-.078.135,0,.115.129.114.227C395.949,430.516,395.95,430.82,395.95,431.123Z" transform="translate(-336.783 -406.716)" fill="#2e2e2e"/><path d="M250.77,373.124a1.191,1.191,0,0,1,.306.885c0,.654-.024,1.309.008,1.961a.764.764,0,0,1-.467.822,7.246,7.246,0,0,0,.324-2.37c0-.246-.193-.389-.175-.618S250.77,373.351,250.77,373.124Z" transform="translate(-232.101 -365.602)" fill="#474747"/><path d="M342.49,410.986l-.153-.306c.155.031.334-.075.469.085s.351.264.3.526c-.149-.012-.152.092-.152.2,0,.379,0,.758,0,1.138,0,.1,0,.207-.153.2.072-.236-.2-.376-.16-.616.036-.221-.018-.455.015-.677A.894.894,0,0,0,342.49,410.986Z" transform="translate(-298.452 -392.766)" fill="#454545"/><path d="M309.446,429.159c-.18-.055-.325-.155-.3-.362.068-.614-.158-1.248.133-1.85.029-.06-.161-.111-.136-.234.133.012.311-.067.308.19C309.442,427.656,309.446,428.407,309.446,429.159Z" transform="translate(-274.425 -404.368)" fill="#2e2e2e"/><path d="M350.072,374.952c.15.012.152-.092.153-.2,0-.481.008-.962,0-1.443-.006-.26.172-.184.309-.2.071.124-.2.136-.066.355a1.135,1.135,0,0,1,0,.989c-.069.159-.1.23.013.374.134.163.021.383.052.575-.195.075-.3-.131-.459-.153Z" transform="translate(-304.048 -365.596)" fill="#2e2e2e"/><path d="M326.313,435.86q.375.07.306-.306c.129-.019.173.1.235.164.259.284.531.447.894.163a.155.155,0,0,1,.14-.017.572.572,0,0,1,.219.2c.053.109-.085.184-.145.2a2.124,2.124,0,0,1-1.041.034C326.7,436.257,326.387,436.18,326.313,435.86Z" transform="translate(-286.86 -410.764)" fill="#363636"/><path d="M379.349,351.023c.205,0,.151.158.151.267,0,.8.015,1.6-.007,2.4a1.123,1.123,0,0,0,.162.538c-.134-.012-.315.066-.308-.192.01-.377,0-.755,0-1.132Z" transform="translate(-325.225 -349.614)" fill="#242424"/><path d="M368.306,354.232a1.123,1.123,0,0,0,.162-.538c-.023-.8-.011-1.6-.007-2.4,0-.11-.054-.266.151-.267,0,.981-.009,1.962.006,2.942C368.621,354.223,368.51,354.26,368.306,354.232Z" transform="translate(-317.238 -349.614)" fill="#181818"/><path d="M351.393,375.408c-.032-.192.082-.412-.052-.575-.118-.144-.082-.215-.013-.374a1.135,1.135,0,0,0,0-.989c-.131-.218.137-.231.066-.355a.117.117,0,0,1,.15.12q.007,1.026,0,2.052A.116.116,0,0,1,351.393,375.408Z" transform="translate(-304.91 -365.594)" fill="#434343"/><path d="M347.274,379.755v.306c-.519.43-.55.43-1.07,0,.229-.013.13-.19.153-.306A.736.736,0,0,0,347.274,379.755Z" transform="translate(-301.249 -370.399)" fill="#434343"/><path d="M206.967,366.8a.527.527,0,0,1,.509-.293c.524-.029,1.051,0,1.577.016.019,0,.035.081.053.124A16.468,16.468,0,0,0,206.967,366.8Z" transform="translate(-200.524 -360.808)" fill="#474747"/><path d="M343.589,414.432c.149.012.152-.092.153-.2,0-.379,0-.758,0-1.138,0-.1,0-.207.152-.2v1.645c0,.105-.013.2-.154.188-.109-.013-.266.071-.3-.114C343.421,414.522,343.444,414.421,343.589,414.432Z" transform="translate(-299.245 -394.379)" fill="#363636"/><path d="M376.594,429.9v-.153a.334.334,0,0,1,.286-.3,1.01,1.01,0,0,1,.589.036.2.2,0,0,1,.02.193c-.084.083-.132.223-.286.221C377,429.9,376.8,429.9,376.594,429.9Z" transform="translate(-323.234 -406.329)" fill="#5c5c5c"/><path d="M335.154,361.428v-.306c.311-.012.638.072.918-.149.018-.014.1.018.122.05a.152.152,0,0,1,.026.134c-.084.151-.178.286-.389.273S335.38,361.428,335.154,361.428Z" transform="translate(-293.256 -356.81)" fill="#363636"/><path d="M402.562,437.09l.153-.306c.231-.041.5.11.693-.146a.158.158,0,0,1,.2.042c.046.058.134.1.15.162.022.082-.074.074-.132.1a.887.887,0,0,1-.539.153A3.368,3.368,0,0,0,402.562,437.09Z" transform="translate(-342.019 -411.535)" fill="#363636"/><path d="M209.5,349.365a.117.117,0,0,1-.12.15q-.874.008-1.747,0a.117.117,0,0,1-.12-.15Z" transform="translate(-200.915 -348.415)" fill="#474747"/><path d="M290.549,373.446a.117.117,0,0,1-.15-.12q-.008-.873,0-1.747a.117.117,0,0,1,.15-.12Z" transform="translate(-260.876 -364.396)" fill="#474747"/><path d="M210.608,359.464h-1.8c-.1,0-.2-.008-.191-.153h1.987Z" transform="translate(-201.72 -355.61)" fill="#474747"/><path d="M371.062,361.674c.455,0,.912-.022,1.365.01.2.014.3-.136.469-.163-.02.093.051.267-.053.272a5.563,5.563,0,0,1-1.78-.046C371.056,361.745,371.062,361.7,371.062,361.674Z" transform="translate(-319.23 -357.208)" fill="#181818"/><path d="M325.208,418.337v-.459h.455c.206,0,.148.155.155.267s-.011.2-.155.193S325.36,418.337,325.208,418.337Z" transform="translate(-286.061 -397.978)" fill="#434343"/><path d="M356.754,350.038c-.13.194-.267.415-.424.619-.028.037-.159.019-.19-.064a.378.378,0,0,1-.01-.223.8.8,0,0,1,.438-.469C356.641,349.864,356.705,349.925,356.754,350.038Z" transform="translate(-308.421 -348.795)" fill="#363636"/><path d="M368.809,425.055c.032.033.083.06.094.1.032.111-.069.17-.11.254-.1.192-.128.424-.423.416-.074,0-.082,0-.079-.079a.95.95,0,0,1,.442-.688A.242.242,0,0,1,368.809,425.055Z" transform="translate(-317.227 -403.168)" fill="#363636"/><path d="M354.492,377.013a.943.943,0,0,0,.161-.53,9.393,9.393,0,0,1-.009-.962c0-.1.011-.2.153-.188,0,.5,0,1,0,1.494C354.8,377.081,354.624,377,354.492,377.013Z" transform="translate(-307.245 -367.199)" fill="#242424"/><path d="M241.224,398.578c.218-.334.431-.677.917-.611A1.089,1.089,0,0,1,241.224,398.578Z" transform="translate(-225.306 -383.568)" fill="#545454"/><path d="M363.883,395.931c-.011-.144.086-.153.19-.153h1.491c.011.144-.086.153-.19.153Z" transform="translate(-314.038 -381.99)" fill="#181818"/><path d="M388.795,351.232c-.122.113-.214.257-.427.233-.176-.019-.181-.106-.185-.241s.025-.215.194-.232C388.589,350.971,388.68,351.111,388.795,351.232Z" transform="translate(-331.617 -349.59)" fill="#434343"/><path d="M346.419,395.5c-.043-.018-.124-.035-.124-.053q-.01-.634,0-1.269c0-.019.081-.036.124-.053Z" transform="translate(-301.311 -380.791)" fill="#242424"/><path d="M344.973,426.689c.109,0,.217.015.19.153-.035.179-.148.322-.338.3-.1-.014-.178-.144-.267-.221C344.679,426.806,344.77,426.637,344.973,426.689Z" transform="translate(-300.059 -404.345)" fill="#2e2e2e"/><path d="M236.249,374.382c-.011-.142.085-.153.189-.153h1.187c.011.142-.085.153-.189.153Z" transform="translate(-221.706 -366.402)" fill="#474747"/><path d="M364.438,361.827l.153-.306h.764a.119.119,0,0,1-.116.15c-.1.012-.2.012-.19.156Z" transform="translate(-314.44 -357.208)" fill="#242424"/><path d="M410.484,427.18a.857.857,0,0,1-.154-.242c-.029-.094.325-.255.486-.223.075.015.137.058.114.149C410.887,427.042,410.787,427.162,410.484,427.18Z" transform="translate(-347.638 -404.368)" fill="#2e2e2e"/><path d="M330.5,388.583c.16.03.134.134.14.229a.3.3,0,0,1-.258.345.287.287,0,0,1-.2-.267C330.189,388.755,330.4,388.571,330.5,388.583Z" transform="translate(-289.658 -376.785)" fill="#363636"/><path d="M328.623,351.253a2.379,2.379,0,0,1-.28.241c-.06.038-.377-.192-.344-.224.086-.085.144-.246.282-.221A1.226,1.226,0,0,1,328.623,351.253Z" transform="translate(-288.078 -349.631)" fill="#242424"/><path d="M334.822,407.917c.093-.006.2-.021.227.109s-.157.333-.306.348-.146-.089-.152-.191C334.582,408.019,334.587,407.874,334.822,407.917Z" transform="translate(-292.847 -390.766)" fill="#2e2e2e"/><path d="M328.18,433.5H327.6c-.1,0-.193-.017-.183-.153h1.223v.153Z" transform="translate(-287.657 -409.17)" fill="#181818"/><path d="M401.609,433.5a.13.13,0,0,1-.153-.153h1.223v.153h-1.07Z" transform="translate(-341.219 -409.17)" fill="#181818"/><path d="M396.71,427.18c-.222.04-.254-.083-.239-.258.009-.1,0-.216.145-.2a.324.324,0,0,1,.311.338C396.925,427.2,396.8,427.188,396.71,427.18Z" transform="translate(-337.611 -404.377)" fill="#434343"/><path d="M334.049,357.806v-.153h1.222c.01.136-.079.153-.182.153h-1.04Z" transform="translate(-292.456 -354.41)" fill="#181818"/><path d="M320.788,401.115a.928.928,0,0,0,.156-.662c-.009-.108-.044-.255.15-.254,0,.245,0,.491,0,.736S320.916,401.1,320.788,401.115Z" transform="translate(-282.863 -385.188)" fill="#242424"/><path d="M394.792,357.653c.01.136-.079.153-.183.153h-.887v-.153Z" transform="translate(-335.624 -354.41)" fill="#181818"/><path d="M250.029,421.062c.037-.152-.1-.357.1-.45a.933.933,0,0,1,.36-.008A.828.828,0,0,1,250.029,421.062Z" transform="translate(-231.666 -399.938)" fill="#474747"/><path d="M190.689,388.254a.747.747,0,0,1-.306-.764h.153C190.51,387.76,190.767,387.973,190.689,388.254Z" transform="translate(-188.525 -375.995)" fill="#4e4e4e"/><path d="M346.2,399.388c.229-.013.13-.19.153-.306.089-.022.123.055.175.1.092.079.207.206.106.289C346.505,399.58,346.3,399.66,346.2,399.388Z" transform="translate(-301.249 -384.378)" fill="#515151"/><path d="M199.537,384.633c-.306-.028-.306-.028-.306-.458A.376.376,0,0,1,199.537,384.633Z" transform="translate(-194.928 -373.597)" fill="#474747"/><path d="M244.539,397.189c.028-.306.028-.306.458-.306A.377.377,0,0,1,244.539,397.189Z" transform="translate(-227.704 -382.79)" fill="#545454"/><path d="M335.06,373.423c.011-.145-.088-.147-.192-.154s-.266.053-.267-.152c.151,0,.3.006.453,0,.092,0,.146.037.155.115C335.221,373.332,335.207,373.435,335.06,373.423Z" transform="translate(-292.856 -365.595)" fill="#181818"/><path d="M327.63,354.338c.01.136-.078.153-.183.153h-.581v-.153h.764Z" transform="translate(-287.26 -352.012)" fill="#242424"/><path d="M336.259,392.213c0-.2.156-.143.267-.151s.2-.009.192-.154c.147-.011.162.091.15.193-.009.077-.064.119-.156.115C336.561,392.207,336.41,392.213,336.259,392.213Z" transform="translate(-294.055 -379.19)" fill="#181818"/><path d="M384.329,430.336v-.306c.134.012.337-.065.3.19C384.6,430.406,384.437,430.315,384.329,430.336Z" transform="translate(-328.829 -406.767)" fill="#363636"/><path d="M325.4,411.4a.6.6,0,0,1-.15,0c-.144-.039-.379.114-.411-.1-.012-.086.265-.02.408-.047Q325.4,411.243,325.4,411.4Z" transform="translate(-285.791 -393.182)" fill="#242424"/><path d="M250.611,371.683l.052-.128c.034.02.095.037.1.059.009.124,0,.25,0,.374C250.535,371.976,250.634,371.8,250.611,371.683Z" transform="translate(-232.095 -364.467)" fill="#474747"/><path d="M343.194,399.645q.159-.006.153.153h-.306q-.159.006-.153-.153Z" transform="translate(-298.851 -384.788)" fill="#181818"/><path d="M403.115,433.9h.459C403.42,434.112,403.269,434.112,403.115,433.9Z" transform="translate(-342.419 -409.57)" fill="#424242"/><path d="M200.486,386.138l-.052.129c-.034-.02-.095-.038-.1-.06-.009-.124,0-.249,0-.375C200.562,385.845,200.463,386.022,200.486,386.138Z" transform="translate(-195.724 -374.795)" fill="#474747"/><path d="M199.778,372.4a.922.922,0,0,1,0-.149c.008-.044.023-.117.048-.124.095-.025.107.045.1.12A.129.129,0,0,1,199.778,372.4Z" transform="translate(-195.321 -364.876)" fill="#474747"/><path d="M248.958,423q-.006-.158.153-.153A.129.129,0,0,1,248.958,423Z" transform="translate(-230.901 -401.575)" fill="#474747"/><path d="M251.721,420.241q-.006-.159.153-.153Q251.88,420.247,251.721,420.241Z" transform="translate(-232.9 -399.577)" fill="#474747"/><path d="M327.016,354.011h-.153c-.006-.074.01-.142.1-.121C326.989,353.9,327,353.969,327.016,354.011Z" transform="translate(-287.258 -351.685)" fill="#4d4d4d"/><path d="M246.2,396.483c0-.106.047-.157.153-.153Q246.354,396.489,246.2,396.483Z" transform="translate(-228.902 -382.39)" fill="#545454"/><path d="M367.934,427.893c-.03.024-.068.072-.089.066-.059-.019-.069-.065-.029-.09a.585.585,0,0,1,.118-.044Z" transform="translate(-316.866 -405.173)" fill="#363636"/><path d="M248.405,423.556a.13.13,0,0,1,.153-.153Q248.564,423.562,248.405,423.556Z" transform="translate(-230.501 -401.975)" fill="#474747"/><path d="M248.405,394.272a.13.13,0,0,1,.153-.153Q248.564,394.278,248.405,394.272Z" transform="translate(-230.501 -380.79)" fill="#474747"/><path d="M240.67,400.35q-.006-.159.153-.153A.13.13,0,0,1,240.67,400.35Z" transform="translate(-224.905 -385.187)" fill="#545454"/><path d="M249.511,422.451a.129.129,0,0,1,.153-.153Q249.67,422.457,249.511,422.451Z" transform="translate(-231.301 -401.175)" fill="#474747"/><path d="M321.555,393.568v1.376c-.043-.018-.124-.035-.124-.053q-.01-.634,0-1.269C321.431,393.6,321.511,393.586,321.555,393.568Z" transform="translate(-283.324 -380.392)" fill="#242424"/><path d="M314.608,433.35h.764a.117.117,0,0,1-.119.15q-.492.01-.984,0a.117.117,0,0,1-.119-.15Z" transform="translate(-278.059 -409.17)" fill="#181818"/><path d="M315.813,376.439h1.222q.006.159-.153.153H316C315.9,376.592,315.8,376.579,315.813,376.439Z" transform="translate(-279.264 -368)" fill="#181818"/></svg>