<svg xmlns="http://www.w3.org/2000/svg" width="63.399" height="23.724" viewBox="0 0 63.399 23.724"><path d="M1194.92,343.9l.023-.085c.469,0,.938,0,1.408-.006.168,0,.312-.024.207-.245-.115-.24.028-.337.21-.43.1-.052.248-.042.289-.189l.153.067.166.385c-.023.178.006.321.223.342a1.953,1.953,0,0,0,.315.051q1.987.007,3.973,0a1.585,1.585,0,0,0,.31-.063l.372.01a2.744,2.744,0,0,0,.854.029l.474.036c.284.252.244.6.262.923a13.861,13.861,0,0,1-.451,3.574,7.284,7.284,0,0,1-1.242,2.811c-.34.437-.5.825-.151,1.309a.243.243,0,0,1-.214.221c-.095-.063-.125-.2-.264-.214l0-.008c-.034-.149-.07-.4-.27-.219-.4.365-.9.557-1.3.894-.085.01-.177,0-.235.085a1.384,1.384,0,0,1-1.19-.157,4.456,4.456,0,0,1-.785-.485c-.307-.25-.486-.172-.658.144a1.23,1.23,0,0,1-.495.545,2.613,2.613,0,0,1,.361-.989c.083-.192.146-.359-.125-.443h0l-.082-.095a14.212,14.212,0,0,1-.916-1.454,12.751,12.751,0,0,1-1.121-4.49l-.013-.085-.044-.317A6.791,6.791,0,0,0,1194.92,343.9Zm5.351,7.991c.04-.018.149.034.09-.087v-.04l.166.018.148.025c.286.022.39-.177.391-.4,0-.29.054-.466.394-.413.128.02.195-.078.226-.184s-.06-.126-.139-.14c.044-.085.2-.088.165-.229l.245-.26c.048-.062.106-.119.073-.209a10.678,10.678,0,0,1-.282-1.092c-.026-.193-.024-.315.211-.3l0,0c-.006.214.09.323.312.316.137,0,.287,0,.319-.17.043-.225.072-.461-.225-.556-.048-.226-.126-.44.261-.447.264,0,.463-.464.276-.628-.246-.216-.2-.466-.217-.725-.012-.18.071-.375-.073-.538a1.226,1.226,0,0,0-1-1.019.612.612,0,0,0-.648.3.47.47,0,0,0,.095.588c.149.17.3.334.46.5.052.054.16.106.074.186-.267.248-.393.649-.8.749l-.3-.015-.095-.156c.167-.1.059-.246.013-.314a1.127,1.127,0,0,1-.07-.916.932.932,0,0,0-.842-1.215,3.154,3.154,0,0,1-.7-.143c-.217-.1-.356.011-.389.247a.206.206,0,0,1-.021.071.633.633,0,0,1-.5.036c-1.008-.161-1.427.294-1.526,1.245a8.274,8.274,0,0,0,.035,1.161c-.047.235-.025.49.273.437.432-.076.33.186.309.4a.672.672,0,0,1-.462.56c.286.317.513.226.724-.057.316.068.151.325.2.5l.011.09,0-.007c-.227.156-.164.43-.26.64-.09.066-.23.12-.062.25-.048.1.021.164.062.239.149.208.117.616.263.664a1.589,1.589,0,0,1,.819.762v-.006c-.032.2.048.225.2.134l.164.033a.513.513,0,0,0,.47.35l.1.014c.286.288.616.285.806-.008.016-.112.01-.24.174-.247A.625.625,0,0,0,1200.271,351.892Z" transform="translate(-1167.939 -340.46)" fill="#a6a6a6"/><path d="M1232.8,388.666c-.714.1-.548.574-.532.981.021.55.06,1.1.073,1.65.007.286.035.534.382.6.065.011.136.044.12.129s-.1.077-.161.078c-.45,0-.9,0-1.39-.036.537-.3.341-.773.352-1.187.013-.5,0-1.005,0-1.508l-.13-.023c-.322.726-.638,1.455-.969,2.177-.092.2-.113.554-.312.559-.218,0-.223-.349-.313-.546a22.482,22.482,0,0,0-1.026-2.108c-.04.741-.095,1.482-.111,2.223-.005.244.345.159.47.4h-1.215c.746-.839.442-1.949.658-2.937.073-.336-.319-.3-.517-.508a3.168,3.168,0,0,1,1.119-.05c.094,0,.057.134.09.2.344.708.686,1.417,1.08,2.234.383-.808.726-1.522,1.056-2.243.043-.1.02-.212.177-.21.33,0,.659,0,.989,0Z" transform="translate(-1191.528 -372.916)" fill="#111"/><path d="M1105.073,388.661c-.69.259-.457.851-.494,1.332-.027.348,0,.7-.031,1.047a1.229,1.229,0,0,1-.956,1.16,1.629,1.629,0,0,1-1.705-.422.966.966,0,0,1-.24-.668c0-.51-.018-1.021-.019-1.531,0-.356.091-.75-.426-.9h1.5c-.541.284-.367.753-.381,1.168-.014.389-.018.78,0,1.169a.871.871,0,0,0,.888.9.912.912,0,0,0,1.036-.793,14.192,14.192,0,0,0,.016-2.011c0-.271-.331-.2-.4-.449Z" transform="translate(-1101.202 -373.013)" fill="#0d0d0d"/><path d="M1163.609,394.428a.947.947,0,0,1-.988-.3c-.121-.161-.237-.325-.359-.485-.2-.265-.408-.49.124-.663.279-.091.319-.419.189-.7a.534.534,0,0,0-.612-.288c-.232.04-.119.267-.123.408-.013.415,0,.832.006,1.248,0,.22-.067.477.264.541a.1.1,0,0,1,.076.119c-.013.068-.07.071-.123.071l-1.128,0c-.052,0-.12,0-.113-.071,0-.044.044-.113.08-.121.275-.062.249-.271.249-.474,0-.43,0-.86.005-1.289,0-.183.056-.394-.236-.415a.1.1,0,0,1-.085-.115c.01-.063.062-.083.118-.087a5.238,5.238,0,0,1,1.88.02.6.6,0,0,1,.486.524.571.571,0,0,1-.357.651c-.219.095-.225.192-.091.371C1163.117,393.707,1163.344,394.049,1163.609,394.428Z" transform="translate(-1143.658 -375.201)" fill="#171717"/><path d="M1118.4,391.882c-.554.31-.387.822-.412,1.262-.022.375-.012.752-.021,1.128,0,.089.038.207-.054.257-.111.061-.2-.024-.28-.1q-.617-.635-1.231-1.272c-.084-.087-.161-.18-.245-.267-.052-.054-.094-.138-.2-.09-.077.036-.073.11-.072.172,0,.336.021.672.018,1.007,0,.255.3.238.391.478a4.063,4.063,0,0,1-1.14-.029c.618-.25.449-.776.461-1.213s.253-.973-.419-1.192a.9.9,0,0,1,1.173.146c.343.377.7.745,1.05,1.113.057.06.1.184.219.122.086-.044.068-.138.066-.214-.006-.255-.027-.51-.026-.764a.279.279,0,0,0-.192-.31c-.069-.024-.172-.058-.135-.163s.135-.065.212-.066C1117.847,391.881,1118.125,391.882,1118.4,391.882Zm-2.508.867.028.026.026-.029-.041-.028Z" transform="translate(-1111.142 -375.297)" fill="#131313"/><path d="M1255.877,391.895a4.267,4.267,0,0,1,2.263.007,1.077,1.077,0,0,1,.785,1.053,1.179,1.179,0,0,1-.745,1.214,5.208,5.208,0,0,1-2.283.174c.5-.235.362-.663.373-1.038.007-.241.006-.483,0-.725C1256.266,392.3,1256.391,391.955,1255.877,391.895Zm1.065,1.165h.016c0,.267.016.536,0,.8-.023.3.122.326.36.28a1.029,1.029,0,0,0,.891-1.14.991.991,0,0,0-.93-1.016c-.229-.037-.357,0-.337.273S1256.942,392.793,1256.942,393.06Z" transform="translate(-1211.347 -375.208)" fill="#111"/><path d="M1299.47,394.494c.551-.328.4-.851.416-1.3s.213-.957-.422-1.212c.488-.086.91-.206,1.265.279a15.059,15.059,0,0,0,1.2,1.294,6.969,6.969,0,0,0,.009-1.262c0-.068-.052-.112-.12-.145-.085-.039-.25-.038-.186-.195.042-.1.168-.053.256-.054.252,0,.5,0,.82,0-.784.618-.322,1.437-.477,2.135-.038.172.105.425-.083.508s-.319-.161-.444-.286c-.427-.428-.833-.877-1.25-1.314-.059-.062-.1-.181-.222-.129s-.076.164-.077.25c0,.255.013.511.01.766,0,.2.026.375.25.45.06.02.133.055.12.138s-.095.079-.159.08C1300.073,394.495,1299.771,394.494,1299.47,394.494Zm.742-1.751-.024-.028a.236.236,0,0,0-.024.05c0,.006.014.017.021.025Z" transform="translate(-1242.385 -375.309)" fill="#111"/><path d="M1202.708,394.262c.563-.11.449-.506.455-.85,0-.242,0-.483,0-.725,0-.329.114-.708-.443-.828a1.059,1.059,0,0,1,.617-.093,9.617,9.617,0,0,0,1.526-.046c.181-.034.254.026.211.212-.024.1-.046.21-.06.316-.011.082-.017.177-.1.2s-.135-.075-.158-.145c-.139-.435-.5-.29-.774-.264-.225.022-.091.262-.118.4-.073.37.078.507.452.432a5.4,5.4,0,0,1,.629-.052c-.064.291-.19.4-.472.368-.19-.024-.465-.134-.567.018-.137.2-.049.5-.021.745.024.209.686.241.87.049.141-.148.216-.363.459-.468a2.141,2.141,0,0,1-.088.688c-.019.11-.087.151-.2.15-.708,0-1.416,0-2.124,0Z" transform="translate(-1173.485 -375.185)" fill="#151515"/><path d="M1290.808,392.129c-.581-.01-1.152-.2-1.288.736a2.325,2.325,0,0,1-.16-.884c-.01-.1.045-.13.146-.13.724,0,1.448,0,2.256,0l-1.594,2.312a1.17,1.17,0,0,0,1.535-.633,1.962,1.962,0,0,1-.028.807c-.024.16-.149.125-.25.125-.659,0-1.318-.009-1.977,0-.291.005-.249-.1-.126-.271q.557-.766,1.111-1.535C1290.549,392.5,1290.659,392.341,1290.808,392.129Z" transform="translate(-1235.098 -375.284)" fill="#131313"/><path d="M1247.99,392.866c-.129.416-.44.334-.706.3-.3-.041-.474.008-.4.352.044.191-.139.489.141.56.3.077.665.167.885-.228.064-.114.13-.269.323-.285.065.238-.058.447-.083.665a.154.154,0,0,1-.167.141c-.717,0-1.433,0-2.187-.042.546-.243.393-.7.411-1.1.007-.161.006-.322,0-.484-.008-.352.135-.768-.453-.881l.075-.092c.422,0,.844,0,1.265,0a2.764,2.764,0,0,0,.68-.032c.354-.1.368.076.3.324-.035.134-.013.3-.184.432a.624.624,0,0,0-.77-.484c-.182.037-.242.074-.25.261-.028.645-.036.643.613.586A1.051,1.051,0,0,1,1247.99,392.866Z" transform="translate(-1204.142 -375.183)" fill="#0f0f0f"/><path d="M1174.24,391.491a2.685,2.685,0,0,1-.165.842c-.189-.008-.2-.162-.228-.256-.116-.37-.386-.319-.652-.25a.31.31,0,0,0-.249.283.306.306,0,0,0,.2.317c.268.125.539.242.808.362a.679.679,0,0,1,.455.689.721.721,0,0,1-.5.669,1.7,1.7,0,0,1-1.22.05c-.436-.143-.464-.2-.293-.631.029-.073.068-.142.1-.214.175.033.161.18.2.282a.569.569,0,0,0,.908.289.321.321,0,0,0-.016-.564,5.53,5.53,0,0,0-.583-.27c-.564-.259-.755-.583-.6-1.016a.939.939,0,0,1,1.145-.508A.829.829,0,0,0,1174.24,391.491Z" transform="translate(-1151.833 -375.028)" fill="#151515"/><path d="M1139.568,393.544c.433-.744-.164-1.155-.549-1.665a1.4,1.4,0,0,1,.82-.027c.26.075.161.474.411.662.051-.1.138-.2.145-.3.032-.5.361-.4.816-.358a1.433,1.433,0,0,0-.768.817c-.131.4.226.638.349,1.071l.571-1.444a.113.113,0,0,1,.019-.035c.128-.14-.2-.348.017-.414a1.9,1.9,0,0,1,.752.017c-.631.386-.706,1.089-1.012,1.651-.1.176-.149.374-.241.552s-.164.39-.362.39c-.168,0-.172-.24-.247-.374a3.371,3.371,0,0,1-.234-.467c-.119-.327-.216-.136-.321,0Z" transform="translate(-1128.132 -375.25)" fill="#131313"/><path d="M1280.889,393.465c-.188.749-.247.8-.833.875a2.169,2.169,0,0,1-.8-.056,1.242,1.242,0,0,1-1.068-1.227,1.309,1.309,0,0,1,.975-1.357,1.445,1.445,0,0,1,.91-.064,1.055,1.055,0,0,0,.8-.035,1.481,1.481,0,0,1-.27.883c-.348-.63-.555-.728-1.08-.529a1.1,1.1,0,0,0-.581,1.35,1.078,1.078,0,0,0,1.1.774.6.6,0,0,0,.306-.178C1280.5,393.775,1280.654,393.653,1280.889,393.465Z" transform="translate(-1227.235 -375.096)" fill="#151515"/><path d="M1215.475,392.526c-.2-.225-.091-.671-.564-.581-.157.03-.241.049-.237.229.01.537.017,1.076.007,1.613,0,.236.176.231.312.3.065.033.188.017.177.125-.015.147-.141.085-.225.085a13.227,13.227,0,0,1-1.434-.05c.7-.21.436-.747.471-1.168a7.023,7.023,0,0,0,0-.806c0-.118.073-.3-.138-.315-.16-.01-.344-.078-.462.136-.078.14-.1.34-.322.389-.017-.04-.046-.074-.044-.107a1.545,1.545,0,0,1,.061-.67c.126-.21.382.016.587,0a17.354,17.354,0,0,0,1.85-.058c.178-.031.254.022.183.217S1215.649,392.318,1215.475,392.526Z" transform="translate(-1180.824 -375.118)" fill="#151515"/><path d="M1192.846,394.263c.645-.076.5-.526.506-.9,0-.349.009-.7,0-1.046,0-.1.079-.279-.109-.286-.167-.005-.375-.126-.5.113-.078.148-.121.331-.322.4a1.075,1.075,0,0,1-.031-.159c-.028-.651-.027-.63.6-.626a10.165,10.165,0,0,0,1.846-.045c.2-.034.284.018.22.231s-.113.406-.168.609c-.2-.029-.189-.187-.2-.281-.05-.321-.276-.265-.484-.257-.284.009-.162.231-.168.36-.017.335-.007.671,0,1.006.008.605.009.605.484.875A3.214,3.214,0,0,1,1192.846,394.263Z" transform="translate(-1166.13 -375.182)" fill="#0d0d0d"/><path d="M1180.8,391.979a4.65,4.65,0,0,1,1.209-.055c-.2.515.278.753.419,1.137.128-.355.581-.574.379-1.046-.031-.072.07-.1.139-.1a3.344,3.344,0,0,1,.714.052c-.443.2-.6.616-.864.951a1.661,1.661,0,0,0-.24,1.149c0,.3.386.134.455.406h-1.591c.006-.027,0-.076.024-.1.12-.114.378-.051.4-.275a1.231,1.231,0,0,0-.055-.866C1181.5,392.8,1181.323,392.267,1180.8,391.979Z" transform="translate(-1157.884 -375.327)" fill="#111"/><path d="M1268.282,391.906c-.2.522.241.761.4,1.125.141-.35.587-.565.387-1.036-.032-.074.072-.091.14-.091h.675A3.471,3.471,0,0,0,1269,393a1.633,1.633,0,0,0-.171,1.085c.006.261.358.128.447.378h-1.729c.381-.177.625-.3.593-.711a1.725,1.725,0,0,0-.312-.886,2.045,2.045,0,0,0-.873-.9A6.547,6.547,0,0,1,1268.282,391.906Z" transform="translate(-1219.236 -375.319)" fill="#111"/><path d="M1313.532,394.459h-1.626c0-.041-.01-.074,0-.09.114-.154.435-.056.437-.337,0-.327.094-.667-.144-.966a4.5,4.5,0,0,1-.4-.6,1.424,1.424,0,0,0-.608-.515,8.741,8.741,0,0,1,1.316-.077c-.224.526.252.763.388,1.152.122-.349.578-.542.4-1.007-.048-.125.063-.124.138-.126a3.836,3.836,0,0,1,.7.038,2.983,2.983,0,0,0-.98,1.165,1.454,1.454,0,0,0-.111.975C1313.061,394.311,1313.4,394.21,1313.532,394.459Z" transform="translate(-1250.739 -375.298)" fill="#0f0f0f"/><path d="M1152.307,394.232c-.009.128-.1.139-.2.139h-1.39c.742-.646.264-1.471.387-2.2.039-.228-.3-.125-.35-.347a.939.939,0,0,1,.488-.047,10.831,10.831,0,0,0,1.568-.044c.156-.028.236,0,.2.181-.025.118-.032.24-.061.357-.017.071-.01.174-.123.179-.086,0-.111-.078-.129-.134-.143-.458-.518-.3-.8-.265-.238.032-.079.29-.113.443-.074.337.072.449.407.4a1.484,1.484,0,0,1,.686-.022c-.085.406-.392.3-.66.311-.146.007-.43-.151-.415.109s-.23.658.206.84A.3.3,0,0,0,1152.307,394.232Z" transform="translate(-1136.464 -375.196)" fill="#0a0a0a"/><path d="M1129.124,392c-.559.362-.284.892-.281,1.313,0,.4-.3.955.423,1.14a3.16,3.16,0,0,1-1.464.089c.624-.646.24-1.444.332-2.17.025-.2-.276-.155-.3-.371Z" transform="translate(-1120.144 -375.393)" fill="#111"/><path d="M1136.057,393.607l.167.083c-.139.317-.249.774-.583.8-.276.022-.312-.466-.457-.723-.223-.4-.4-.816-.608-1.224a.764.764,0,0,0-.353-.422c-.069-.03-.166-.058-.125-.167.03-.08.11-.06.175-.06h1.037a.432.432,0,0,0-.049.578c.2.366.38.739.544,1.12C1135.9,393.812,1135.965,393.738,1136.057,393.607Z" transform="translate(-1124.62 -375.314)" fill="#0f0f0f"/><path d="M1232.115,409c-.206.039-.249.219-.331.37a5.927,5.927,0,0,1-.567,1.112c-.217-.165-.208-.449-.392-.609a.251.251,0,0,0-.062.041c-.141.171-.18.519-.393.506s-.23-.355-.345-.546c-.184-.3-.247-.683-.561-.9.05-.085.12-.075.186-.072.23.011.471-.067.5.332a2.423,2.423,0,0,0,.358.757c.277-.372.236-.574-.2-1.05.276-.056.528-.141.62.237.02.081.079.1.154.062l.028.136a.666.666,0,0,0,.277.6,3.234,3.234,0,0,0,.3-.9c.005-.235.155-.115.212-.182l.149-.014Z" transform="translate(-1192.538 -387.407)" fill="#1c1c1c"/><path d="M1128.914,408.95a2.515,2.515,0,0,0-.041-2.067,2.557,2.557,0,0,1,1.041-.067c.484.057.714.331.654.737s-.383.582-.881.507c.056-.146.227-.105.314-.206a.577.577,0,0,0-.034-.8.412.412,0,0,0-.375-.1c-.162.046-.078.2-.081.308-.011.307,0,.616,0,.924s-.071.621.332.758Z" transform="translate(-1120.907 -385.924)" fill="#171717"/><path d="M1221.52,409a1.415,1.415,0,0,0,.042,1.485h-.689c.031-.238.2-.516-.025-.706a.494.494,0,0,0-.489.024c-.157.187-.082.442.062.678h-.684a1.913,1.913,0,0,0,.01-1.513h.7a.467.467,0,0,0-.156.406c-.025.26.138.243.3.229s.351.077.351-.228C1220.946,408.885,1220.969,408.882,1221.52,409Z" transform="translate(-1185.612 -387.45)" fill="#171717"/><path d="M1259.55,410.5h-.743a1.632,1.632,0,0,0-.01-1.492,3,3,0,0,1,1.123,0c.344.1.434.427.153.629-.194.139-.163.22-.049.367s.225.322.344.494a.9.9,0,0,1-.873-.619c-.032-.154.1-.125.162-.175.212-.175.216-.452,0-.559-.1-.049-.276-.128-.265.075C1259.413,409.641,1259.233,410.09,1259.55,410.5Z" transform="translate(-1213.427 -387.461)" fill="#1c1c1c"/><path d="M1178.843,408.764c.262-.288.171-.5-.142-.667-.106-.056-.21-.117-.317-.173-.284-.151-.482-.355-.375-.7a.645.645,0,0,1,.752-.457,1.115,1.115,0,0,0,.511-.029,1.071,1.071,0,0,1-.125.591c-.117-.236-.191-.469-.479-.407-.14.03-.262.077-.3.225a.3.3,0,0,0,.152.376c.188.1.38.2.567.3a.528.528,0,0,1,.313.557.514.514,0,0,1-.442.5Z" transform="translate(-1155.876 -385.883)" fill="#1f1f1f"/><path d="M1266.024,409.043c.548-.029.812.128.925.551a.78.78,0,0,1-.385.885,1.111,1.111,0,0,1-1.232-.167.77.77,0,0,1-.037-.964.593.593,0,0,1,.563-.31,1.118,1.118,0,0,0-.21,1.086.463.463,0,0,0,.44.357c.238,0,.346-.166.409-.376A.809.809,0,0,0,1266.024,409.043Z" transform="translate(-1217.945 -387.521)" fill="#1c1c1c"/><path d="M1153.282,410.5h-.946c.408-.378.212-.847.23-1.271.007-.174-.177-.185-.3-.087a1.171,1.171,0,0,0-.185.255c-.112-.456-.112-.453.3-.445q.4.007.805,0c.449-.011.449-.014.285.436-.1-.038-.088-.149-.14-.21-.126-.149-.307-.132-.328.034a5.357,5.357,0,0,0,0,1.043C1153.013,410.324,1153.148,410.384,1153.282,410.5Z" transform="translate(-1137.387 -387.459)" fill="#1f1f1f"/><path d="M1197.068,409.861c.089.322.188.531.515.412.1-.035.175-.084.184-.188a.21.21,0,0,0-.148-.215c-.1-.043-.2-.09-.294-.132-.258-.109-.46-.269-.354-.578a.524.524,0,0,1,.656-.327,1.264,1.264,0,0,0,.412-.009.838.838,0,0,1-.083.456c-.162-.084-.16-.371-.416-.311-.108.025-.217.042-.241.171a.2.2,0,0,0,.135.221c.146.068.3.126.44.2a.41.41,0,0,1,.278.441.465.465,0,0,1-.36.388,1.065,1.065,0,0,1-.634.01C1196.813,410.3,1196.907,410.123,1197.068,409.861Z" transform="translate(-1169.366 -387.366)" fill="#1f1f1f"/><path d="M1239.97,408.919l.714,0,.165.044a.532.532,0,0,1-.117.381c-.108-.221-.266-.375-.512-.252-.171.086-.12.291-.076.395.123.285.407.031.6.14-.016.182-.149.161-.289.172-.108.008-.291-.123-.316.1-.014.126-.071.3.042.381a.381.381,0,0,0,.415.013c.081-.046.121-.212.247-.088a.231.231,0,0,1,.02.189c-.041.151-.175.088-.271.09-.335.007-.67,0-1.033,0,.3-.434.129-.9.15-1.341,0-.033-.1-.071-.154-.106-.008-.069.044-.095.092-.123l.149,0Z" transform="translate(-1199.724 -387.435)" fill="#1a1a1a"/><path d="M1141.251,410.487c-.234,0-.39,0-.546,0-.13,0-.169-.02-.154-.179.031-.316-.214-.294-.433-.295-.247,0-.278.144-.266.343.01.16,0,.161-.439.088a2.732,2.732,0,0,0,.657-1.236c.061-.163.123-.247.278-.281.24-.053.152.177.2.264A4.432,4.432,0,0,0,1141.251,410.487Zm-1.258-.673c.148.036.336.1.373-.019a.573.573,0,0,0-.189-.464Z" transform="translate(-1128.413 -387.439)" fill="#1c1c1c"/><path d="M1248.545,409.114a12.97,12.97,0,0,0-1.139-2.184c.219,0,.413,0,.607,0,.068,0,.137.014.135.1a2.175,2.175,0,0,0,.5,1.312C1248.9,408.7,1248.734,408.844,1248.545,409.114Z" transform="translate(-1205.315 -386.022)" fill="#1a1a1a"/><path d="M1147.027,410.269a.531.531,0,0,0,.379-.01c.227-.118.247-.23.039-.371a2.044,2.044,0,0,0-.324-.158c-.242-.106-.437-.263-.348-.55a.518.518,0,0,1,.641-.351,3.365,3.365,0,0,0,.435.012.8.8,0,0,1-.078.414c-.14-.008-.111-.145-.178-.2a.3.3,0,0,0-.336-.061c-.072.03-.149.061-.155.161-.01.158.1.2.218.245s.22.1.33.147a.436.436,0,0,1,.314.461c-.024.239-.2.338-.4.394a.953.953,0,0,1-.556,0Z" transform="translate(-1133.639 -387.365)" fill="#1c1c1c"/><path d="M1285.785,409.354a2.922,2.922,0,0,1,.1-.305.28.28,0,0,1,.231-.142c.157-.027.105.119.142.189a5.964,5.964,0,0,0,.7,1.38h-.511c-.111,0-.21.017-.156-.166a.213.213,0,0,0-.182-.292c-.148-.005-.319-.086-.453.06s-.025.258.121.381h-.625a2.206,2.206,0,0,0,.437-.7.558.558,0,0,0,.524.048C1286.008,409.414,1286.008,409.414,1285.785,409.354Z" transform="translate(-1232.194 -387.427)" fill="#1f1f1f"/><path d="M1273.866,409.024c-.33,0-.626.079-.713.451a.663.663,0,0,0,.216.725c.313.253.563.066.826-.107a.263.263,0,0,1-.189.362,1.147,1.147,0,0,1-1.176-.321.751.751,0,0,1,.011-.9.971.971,0,0,1,1.119-.283Z" transform="translate(-1223.316 -387.414)" fill="#1f1f1f"/><path d="M1252.55,408.449a.98.98,0,0,1-.3.551c-.479-.637-.6-1.462-1.075-2.091.49-.145.5-.141.7.462.01.122.1.165.2.194a1.391,1.391,0,0,0,.355.872Z" transform="translate(-1208 -385.952)" fill="#171717"/><path d="M1294.506,408.959c.236,0,.528-.127.6.259.021.121.362-.055.212.251-.093.188.112.332.176.549a1.541,1.541,0,0,0,.343-.763c.035-.354.193-.346.458-.276-.488.411-.478,1.107-.906,1.553-.182-.161-.167-.43-.391-.522a.17.17,0,0,0-.123-.168C1295,409.446,1294.649,409.245,1294.506,408.959Z" transform="translate(-1238.855 -387.454)" fill="#1f1f1f"/><path d="M1214.149,409.023c-.582.028-.852.3-.768.766a.551.551,0,0,0,.946.348c.05-.038.091-.105.17-.055-.133.393-.468.51-.988.345a.751.751,0,0,1-.529-.971.913.913,0,0,1,1.172-.529Z" transform="translate(-1180.772 -387.41)" fill="#1f1f1f"/><path d="M1306.461,410.433a.758.758,0,0,1-.895.075c-.277-.125-.272-.4-.3-.656s.135-.56-.221-.8h.743a1.552,1.552,0,0,0-.1,1.013c.034.337.244.408.676.277Z" transform="translate(-1246.364 -387.532)" fill="#1c1c1c"/><path d="M1202.4,409.858c-.072-.255.1-.558-.2-.808h.709c-.193.238-.1.5-.112.779l.226-.216.172.082.729.877c-.628.108-.8-.411-1.122-.747l-.028.435C1202.574,410.2,1202.71,409.817,1202.4,409.858Z" transform="translate(-1173.124 -387.532)" fill="#1a1a1a"/><path d="M1209.1,409.035h.671a1.77,1.77,0,0,0,.072,1.521h-.747A1.824,1.824,0,0,0,1209.1,409.035Z" transform="translate(-1178.035 -387.521)" fill="#1a1a1a"/><path d="M1111.152,410.534a2.045,2.045,0,0,0,.029-1.518h.658a1.707,1.707,0,0,0,.061,1.518Z" transform="translate(-1108.287 -387.508)" fill="#1f1f1f"/><path d="M1280.3,410.571h-.48l0-.152c0-.144.144-.314-.112-.411-.121-.045.022-.1.05-.155a.6.6,0,0,0-.091-.8h.711a2.209,2.209,0,0,0-.072,1.375Z" transform="translate(-1228.281 -387.535)" fill="#1a1a1a"/><path d="M1195.823,335.464c-.151.091-.4-.057-.492.226-.025.074-.189-.088-.278-.161-.125-.1-.206-.308-.429-.188-.156-.058-.2-.148-.079-.284.178-.122.489.04.584-.27a.2.2,0,0,1,.139.01c.2.144.132.012.112-.1s.1-.106.146-.166c.181-.067.281,0,.3.188-.3.172-.027.343,0,.514h0Z" transform="translate(-1167.622 -334.448)" fill="#afafaf"/><path d="M1166.679,409.959a1.121,1.121,0,0,1-.375.572,11.381,11.381,0,0,0-.883-1.533,1.092,1.092,0,0,1,.683.014l0,.009a1.84,1.84,0,0,0,.357,1.006c.09.022.112-.094.154-.158Z" transform="translate(-1146.933 -387.461)" fill="#151515"/><path d="M1302.272,410.5h-.7a1.859,1.859,0,0,0,0-1.5c.1-.094.229-.034.343-.045s.212,0,.31,0A2.134,2.134,0,0,0,1302.272,410.5Z" transform="translate(-1243.888 -387.457)" fill="#151515"/><path d="M1136.065,408.949l.55.029a2.5,2.5,0,0,0,.109,1.5h-.677A2.37,2.37,0,0,0,1136.065,408.949Z" transform="translate(-1126.015 -387.46)" fill="#151515"/><path d="M1167.8,409.029l0-.009a.69.69,0,0,1,.892.287c.126.232.038.555.311.723l.131.014a1.2,1.2,0,0,1-.3.54c-.1-.2-.18-.362-.255-.522-.042-.09-.078-.177-.2-.1l-.06-.091A.709.709,0,0,0,1167.8,409.029Z" transform="translate(-1148.623 -387.469)" fill="#1a1a1a"/><path d="M1184.884,410.573l-.56,0-.009-.162a2.6,2.6,0,0,0-.118-1.357h.685a1.6,1.6,0,0,0,0,1.385Z" transform="translate(-1160.303 -387.536)" fill="#131313"/><path d="M1191.762,409.357a2.6,2.6,0,0,1,.107-.3.24.24,0,0,1,.23-.13c.115,0,.1.1.13.167a5.238,5.238,0,0,0,.689,1.37c-.24.087-.5-.053-.7.116l-.087-.084c.252-.163.151-.328,0-.493l-.039-.148a.622.622,0,0,0-.2-.487Z" transform="translate(-1165.69 -387.444)" fill="#1a1a1a"/><path d="M1120.587,409.053a.247.247,0,0,0-.143.261c.049.39-.083.819.265,1.175h-.736c.208-.3.08-.637.137-.951.054-.184-.129-.4.078-.564a.786.786,0,0,1,.4.011A.31.31,0,0,0,1120.587,409.053Z" transform="translate(-1114.569 -387.463)" fill="#131313"/><path d="M1116.161,410.009a1.464,1.464,0,0,1-.235.524,6.93,6.93,0,0,1-.49-1.108c0-.157-.1-.211-.231-.232-.014-.126-.168-.119-.21-.22a.533.533,0,0,1,.789.377,1.083,1.083,0,0,0,.3.507Z" transform="translate(-1111.024 -387.435)" fill="#171717"/><path d="M1161.4,410.361a.854.854,0,0,0,.262-.9c-.072-.308-.235-.5-.58-.477v-.1a.859.859,0,0,1,1.037.647c.087.464-.172.8-.717.925Z" transform="translate(-1143.844 -387.404)" fill="#1f1f1f"/><path d="M1292.014,408.93l.239.02c-.032.412.258.7.4,1.048.01.024.111.011.17.015a.714.714,0,0,1-.328.514c-.175-.356-.338-.7-.515-1.042a1.1,1.1,0,0,0-.251-.4c-.1-.078-.084-.094.109-.149Z" transform="translate(-1236.838 -387.447)" fill="#131313"/><path d="M1159.483,410.578l0,.089c-.632.064-1.029-.178-1.089-.662a.74.74,0,0,1,.524-.829c.185.138-.016.231-.049.333C1158.684,410.093,1158.942,410.557,1159.483,410.578Z" transform="translate(-1141.926 -387.621)" fill="#1c1c1c"/><path d="M1199.275,340.635c-.045-.039-.13-.18-.138-.083-.035.425-.243.084-.443.1-.084,0,.355.474-.129.257-.138-.062-.071.141-.1.223l-.081.01c-.063-.17-.126-.341-.19-.512-.1-.264.064-.252.239-.232.022.032.017.112.075.079s.007-.083-.029-.117c.017-.243.422-.021.39-.324l.14.026a1.744,1.744,0,0,0,.418.4l0,0q0,.1.006.2Z" transform="translate(-1170.25 -338.389)" fill="#aeaeae"/><path d="M1255.657,408.448l-.117-.012a9.942,9.942,0,0,0,.469-1.471c.023-.239.308-.089.54-.09C1255.988,407.3,1255.976,407.957,1255.657,408.448Z" transform="translate(-1211.107 -385.951)" fill="#323232"/><path d="M1309.646,410.356l-.09-.093a1.24,1.24,0,0,0-.033-1.278,1.849,1.849,0,0,1,.6-.042c-.3.211-.221.46-.237.692C1309.864,409.894,1309.918,410.179,1309.646,410.356Z" transform="translate(-1249.549 -387.455)" fill="#1f1f1f"/><path d="M1114.881,409.886c.133.021.234.075.231.232a.89.89,0,0,0,.019,1.038h-.591C1114.894,410.785,1114.755,410.3,1114.881,409.886Z" transform="translate(-1110.7 -388.127)" fill="#323232"/><path d="M1190.586,410.918l.039.148a1.588,1.588,0,0,0-.355.024c-.183.054-.328.145-.081.32-.1.178-.1.178-.543.109a4.652,4.652,0,0,0,.609-1.1l.127.01-.158.441C1190.352,410.951,1190.472,410.9,1190.586,410.918Z" transform="translate(-1164.184 -388.508)" fill="#323232"/><path d="M1157.084,398.63l.521-.622c.182.578-.012.865-.532.829Z" transform="translate(-1140.988 -379.669)" fill="#1a1a1a"/><path d="M1178.786,412.593l.115.107a.763.763,0,0,1-.614.062c-.451-.072-.491-.193-.206-.651C1178.136,412.579,1178.372,412.738,1178.786,412.593Z" transform="translate(-1155.819 -389.712)" fill="#323232"/><path d="M1198.023,338.154c0,.075,0,.149.006.223-.231.132-.46.266-.694.393-.1.053-.233.174-.313.033-.094-.165.095-.227.2-.286.239-.132.489-.242.735-.361A.492.492,0,0,0,1198.023,338.154Z" transform="translate(-1169.418 -337.046)" fill="#aeaeae"/><path d="M1202.385,411.849c.313-.041.177.34.379.4-.048.151.176.144.166.3h-.746C1202.444,412.352,1202.338,412.084,1202.385,411.849Z" transform="translate(-1173.112 -389.523)" fill="#171717"/><path d="M1192.259,414.374l.087.084c-.223.3-.033.365.28.358-.2.252-.4.3-.578.136-.258-.235.033-.391.132-.57A.563.563,0,0,0,1192.259,414.374Z" transform="translate(-1165.82 -391.323)" fill="#323232"/><path d="M1253.816,407.6c-.1-.029-.189-.071-.2-.194.28.107.251-.2.264-.27.059-.332.244-.276.566-.2C1254.063,407.075,1253.993,407.378,1253.816,407.6Z" transform="translate(-1209.738 -385.984)" fill="#323232"/><path d="M1205.233,409.579l-.172-.082c.087-.181.235-.319.339-.492.119-.2.338-.1.563-.046C1205.619,409.093,1205.332,409.23,1205.233,409.579Z" transform="translate(-1175.161 -387.415)" fill="#1f1f1f"/><path d="M1179.462,405.243a1.645,1.645,0,0,1,.485-.462c.123-.093.208,0,.262.085.077.125-.032.152-.125.18C1179.911,405.1,1179.739,405.155,1179.462,405.243Z" transform="translate(-1156.931 -384.464)" fill="#323232"/><path d="M1172.6,409.749a2.48,2.48,0,0,1,.242-.847l.268-.013.05.128c-.214.058-.241.264-.337.417C1172.752,409.543,1172.763,409.711,1172.6,409.749Z" transform="translate(-1152.043 -387.418)" fill="#323232"/><path d="M1118.849,410.06l-.08-.151c.129-.257.262-.512.386-.771.038-.081.041-.189.176-.142-.207.163-.024.38-.078.564-.133-.131-.131.018-.176.082C1118.986,409.774,1118.984,409.954,1118.849,410.06Z" transform="translate(-1113.712 -387.486)" fill="#323232"/><path d="M1124.051,412.886c-.06.137-.117.273-.267.271a.232.232,0,0,1-.2-.208.278.278,0,0,1,.23-.28C1123.951,412.648,1123.977,412.805,1124.051,412.886Z" transform="translate(-1117.137 -390.107)" fill="#1f1f1f"/><path d="M1161.072,406.691a4.047,4.047,0,0,1,.269-.337c.1-.1.207-.023.276.048s-.008.146-.072.185c-.156.095-.281.245-.473.276Z" transform="translate(-1143.836 -385.577)" fill="#323232"/><path d="M1281.9,413.131v-.143a.636.636,0,0,0,.67-.34C1282.582,413.181,1282.582,413.181,1281.9,413.131Z" transform="translate(-1229.877 -390.094)" fill="#323232"/><path d="M1220.306,376.213c-.018.145.127.273.046.432-.184-.012-.231-.207-.371-.274l-.119-.29a.243.243,0,0,0,.214-.221l.11.065.038.131.061.095A.082.082,0,0,0,1220.306,376.213Z" transform="translate(-1185.701 -363.896)" fill="#aeaeae"/><path d="M1186.584,413.335V413.2c.12-.032.268.029.355-.119.041-.071.071-.2.2-.13.089.048.032.14.029.214,0,.123-.045.2-.188.187S1186.715,413.342,1186.584,413.335Z" transform="translate(-1162.003 -390.299)" fill="#323232"/><path d="M1276.787,409.13l.095-.076c.543-.106.244.21.247.442C1276.931,409.392,1276.958,409.171,1276.787,409.13Z" transform="translate(-1226.237 -387.52)" fill="#323232"/><path d="M1217.136,408.96l0-.1a.657.657,0,0,0,.418-.074l-.144.558Z" transform="translate(-1183.759 -387.347)" fill="#323232"/><path d="M1146.954,412.967l-.02.131c-.371-.061-.329-.246-.155-.493C1146.9,412.71,1146.891,412.857,1146.954,412.967Z" transform="translate(-1133.566 -390.064)" fill="#323232"/><path d="M1235.468,408.91l-.363.481-.028-.136C1235.1,409.022,1235.188,408.856,1235.468,408.91Z" transform="translate(-1196.535 -387.425)" fill="#323232"/><path d="M1160.47,408.891v.1c-.086.027-.179.147-.248-.021A.268.268,0,0,1,1160.47,408.891Z" transform="translate(-1143.23 -387.417)" fill="#1c1c1c"/><path d="M1171.972,412.1c.089-.055.008-.243.181-.231.1.105,0,.17-.051.246Z" transform="translate(-1151.598 -389.54)" fill="#323232"/><path d="M1295.566,412.257c-.085-.079.007-.126.034-.185a.17.17,0,0,1,.123.168Z" transform="translate(-1239.585 -389.684)" fill="#131313"/><path d="M1184.2,413.77l.009.162c-.062.014-.156.041-.169-.03C1184.026,413.807,1184.122,413.781,1184.2,413.77Z" transform="translate(-1160.193 -390.893)" fill="#323232"/><path d="M1279.817,413.8l0,.152c-.06.012-.149.049-.163-.026C1279.64,413.829,1279.739,413.811,1279.817,413.8Z" transform="translate(-1228.28 -390.913)" fill="#323232"/><path d="M1156.467,400.119l-.011.207c-.1,0-.246.047-.25-.1C1156.2,400.036,1156.361,400.115,1156.467,400.119Z" transform="translate(-1140.37 -381.158)" fill="#0a0a0a"/><path d="M1155.495,400.19a.3.3,0,0,1-.3-.1l.162.005a.085.085,0,0,0,.139.054Z" transform="translate(-1139.652 -381.154)" fill="#1a1a1a"/><path d="M1155.9,400.137a.085.085,0,0,1-.139-.054C1155.818,400.067,1155.875,400.057,1155.9,400.137Z" transform="translate(-1140.052 -381.139)" fill="#0a0a0a"/><path d="M1122.1,409.131a.3.3,0,0,1,0-.068c.022.006.062.01.063.02C1122.178,409.134,1122.136,409.129,1122.1,409.131Z" transform="translate(-1116.085 -387.541)" fill="#323232"/><path d="M1221.182,376.636l-.061-.095Z" transform="translate(-1186.597 -364.382)" fill="#f9f9f9"/><path d="M1202.854,356.082l-.1-.014c-.087-.21-.112-.5-.47-.35l-.164-.032-.2-.134v.007a2.087,2.087,0,0,1-.035-.238c-.006-.152.008-.315.174-.372.193-.066.15.142.211.223.178.237.38.172.561.038a.646.646,0,0,0,.046-.853c-.1-.107-.164-.223-.023-.29.279-.132.162-.325.118-.508-.016-.067.011-.183-.1-.187a.148.148,0,0,0-.162.142c-.018.2-.165.218-.32.222l-.207-.015c.071-.186-.274-.36-.016-.551l.121-.69a1.155,1.155,0,0,0-.343.666c-.155-.109-.048-.34-.2-.456-.03.027-.062.041-.067.062-.094.351-.185.7-.276,1.055l-.042.08a.029.029,0,0,0-.036.025c-.172.053-.259.294-.488.221-.04-.074-.11-.141-.062-.239.119-.041.217-.1.2-.251a1.438,1.438,0,0,0,.12-.639l0,.007.038-.09a2.99,2.99,0,0,0,.025-.992l-.27.493c-.21.283-.437.374-.723.057a.671.671,0,0,0,.462-.56c.022-.213.123-.475-.309-.4-.3.052-.32-.2-.273-.437.236.045.184-.114.179-.247-.013-.322-.038-.644-.029-.966a1.046,1.046,0,0,1,1.5-.973.548.548,0,0,1,.093.7c-.062.067-.121.137-.187.2-.257.247-.619.47-.19.867.031.114.156.107.224.174.414.474.552.488.748.075.158-.157.564-.215.225-.569.276-.152.168-.4.149-.619.159-.232.079-.4-.093-.6s-.417-.309-.532-.551c.176-.17.345-.079.515.012a.475.475,0,0,0,.362.092.827.827,0,0,1,.886.99c-.068.246-.453.447-.085.741-.015.017-.03.047-.046.048-.275.027-.09.155-.035.213a2.53,2.53,0,0,0,.315.247l.094.156c.087.231.187.209.3.015.406-.1.532-.5.8-.749.086-.08-.022-.131-.074-.186-.156-.164-.311-.329-.46-.5a.471.471,0,0,1-.095-.588.612.612,0,0,1,.648-.3,1.226,1.226,0,0,1,1,1.019c-.023.346-.051.692-.067,1.038,0,.1-.067.254.072.275.162.024.176.1.138.212a.3.3,0,0,1-.3.227,1.487,1.487,0,0,1-.314-.088,1.923,1.923,0,0,0,0,.671,1.04,1.04,0,0,0,.4.4.559.559,0,0,1-.593.007l0,0-.294-.5a3.409,3.409,0,0,0,.2,1.8c.036.047.111.063.169.093.034.09-.024.148-.072.209a.765.765,0,0,1-.475-.08.029.029,0,0,0-.042,0l-.038-.147-.063-.169-.114-.394-.056-.169a1.206,1.206,0,0,0-.268-.722v.633h-.053c-.092-.175-.109-.4-.324-.546a1.412,1.412,0,0,0,.147.8c.055.133-.084.206-.1.317l-.175.181c-.066-.052-.126-.159-.21-.02a.584.584,0,0,1-.145-.127c-.05-.089-.075-.235-.206-.177-.1.045-.055.191-.058.292-.007.2.288.271.234.5a.032.032,0,0,0-.023.038l.005.006c-.288.181-.31.407-.078.785l0,.006c.066.226.244.195.411.172s.207-.136.175-.287a.245.245,0,0,1,.166-.141c.347.339.349.5.007.808l-.147.037-.166-.018c-.162-.09-.161.019-.16.13-.165.007-.158.135-.174.247-.244-.1-.505.073-.75-.045C1202.9,356.026,1202.873,356.064,1202.854,356.082Zm2.559-5.318c-.136.034-.163.166-.235.256a2.321,2.321,0,0,1-1.62.866c-.124.014-.248.029-.279-.142s.078-.2.211-.21c.045,0,.085-.054.148-.1-.145-.081-.443.039-.346-.284.006-.019-.039-.071-.068-.078a.141.141,0,0,0-.093.04c.073.34-.252.244-.413.339.046.05.066.089.1.1.106.051.336-.1.294.184-.036.24-.225.148-.35.132a2.351,2.351,0,0,1-1.379-.682c-.094-.092-.156-.268-.349-.2a2.389,2.389,0,0,0,2.671,1.266C1204.585,352.1,1205.467,351.377,1205.412,350.764Zm-4.318-1.131c-.106-.039.055-.271-.146-.249-.12.013-.281.114-.285.233,0,.187.213.152.333.2C1201.087,349.849,1201.119,349.746,1201.094,349.633Zm4.66-.027c-.095-.073-.192-.208-.3-.214-.188-.012-.107.2-.156.3a.091.091,0,0,0,.132.115C1205.535,349.746,1205.707,349.8,1205.754,349.605Z" transform="translate(-1171.571 -344.392)" fill="#0f0f0f"/><path d="M1202.846,366.256c.229.074.316-.168.488-.221l0,.21c-.039.107.051.17.087.251-.09.073-.207-.061-.328.074.252.008.172.341.406.357s.345-.183.521-.268c.1-.05.215-.082.335-.126-.121-.061-.251-.108-.137-.283a2.993,2.993,0,0,0,.184-.391c.156,0,.3-.024.32-.222a.149.149,0,0,1,.162-.142c.109,0,.082.12.1.187.044.183.161.377-.118.508-.141.066-.081.183.023.29a.645.645,0,0,1-.046.853c-.182.135-.383.2-.561-.038-.061-.081-.018-.29-.211-.223-.166.057-.18.22-.174.372a2.119,2.119,0,0,0,.035.238,1.586,1.586,0,0,0-.819-.762C1202.963,366.872,1203,366.464,1202.846,366.256Zm1.763.287a3.472,3.472,0,0,1-.262.368c-.045.075.078.273.217.273.181,0,.266-.154.3-.323S1204.746,366.641,1204.609,366.543Z" transform="translate(-1173.583 -356.517)" fill="#9c9c9c"/><path d="M1209.06,350.454a2.526,2.526,0,0,1-.315-.247c-.055-.058-.24-.186.035-.213.017,0,.031-.032.046-.048-.368-.295.017-.5.085-.741a.827.827,0,0,0-.886-.989.475.475,0,0,1-.362-.092c-.17-.091-.339-.182-.515-.012a.154.154,0,0,0-.079,0c.033-.235.172-.345.389-.247a3.157,3.157,0,0,0,.7.143.932.932,0,0,1,.841,1.215,1.127,1.127,0,0,0,.07.916C1209.119,350.208,1209.226,350.358,1209.06,350.454Z" transform="translate(-1176.591 -343.938)" fill="#a0a0a0"/><path d="M1221.317,341.576c.006.058.011.115.017.173l-.026.294c-.188.264-.556.264-.754.513l-.371-.01a.759.759,0,0,0,.034-.531c-.07-.294-.094-.624.32-.732l.006.005a.117.117,0,0,0,.063.149c-.081.144-.386.277-.181.434.187.143.183-.218.324-.289,0,.135.08.13.174.088-.012.064-.019.13-.038.193-.026.083-.143.135-.089.242.012.023.071.036.1.031a.22.22,0,0,0,.184-.225,2.584,2.584,0,0,0,0-.277C1221.128,341.479,1221.208,341.469,1221.317,341.576Z" transform="translate(-1185.924 -339.274)" fill="#aeaeae"/><path d="M1201.617,349.316a1.046,1.046,0,0,0-1.5.973c-.009.322.016.644.029.966.005.133.057.292-.179.247a8.236,8.236,0,0,1-.035-1.16c.1-.951.518-1.406,1.526-1.245a.633.633,0,0,0,.5-.036l.008.164C1201.879,349.372,1201.74,349.312,1201.617,349.316Z" transform="translate(-1171.498 -344.813)" fill="#a0a0a0"/><path d="M1213.642,366.622l.175-.181c.274.76.274.76.9.5-.074.231.083.231.236.235.036.142-.121.145-.165.229-.241.171-.47.239-.7-.025a.479.479,0,0,0-.486-.11l-.082-.094.348-.03C1213.869,366.922,1213.7,366.8,1213.642,366.622Zm1,.59c-.009-.009-.016-.024-.026-.025s-.02.013-.03.021c.009.009.016.025.026.025S1214.628,367.219,1214.638,367.212Z" transform="translate(-1181.183 -357.19)" fill="#222"/><path d="M1219.954,355.335a1.926,1.926,0,0,1,0-.671,1.49,1.49,0,0,0,.314.088.3.3,0,0,0,.3-.227c.039-.113.024-.188-.138-.212-.139-.021-.077-.178-.072-.275.016-.346.043-.692.067-1.038.144.163.061.358.073.538.017.259-.029.509.217.725.187.164-.012.623-.276.628-.387.007-.308.221-.261.447Z" transform="translate(-1185.742 -347.618)" fill="#9f9f9f"/><path d="M1213.8,369.271a.478.478,0,0,1,.486.11c.233.264.463.2.7.025.079.015.173.028.139.141s-.1.2-.226.184c-.34-.053-.392.123-.394.413,0,.22-.1.419-.391.4,0-.021,0-.041,0-.062.342-.309.34-.468-.007-.808A.4.4,0,0,0,1213.8,369.271Z" transform="translate(-1181.387 -359.191)" fill="#a0a0a0"/><path d="M1218.589,362.685c-.058-.03-.133-.046-.169-.093a3.408,3.408,0,0,1-.2-1.8l.294.5c-.235-.015-.237.107-.211.3A10.745,10.745,0,0,0,1218.589,362.685Z" transform="translate(-1184.499 -353.169)" fill="#9a9a9a"/><path d="M1207,349.031l-.008-.164a.208.208,0,0,0,.021-.071.154.154,0,0,1,.079,0c.114.242.365.353.532.55s.252.371.093.6l-.186-.3h-.006a.405.405,0,0,0-.272-.355.114.114,0,0,0-.065-.031C1207.141,349.174,1207.007,349.156,1207,349.031Z" transform="translate(-1176.539 -344.619)" fill="#222"/><path d="M1219.569,361.112l.216,0c.3.095.268.331.225.556-.032.167-.182.166-.319.17-.221.007-.318-.1-.312-.316a.559.559,0,0,0,.592-.007A1.039,1.039,0,0,1,1219.569,361.112Z" transform="translate(-1185.357 -353.395)" fill="#9a9a9a"/><path d="M1209.862,374.78c.019-.018.048-.056.056-.053.245.118.506-.056.75.045C1210.478,375.065,1210.148,375.068,1209.862,374.78Z" transform="translate(-1178.579 -363.09)" fill="#9c9c9c"/><path d="M1226.189,345.708c.087.01.182,0,.249.076-.05.3.061.616-.074.911-.018-.327.022-.671-.262-.923a.264.264,0,0,1,.008-.058l.04,0Z" transform="translate(-1190.144 -342.426)" fill="#aeaeae"/><path d="M1207.889,373.541c.358-.155.383.139.47.349A.513.513,0,0,1,1207.889,373.541Z" transform="translate(-1177.175 -362.215)" fill="#9c9c9c"/><path d="M1203.015,360.974l.27-.493a2.991,2.991,0,0,1-.025.992h-.049C1203.166,361.3,1203.331,361.043,1203.015,360.974Z" transform="translate(-1173.704 -352.946)" fill="#9a9a9a"/><path d="M1217.881,368.151c-.153,0-.31,0-.235-.235l.006-.1a.764.764,0,0,0,.474.08Z" transform="translate(-1184.109 -358.165)" fill="#9a9a9a"/><path d="M1203.106,364.217a1.438,1.438,0,0,1-.119.639h-.14C1202.941,364.647,1202.879,364.373,1203.106,364.217Z" transform="translate(-1173.583 -355.606)" fill="#a1a1a1"/><path d="M1202.5,366.438h.14c.014.15-.083.209-.2.251C1202.267,366.559,1202.407,366.5,1202.5,366.438Z" transform="translate(-1173.235 -357.188)" fill="#9c9c9c"/><path d="M1214.608,357.5c-.108.194-.208.216-.3-.015Z" transform="translate(-1181.748 -350.812)" fill="#a0a0a0"/><path d="M1206.591,373.07l.2.134C1206.639,373.295,1206.559,373.268,1206.591,373.07Z" transform="translate(-1176.245 -361.91)" fill="#9c9c9c"/><path d="M1213.265,373.623c0-.11,0-.22.16-.13v.04l-.09.087A.613.613,0,0,1,1213.265,373.623Z" transform="translate(-1181.003 -362.188)" fill="#9c9c9c"/><path d="M1214.545,373.511c0,.021,0,.041,0,.062l-.148-.025Z" transform="translate(-1181.81 -362.224)" fill="#9c9c9c"/><path d="M1213.506,373.8l.089-.087C1213.655,373.836,1213.546,373.784,1213.506,373.8Z" transform="translate(-1181.174 -362.37)" fill="#a0a0a0"/><path d="M1203.694,363.928h.049l-.038.09Z" transform="translate(-1174.187 -355.4)" fill="#a1a1a1"/><path d="M1209.012,335.039a2.737,2.737,0,0,1,.121.8l-.1.445c-.147.081-.206.236-.3.359h0l-.487.313-.157.02-.081.01-.847-.041a.254.254,0,0,0-.187-.171.159.159,0,0,0-.152-.145,1.8,1.8,0,0,1-.346-1.276l.238-.488a1.536,1.536,0,0,1,1.535-.476A2.854,2.854,0,0,1,1209.012,335.039Zm-1.214,1.693a1.06,1.06,0,0,0,1.087-1.13,1.088,1.088,0,1,0-2.175.094A1.041,1.041,0,0,0,1207.8,336.731Z" transform="translate(-1176.153 -334.328)" fill="#aeaeae"/><path d="M1224.152,334.927c.03-.511.27-.691.694-.6.317.071.286.328.314.515.022.15.028.4-.237.443a.256.256,0,0,0-.042-.042c.009-.165-.021-.3-.221-.324C1224.489,334.79,1224.322,334.972,1224.152,334.927Z" transform="translate(-1188.755 -334.307)" fill="#afafaf"/><path d="M1221.258,337.152c-.008.074.177.245-.054.2-.208-.042-.41-.134-.506.112-.087.222.086.394.223.554.043.05.087.1.131.149l-.308.117-.006-.005a.593.593,0,0,0-.149-.361.523.523,0,0,1-.016-.663A.5.5,0,0,1,1221.258,337.152Z" transform="translate(-1186.127 -336.27)" fill="#aeaeae"/><path d="M1225.433,340.064a1.066,1.066,0,0,1-.642.091l-.082-.149c.2-.045.474.094.567-.214.076-.251-.143-.335-.283-.46.312-.186.367.119.505.265C1225.553,339.764,1225.432,339.905,1225.433,340.064Z" transform="translate(-1189.152 -337.844)" fill="#aeaeae"/><path d="M1226.042,337.727l-.232-.018c.029-.145.143-.136.251-.137a.26.26,0,0,1,.042.042Z" transform="translate(-1189.936 -336.632)" fill="#afafaf"/><path d="M1222.367,339.776l.082.149-.246-.009c-.109-.107-.189-.1-.235.057l-.16.036c-.094.042-.17.047-.174-.088.012-.108-.039-.152-.143-.145a.117.117,0,0,1-.063-.149l.308-.117c.223-.01.137-.16.125-.277l.026-.212a.281.281,0,0,0,.315-.07.193.193,0,0,1,.092.174c.259.325.259.325-.205.47C1222.125,339.744,1222.265,339.732,1222.367,339.776Z" transform="translate(-1186.81 -337.614)" fill="#a1a1a1"/><path d="M1207.91,356.438c.054.613-.827,1.333-1.711,1.488a2.39,2.39,0,0,1-2.671-1.266c.194-.064.256.112.35.2a2.351,2.351,0,0,0,1.379.682c.125.016.314.108.35-.132.042-.28-.188-.133-.294-.184-.031-.015-.052-.053-.1-.1.161-.1.486,0,.413-.339a.141.141,0,0,1,.093-.04c.029.007.074.059.068.078-.1.323.2.2.346.284-.063.044-.1.093-.148.1-.133.014-.243.035-.211.21s.155.156.279.142a2.321,2.321,0,0,0,1.62-.866C1207.747,356.6,1207.774,356.472,1207.91,356.438Z" transform="translate(-1174.069 -350.067)" fill="#9a9a9a"/><path d="M1204.53,364.559l0-.21a.029.029,0,0,1,.036-.025l.042-.08c.092-.352.182-.7.276-1.055.006-.021.037-.035.067-.062.15.116.043.347.2.456l.223.024c-.258.191.087.365.016.551s-.172.35-.241.531c-.106.275-.245.215-.4.056A.3.3,0,0,0,1204.53,364.559Z" transform="translate(-1174.783 -354.829)" fill="#a1a1a1"/><path d="M1215.465,365.408l-.006.1c-.629.261-.629.261-.9-.5.015-.111.154-.184.1-.317,0-.128.015-.242.176-.259h.053l.268.089.057.169c-.136.181-.015.289.113.394l.063.169c-.089.076-.07.123.039.147A.03.03,0,0,1,1215.465,365.408Z" transform="translate(-1181.922 -355.763)" fill="#a1a1a1"/><path d="M1212.359,366.882a.4.4,0,0,1,.311.4.245.245,0,0,0-.166.142,1.274,1.274,0,0,1-.585.115l0-.006a1.088,1.088,0,0,1,.077-.785l-.005-.006.063.007-.041-.045c.053-.229-.241-.3-.234-.5,0-.1-.044-.246.058-.292.131-.058.156.087.206.177a.581.581,0,0,0,.145.127,1,1,0,0,1,.085.574Z" transform="translate(-1179.942 -356.802)" fill="#a6a6a6"/><path d="M1204.15,367.3c.159.159.3.219.4-.056.07-.181.16-.354.241-.531l.207.015a3.061,3.061,0,0,1-.185.391c-.114.175.016.222.137.283-.12.044-.232.076-.335.126-.176.085-.3.284-.521.268s-.154-.35-.406-.357c.121-.135.238,0,.328-.074l-.006-.005a.075.075,0,0,0,.064.125c.086-.012-.006-.072.007-.11Z" transform="translate(-1174.186 -357.382)" fill="#222"/><path d="M1204.346,353.43c-.428-.4-.067-.62.191-.867.066-.063.125-.133.187-.2l.026.024c-.057.364-.465.618-.328,1.042Z" transform="translate(-1174.51 -347.166)" fill="#9f9f9f"/><path d="M1202.686,351.89c.025.113-.007.216-.1.182-.12-.046-.337-.011-.333-.2,0-.118.165-.22.285-.233C1202.741,351.62,1202.58,351.851,1202.686,351.89Z" transform="translate(-1173.163 -346.65)" fill="#9a9a9a"/><path d="M1218.8,351.882c-.047.194-.22.14-.32.205a.091.091,0,0,1-.132-.115c.049-.106-.031-.316.156-.3C1218.6,351.674,1218.7,351.81,1218.8,351.882Z" transform="translate(-1184.613 -346.67)" fill="#9a9a9a"/><path d="M1213.307,367.4a1,1,0,0,0-.085-.574c.084-.138.144-.031.21.02.053.177.227.3.224.524Z" transform="translate(-1180.972 -357.418)" fill="#9f9f9f"/><path d="M1206.169,349.63c0,.125.137.144.187.23l-.095.016a.209.209,0,0,0-.032.017.575.575,0,0,0,.027.058c-.114.158-.053.426-.313.49l-.026-.024a.547.547,0,0,0-.093-.7C1205.946,349.718,1206.085,349.778,1206.169,349.63Z" transform="translate(-1175.704 -345.219)" fill="#9f9f9f"/><path d="M1206.363,356.666c-.2.413-.334.4-.748-.075l.022-.022c.247-.071.449.246.708.083Z" transform="translate(-1175.555 -350.152)" fill="#9c9c9c"/><path d="M1206.917,363.089l-.222-.025a1.158,1.158,0,0,1,.343-.666Z" transform="translate(-1176.324 -354.312)" fill="#9a9a9a"/><path d="M1208.789,351.765l.186.3c.019.223.127.467-.149.618-.023,0-.046,0-.069,0C1208.911,352.381,1208.756,352.07,1208.789,351.765Z" transform="translate(-1177.793 -346.739)" fill="#a0a0a0"/><path d="M1214.711,363.09c-.161.016-.18.13-.176.259a1.412,1.412,0,0,1-.147-.8C1214.6,362.694,1214.619,362.915,1214.711,363.09Z" transform="translate(-1181.802 -354.415)" fill="#9a9a9a"/><path d="M1215.963,362.958l-.268-.089v-.634A1.208,1.208,0,0,1,1215.963,362.958Z" transform="translate(-1182.733 -354.195)" fill="#9a9a9a"/><path d="M1208.282,354.948c.023,0,.046,0,.069,0,.339.354-.067.413-.225.569l-.019-.014C1208.023,355.275,1208.288,355.154,1208.282,354.948Z" transform="translate(-1177.318 -349.005)" fill="#9a9a9a"/><path d="M1212.277,371.313a1.277,1.277,0,0,0,.585-.115c.032.151-.007.264-.175.287S1212.343,371.538,1212.277,371.313Z" transform="translate(-1180.299 -360.577)" fill="#a0a0a0"/><path d="M1211.972,368.847a1.089,1.089,0,0,0-.077.785C1211.661,369.254,1211.684,369.028,1211.972,368.847Z" transform="translate(-1179.914 -358.903)" fill="#a0a0a0"/><path d="M1216.789,365.725c-.128-.106-.249-.213-.114-.394Z" transform="translate(-1183.389 -356.399)" fill="#9a9a9a"/><path d="M1204.836,356.068h.075a.164.164,0,0,1,.17.152l-.022.022C1204.992,356.175,1204.867,356.182,1204.836,356.068Z" transform="translate(-1175 -349.803)" fill="#9c9c9c"/><path d="M1217.333,367.435c-.108-.024-.128-.071-.039-.147Z" transform="translate(-1183.832 -357.793)" fill="#9a9a9a"/><path d="M1204.71,367.006l-.042.08Z" transform="translate(-1174.881 -357.592)" fill="#9c9c9c"/><path d="M1212.558,368.693l.041.045-.063-.007A.031.031,0,0,1,1212.558,368.693Z" transform="translate(-1180.483 -358.793)" fill="#a0a0a0"/><path d="M1208.3,369.134c.137.1.282.145.251.318s-.116.325-.3.323c-.139,0-.261-.2-.217-.274A3.49,3.49,0,0,0,1208.3,369.134Z" transform="translate(-1177.272 -359.108)" fill="#a6a6a6"/><path d="M1204.506,368.1a.3.3,0,0,1,.216.187l-.064.074-.071-.015.006.005C1204.557,368.272,1204.467,368.209,1204.506,368.1Z" transform="translate(-1174.759 -358.373)" fill="#222"/><path d="M1217.27,369.055c-.01.007-.02.021-.03.02s-.017-.016-.026-.025c.01-.008.02-.021.03-.021S1217.262,369.046,1217.27,369.055Z" transform="translate(-1183.816 -359.033)" fill="#9a9a9a"/><path d="M1205.2,352.2a.164.164,0,0,0-.17-.152c-.137-.425.271-.678.328-1.042.26-.064.2-.333.313-.49,0-.025,0-.05.005-.075l.095-.016a.113.113,0,0,1,.064.031c.081.126,0,.378.272.355h.007c-.033.3.122.616-.031.916.006.206-.26.327-.176.557C1205.648,352.451,1205.447,352.133,1205.2,352.2Z" transform="translate(-1175.118 -345.788)" fill="#a6a6a6"/><path d="M1208.171,350.892c-.275.023-.191-.229-.272-.355A.405.405,0,0,1,1208.171,350.892Z" transform="translate(-1177.182 -345.865)" fill="#a0a0a0"/><path d="M1225.671,336.769c-.108,0-.222-.008-.251.137l.008.024-.161-.017c.023-.13.107-.26,0-.388l.188-.081C1225.65,336.467,1225.681,336.6,1225.671,336.769Z" transform="translate(-1189.546 -335.829)" fill="#a6a6a6"/><path d="M1224.46,336.725c.112.128.028.258.005.388l-.017.172-.065.085-.156.17a.193.193,0,0,0-.092-.174c.016-.161.2-.269.116-.476C1224.2,336.766,1224.351,336.735,1224.46,336.725Z" transform="translate(-1188.744 -336.029)" fill="#afafaf"/><path d="M1222.633,339.081c-.009.071-.018.141-.027.212-.09-.037-.171-.091-.126-.2C1222.513,339.009,1222.578,339.026,1222.633,339.081Z" transform="translate(-1187.556 -337.674)" fill="#afafaf"/><path d="M1204.762,368.956l.071.015c-.013.038.079.1-.007.11A.075.075,0,0,1,1204.762,368.956Z" transform="translate(-1174.935 -358.981)" fill="#9c9c9c"/><path d="M1207.265,350.485c0,.025,0,.05-.005.075-.009-.019-.019-.038-.027-.058A.211.211,0,0,1,1207.265,350.485Z" transform="translate(-1176.707 -345.827)" fill="#a0a0a0"/><path d="M1209.485,337.4c.106-.2.172-.334.242-.462.04-.073.1-.143.19-.107.106.042.059.134.029.2-.105.245-.217.488-.325.732-.057.128-.13.2-.277.112-.043-.027-.107-.075-.136-.061-.139.069-.286.227-.416.034a3.5,3.5,0,0,1-.335-.936c-.007-.022.033-.076.061-.087a.13.13,0,0,1,.173.056c.043.082.07.173.109.258.027.058.055.139.135.121.105-.024.084-.122.075-.2-.006-.052-.04-.1-.05-.151-.035-.185-.31-.558.234-.307.032.014.1-.022.136-.049.059-.041.126-.075.183-.03.084.066.014.147-.009.219A.832.832,0,0,0,1209.485,337.4Z" transform="translate(-1177.578 -335.875)" fill="#adadad"/></svg>