<svg xmlns="http://www.w3.org/2000/svg" xmlns:xlink="http://www.w3.org/1999/xlink" width="130.827" height="55"><defs><linearGradient id="a" x1=".871" y1=".202" x2=".038" y2=".85" gradientUnits="objectBoundingBox"><stop offset=".054" stop-color="#76777a"/><stop offset=".314" stop-color="#9299a1" stop-opacity=".671"/><stop offset=".73" stop-color="#bbccdc" stop-opacity=".188"/><stop offset=".929" stop-color="#cce0f4" stop-opacity="0"/><stop offset="1" stop-color="#cce0f4" stop-opacity="0"/></linearGradient><linearGradient id="b" x1=".981" y1=".856" x2=".018" y2=".19" xlink:href="#a"/></defs><g data-name="Group 2"><g data-name="Group 1"><path data-name="Path 1" d="M10.403 20.868h1.765l3.38 11.806 3.8-11.806h1.739l3.753 11.83 3.363-11.83h1.715l-4.25 13.57h-1.74l-3.753-11.384-3.753 11.384h-1.765Z" fill="#76777a"/><path data-name="Path 2" d="M32.53 34.438h-1.742v-13.57h1.742v2.411a4.674 4.674 0 0 1 4.648-2.659v1.814h-.473c-2.261 0-4.175 1.019-4.175 4.424Z" fill="#76777a"/><path data-name="Path 3" d="M44.234 34.637c-3.828 0-6.735-2.684-6.735-6.984a6.788 6.788 0 1 1 13.57 0 6.616 6.616 0 0 1-6.835 6.984Zm0-1.516c2.56 0 5.045-1.74 5.045-5.468s-2.436-5.468-5.02-5.468-5 1.74-5 5.468 2.39 5.468 4.975 5.468Z" fill="#76777a"/><path data-name="Path 4" d="M58.55 20.669c3.4 0 5.617 1.815 6.238 4.623h-1.864a4.134 4.134 0 0 0-4.374-3.132c-2.659 0-4.822 1.815-4.822 5.492s2.163 5.518 4.822 5.518a4.124 4.124 0 0 0 4.374-3.157h1.861c-.621 2.709-2.833 4.623-6.238 4.623-3.828 0-6.586-2.684-6.586-6.984s2.762-6.983 6.589-6.983Z" fill="#bf1e2d"/><path data-name="Path 5" d="M72.443 34.637c-3.828 0-6.735-2.684-6.735-6.984a6.788 6.788 0 1 1 13.57 0 6.616 6.616 0 0 1-6.835 6.984Zm0-1.516c2.56 0 5.045-1.74 5.045-5.468s-2.436-5.468-5.02-5.468-5 1.74-5 5.468 2.39 5.468 4.975 5.468Z" fill="#bf1e2d"/><path data-name="Path 6" d="M91.135 26.684c0-3.007-1.64-4.548-4.126-4.548-2.535 0-4.3 1.591-4.3 4.9v7.406h-1.74V20.868h1.74v2.311a4.958 4.958 0 0 1 4.622-2.56c3.082 0 5.518 1.889 5.518 5.865v7.953h-1.714Z" fill="#bf1e2d"/><path data-name="Path 7" d="M99.883 34.637c-3.081 0-5.244-1.541-5.468-4.026h1.79c.149 1.491 1.441 2.56 3.653 2.56 1.938 0 3.032-1.044 3.032-2.336 0-3.355-8.152-1.392-8.152-6.487 0-2.013 1.914-3.678 4.772-3.678 2.908 0 4.822 1.541 4.971 4.15h-1.739c-.1-1.516-1.218-2.659-3.281-2.659-1.814 0-2.958.969-2.958 2.162 0 3.678 8.028 1.715 8.1 6.512.002 2.186-1.912 3.802-4.72 3.802Z" fill="#bf1e2d"/><path data-name="Path 8" d="M118.151 34.438h-1.74v-2.384a4.9 4.9 0 0 1-4.623 2.61c-3.081 0-5.517-1.889-5.517-5.865v-7.931h1.715v7.729c0 3.007 1.64 4.548 4.126 4.548 2.535 0 4.3-1.591 4.3-4.9v-7.377h1.74Z" fill="#bf1e2d"/><path data-name="Path 9" d="M120.637 16.047h1.739v18.391h-1.739Z" fill="#bf1e2d"/><path data-name="Path 10" d="M125.335 22.335h-1.889v-1.466h1.889v-3.4h1.765v3.4h3.728v1.466H127.1v8.423c0 1.665.572 2.187 2.137 2.187h1.591v1.491h-1.864c-2.361 0-3.629-.969-3.629-3.678Z" fill="#bf1e2d"/></g><path data-name="Path 11" d="M78.936 7.263a4.555 4.555 0 0 0-3.345 3.822 27.912 27.912 0 0 0-39.8 5.38 43.226 43.226 0 0 0-3.9-3.259 32.984 32.984 0 0 1 47.045-5.943Z" transform="translate(-15.704)" fill="url(#a)"/><circle data-name="Ellipse 1" cx="3.045" cy="3.045" transform="translate(61.37 8.629)" fill="#bf1e2d" r="3.045"/><path data-name="Path 12" d="M47.046 85.122A4.555 4.555 0 0 1 43.7 81.3a27.912 27.912 0 0 1-39.8-5.38A43.226 43.226 0 0 1 0 79.179a32.984 32.984 0 0 0 47.046 5.944Z" transform="translate(0 -37.385)" fill="url(#b)"/><circle data-name="Ellipse 2" cx="3.045" cy="3.045" transform="translate(45.184 40.281)" fill="#bf1e2d" r="3.045"/></g></svg>